  0
SECTION
  2
HEADER
  9
$ACADVER
  1
AC1014
  9
$ACADMAINTVER
 70
     9
  9
$DWGCODEPAGE
  3
ANSI_932
  9
$INSBASE
 10
0.0
 20
0.0
 30
0.0
  9
$EXTMIN
 10
1.000000000000000E+20
 20
1.000000000000000E+20
 30
1.000000000000000E+20
  9
$EXTMAX
 10
-1.000000000000000E+20
 20
-1.000000000000000E+20
 30
-1.000000000000000E+20
  9
$LIMMIN
 10
0.0
 20
0.0
  9
$LIMMAX
 10
12.0
 20
9.0
  9
$ORTHOMODE
 70
     0
  9
$REGENMODE
 70
     1
  9
$FILLMODE
 70
     1
  9
$QTEXTMODE
 70
     0
  9
$MIRRTEXT
 70
     1
  9
$DRAGMODE
 70
     2
  9
$LTSCALE
 40
1.0
  9
$OSMODE
 70
    37
  9
$ATTMODE
 70
     1
  9
$TEXTSIZE
 40
0.2
  9
$TRACEWID
 40
0.05
  9
$TEXTSTYLE
  7
STANDARD
  9
$CLAYER
  8
0
  9
$CELTYPE
  6
BYLAYER
  9
$CECOLOR
 62
   256
  9
$CELTSCALE
 40
1.0
  9
$DELOBJ
 70
     1
  9
$DISPSILH
 70
     0
  9
$DIMSCALE
 40
1.0
  9
$DIMASZ
 40
0.18
  9
$DIMEXO
 40
0.0625
  9
$DIMDLI
 40
0.38
  9
$DIMRND
 40
0.0
  9
$DIMDLE
 40
0.0
  9
$DIMEXE
 40
0.18
  9
$DIMTP
 40
0.0
  9
$DIMTM
 40
0.0
  9
$DIMTXT
 40
0.18
  9
$DIMCEN
 40
0.09
  9
$DIMTSZ
 40
0.0
  9
$DIMTOL
 70
     0
  9
$DIMLIM
 70
     0
  9
$DIMTIH
 70
     1
  9
$DIMTOH
 70
     1
  9
$DIMSE1
 70
     0
  9
$DIMSE2
 70
     0
  9
$DIMTAD
 70
     0
  9
$DIMZIN
 70
     0
  9
$DIMBLK
  1

  9
$DIMASO
 70
     1
  9
$DIMSHO
 70
     1
  9
$DIMPOST
  1

  9
$DIMAPOST
  1

  9
$DIMALT
 70
     0
  9
$DIMALTD
 70
     2
  9
$DIMALTF
 40
25.4
  9
$DIMLFAC
 40
1.0
  9
$DIMTOFL
 70
     0
  9
$DIMTVP
 40
0.0
  9
$DIMTIX
 70
     0
  9
$DIMSOXD
 70
     0
  9
$DIMSAH
 70
     0
  9
$DIMBLK1
  1

  9
$DIMBLK2
  1

  9
$DIMSTYLE
  2
STANDARD
  9
$DIMCLRD
 70
     0
  9
$DIMCLRE
 70
     0
  9
$DIMCLRT
 70
     0
  9
$DIMTFAC
 40
1.0
  9
$DIMGAP
 40
0.09
  9
$DIMJUST
 70
     0
  9
$DIMSD1
 70
     0
  9
$DIMSD2
 70
     0
  9
$DIMTOLJ
 70
     1
  9
$DIMTZIN
 70
     0
  9
$DIMALTZ
 70
     0
  9
$DIMALTTZ
 70
     0
  9
$DIMFIT
 70
     3
  9
$DIMUPT
 70
     0
  9
$DIMUNIT
 70
     2
  9
$DIMDEC
 70
     4
  9
$DIMTDEC
 70
     4
  9
$DIMALTU
 70
     2
  9
$DIMALTTD
 70
     2
  9
$DIMTXSTY
  7
STANDARD
  9
$DIMAUNIT
 70
     0
  9
$LUNITS
 70
     2
  9
$LUPREC
 70
     4
  9
$SKETCHINC
 40
0.1
  9
$FILLETRAD
 40
0.5
  9
$AUNITS
 70
     0
  9
$AUPREC
 70
     0
  9
$MENU
  1
.
  9
$ELEVATION
 40
0.0
  9
$PELEVATION
 40
0.0
  9
$THICKNESS
 40
0.0
  9
$LIMCHECK
 70
     0
  9
$CHAMFERA
 40
0.5
  9
$CHAMFERB
 40
0.5
  9
$CHAMFERC
 40
1.0
  9
$CHAMFERD
 40
0.0
  9
$SKPOLY
 70
     0
  9
$TDCREATE
 40
2457063.563460648
  9
$TDUPDATE
 40
2457063.56346066
  9
$TDINDWG
 40
0.0000000116
  9
$TDUSRTIMER
 40
0.0000000116
  9
$USRTIMER
 70
     1
  9
$ANGBASE
 50
0.0
  9
$ANGDIR
 70
     0
  9
$PDMODE
 70
     0
  9
$PDSIZE
 40
0.0
  9
$PLINEWID
 40
0.0
  9
$COORDS
 70
     1
  9
$SPLFRAME
 70
     0
  9
$SPLINETYPE
 70
     6
  9
$SPLINESEGS
 70
     8
  9
$ATTDIA
 70
     0
  9
$ATTREQ
 70
     1
  9
$HANDLING
 70
     1
  9
$HANDSEED
  5
16C
  9
$SURFTAB1
 70
     6
  9
$SURFTAB2
 70
     6
  9
$SURFTYPE
 70
     6
  9
$SURFU
 70
     6
  9
$SURFV
 70
     6
  9
$UCSNAME
  2

  9
$UCSORG
 10
0.0
 20
0.0
 30
0.0
  9
$UCSXDIR
 10
1.0
 20
0.0
 30
0.0
  9
$UCSYDIR
 10
0.0
 20
1.0
 30
0.0
  9
$PUCSNAME
  2

  9
$PUCSORG
 10
0.0
 20
0.0
 30
0.0
  9
$PUCSXDIR
 10
1.0
 20
0.0
 30
0.0
  9
$PUCSYDIR
 10
0.0
 20
1.0
 30
0.0
  9
$USERI1
 70
     0
  9
$USERI2
 70
     0
  9
$USERI3
 70
     0
  9
$USERI4
 70
     0
  9
$USERI5
 70
     0
  9
$USERR1
 40
0.0
  9
$USERR2
 40
0.0
  9
$USERR3
 40
0.0
  9
$USERR4
 40
0.0
  9
$USERR5
 40
0.0
  9
$WORLDVIEW
 70
     1
  9
$SHADEDGE
 70
     3
  9
$SHADEDIF
 70
    70
  9
$TILEMODE
 70
     1
  9
$MAXACTVP
 70
    64
  9
$PINSBASE
 10
0.0
 20
0.0
 30
0.0
  9
$PLIMCHECK
 70
     0
  9
$PEXTMIN
 10
1.000000000000000E+20
 20
1.000000000000000E+20
 30
1.000000000000000E+20
  9
$PEXTMAX
 10
-1.000000000000000E+20
 20
-1.000000000000000E+20
 30
-1.000000000000000E+20
  9
$PLIMMIN
 10
0.0
 20
0.0
  9
$PLIMMAX
 10
12.0
 20
9.0
  9
$UNITMODE
 70
     0
  9
$VISRETAIN
 70
     1
  9
$PLINEGEN
 70
     0
  9
$PSLTSCALE
 70
     1
  9
$TREEDEPTH
 70
  3020
  9
$PICKSTYLE
 70
     1
  9
$CMLSTYLE
  2
STANDARD
  9
$CMLJUST
 70
     0
  9
$CMLSCALE
 40
1.0
  9
$PROXYGRAPHICS
 70
     1
  9
$MEASUREMENT
 70
     0
  0
ENDSEC
  0
SECTION
  2
CLASSES
  0
CLASS
  1
ACDBDICTIONARYWDFLT
  2
AcDbDictionaryWithDefault
  3
ObjectDBX Classes
 90
        0
280
     0
281
     0
  0
CLASS
  1
VISUALSTYLE
  2
AcDbVisualStyle
  3
ObjectDBX Classes
 90
     4095
280
     0
281
     0
  0
CLASS
  1
XRECORD
  2
AcDbXrecord
  3
AutoCAD 2000
 90
        0
280
     0
281
     0
  0
CLASS
  1
LWPOLYLINE
  2
AcDbPolyline
  3
AutoCAD 2000
 90
        0
280
     0
281
     1
  0
CLASS
  1
HATCH
  2
AcDbHatch
  3
AutoCAD 2000
 90
        0
280
     0
281
     1
  0
CLASS
  1
ACDBPLACEHOLDER
  2
AcDbPlaceHolder
  3
ObjectDBX Classes
 90
        0
280
     0
281
     0
  0
CLASS
  1
LAYOUT
  2
AcDbLayout
  3
ObjectDBX Classes
 90
        0
280
     0
281
     0
  0
ENDSEC
  0
SECTION
  2
TABLES
  0
TABLE
  2
VPORT
  5
8
330
0
100
AcDbSymbolTable
 70
     1
  0
VPORT
  5
29
330
8
100
AcDbSymbolTableRecord
100
AcDbViewportTableRecord
  2
*ACTIVE
 70
     0
 10
0.0
 20
0.0
 11
1.0
 21
1.0
 12
0.0
 22
0.0
 13
0.0
 23
0.0
 14
0.5
 24
0.5
 15
0.5
 25
0.5
 16
0.0
 26
0.0
 36
1.0
 17
249.9995550590279
 27
-249.9995550590279
 37
0.0
 40
499.9991101180558
 41
1.0
 42
50.0
 43
0.0
 44
0.0
 50
0.0
 51
0.0
 71
     0
 72
   100
 73
     1
 74
     3
 75
     0
 76
     0
 77
     0
 78
     0
  0
ENDTAB
  0
TABLE
  2
LTYPE
  5
5
330
0
100
AcDbSymbolTable
 70
     1
  0
LTYPE
  5
14
330
5
100
AcDbSymbolTableRecord
100
AcDbLinetypeTableRecord
  2
BYBLOCK
 70
     0
  3

 72
    65
 73
     0
 40
0.0
  0
LTYPE
  5
15
330
5
100
AcDbSymbolTableRecord
100
AcDbLinetypeTableRecord
  2
BYLAYER
 70
     0
  3

 72
    65
 73
     0
 40
0.0
  0
LTYPE
  5
16
330
5
100
AcDbSymbolTableRecord
100
AcDbLinetypeTableRecord
  2
CONTINUOUS
 70
     0
  3
Solid line
 72
    65
 73
     0
 40
0.0
  0
ENDTAB
  0
TABLE
  2
LAYER
  5
2
330
0
100
AcDbSymbolTable
 70
     2
  0
LAYER
  5
10
330
2
100
AcDbSymbolTableRecord
100
AcDbLayerTableRecord
  2
0
 70
     0
 62
     7
  6
CONTINUOUS
  0
LAYER
  5
3B
330
2
100
AcDbSymbolTableRecord
100
AcDbLayerTableRecord
  2
LAYER_1
 70
     0
 62
     7
  6
CONTINUOUS
  0
ENDTAB
  0
TABLE
  2
STYLE
  5
3
330
0
100
AcDbSymbolTable
 70
     1
  0
STYLE
  5
11
330
3
100
AcDbSymbolTableRecord
100
AcDbTextStyleTableRecord
  2
STANDARD
 70
     0
 40
0.0
 41
1.0
 50
0.0
 71
     0
 42
0.2
  3
txt
  4

  0
ENDTAB
  0
TABLE
  2
VIEW
  5
6
330
0
100
AcDbSymbolTable
 70
     0
  0
ENDTAB
  0
TABLE
  2
UCS
  5
7
330
0
100
AcDbSymbolTable
 70
     0
  0
ENDTAB
  0
TABLE
  2
APPID
  5
9
330
0
100
AcDbSymbolTable
 70
     1
  0
APPID
  5
12
330
9
100
AcDbSymbolTableRecord
100
AcDbRegAppTableRecord
  2
ACAD
 70
     0
  0
ENDTAB
  0
TABLE
  2
DIMSTYLE
  5
A
330
0
100
AcDbSymbolTable
 70
     1
  0
DIMSTYLE
105
27
330
A
100
AcDbSymbolTableRecord
100
AcDbDimStyleTableRecord
  2
STANDARD
 70
     0
  3

  4

  5

  6

  7

 40
1.0
 41
0.18
 42
0.0625
 43
0.38
 44
0.18
 45
0.0
 46
0.0
 47
0.0
 48
0.0
140
0.18
141
0.09
142
0.0
143
25.4
144
1.0
145
0.0
146
1.0
147
0.09
 71
     0
 72
     0
 73
     1
 74
     1
 75
     0
 76
     0
 77
     0
 78
     0
170
     0
171
     2
172
     0
173
     0
174
     0
175
     0
176
     0
177
     0
178
     0
270
     2
271
     4
272
     4
273
     2
274
     2
340
11
275
     0
280
     0
281
     0
282
     0
283
     1
284
     0
285
     0
286
     0
287
     3
288
     0
  0
ENDTAB
  0
TABLE
  2
BLOCK_RECORD
  5
1
330
0
100
AcDbSymbolTable
 70
     2
  0
BLOCK_RECORD
  5
1F
330
1
100
AcDbSymbolTableRecord
100
AcDbBlockTableRecord
  2
*MODEL_SPACE
  0
BLOCK_RECORD
  5
1B
330
1
100
AcDbSymbolTableRecord
100
AcDbBlockTableRecord
  2
*PAPER_SPACE
  0
BLOCK_RECORD
  5
53
330
1
100
AcDbSymbolTableRecord
100
AcDbBlockTableRecord
  2
BLOCK_2
  0
ENDTAB
  0
ENDSEC
  0
SECTION
  2
BLOCKS
  0
BLOCK
  5
20
330
1F
100
AcDbEntity
  8
0
100
AcDbBlockBegin
  2
*MODEL_SPACE
 70
     0
 71
     0
 10
0.0
 20
0.0
 30
0.0
  3
*MODEL_SPACE
  1

  0
ENDBLK
  5
21
330
1F
100
AcDbEntity
  8
0
100
AcDbBlockEnd
  0
BLOCK
  5
1C
330
1B
100
AcDbEntity
 67
     1
  8
0
100
AcDbBlockBegin
  2
*PAPER_SPACE
 70
     0
 71
     0
 10
0.0
 20
0.0
 30
0.0
  3
*PAPER_SPACE
  1

  0
ENDBLK
  5
1D
330
1B
100
AcDbEntity
 67
     1
  8
0
100
AcDbBlockEnd
  0
BLOCK
  5
55
330
53
100
AcDbEntity
  8
0
100
AcDbBlockBegin
  2
BLOCK_2
 70
     0
 71
     0
 10
0.0
 20
0.0
 30
0.0
  3
BLOCK_2
  1

  0
SPLINE
  5
57
330
53
100
AcDbEntity
  8
LAYER_1
 62
    30
100
AcDbSpline
210
0.0
220
0.0
230
1.0
 70
    11
 71
     3
 72
    62
 73
    58
 74
     0
 42
0.0000000001
 43
0.0000000001
 40
0.0
 40
0.0
 40
0.0
 40
0.0
 40
1.0
 40
1.0
 40
1.0
 40
2.0
 40
2.0
 40
2.0
 40
3.0
 40
3.0
 40
3.0
 40
4.0
 40
4.0
 40
4.0
 40
5.0
 40
5.0
 40
5.0
 40
6.0
 40
6.0
 40
6.0
 40
7.0
 40
7.0
 40
7.0
 40
8.0
 40
8.0
 40
8.0
 40
9.0
 40
9.0
 40
9.0
 40
10.0
 40
10.0
 40
10.0
 40
11.0
 40
11.0
 40
11.0
 40
12.0
 40
12.0
 40
12.0
 40
13.0
 40
13.0
 40
13.0
 40
14.0
 40
14.0
 40
14.0
 40
15.0
 40
15.0
 40
15.0
 40
16.0
 40
16.0
 40
16.0
 40
17.0
 40
17.0
 40
17.0
 40
18.0
 40
18.0
 40
18.0
 40
19.0
 40
19.0
 40
19.0
 40
19.0
 10
251.0882052323668
 20
-288.2315022065879
 30
0.0
 10
251.0882052323668
 20
-288.2315022065879
 30
0.0
 10
248.0580714983153
 20
-288.2315022065879
 30
0.0
 10
248.0580714983153
 20
-288.2315022065879
 30
0.0
 10
248.0580714983153
 20
-288.2315022065879
 30
0.0
 10
248.0580714983153
 20
-286.8879149673405
 30
0.0
 10
248.0580714983153
 20
-286.8879149673405
 30
0.0
 10
248.0580714983153
 20
-286.6178194812969
 30
0.0
 10
248.0852877526488
 20
-286.4124917903761
 30
0.0
 10
248.1397202613158
 20
-286.2719318945778
 30
0.0
 10
248.1941527699827
 20
-286.1313719987797
 30
0.0
 10
248.2902709340212
 20
-286.0190618859605
 30
0.0
 10
248.4280747534312
 20
-285.9350015561204
 30
0.0
 10
248.5658785728412
 20
-285.8509412262803
 30
0.0
 10
248.7181517932892
 20
-285.8089110613603
 30
0.0
 10
248.8848944147753
 20
-285.8089110613603
 30
0.0
 10
249.0998683730549
 20
-285.8089110613603
 30
0.0
 10
249.281080395579
 20
-285.8785019901623
 30
0.0
 10
249.4285304823478
 20
-286.0176838477664
 30
0.0
 10
249.5759805691164
 20
-286.1568657053705
 30
0.0
 10
249.6696871663152
 20
-286.3718396636501
 30
0.0
 10
249.7096502739441
 20
-286.6626057226052
 30
0.0
 10
249.7606376871258
 20
-286.5564967816595
 30
0.0
 10
249.8109360812105
 20
-286.4758815473047
 30
0.0
 10
249.8605454561981
 20
-286.4207600195406
 30
0.0
 10
249.9680324353379
 20
-286.3036267730421
 30
0.0
 10
250.1023911592626
 20
-286.1926946984171
 30
0.0
 10
250.2636216279723
 20
-286.0879637956655
 30
0.0
 10
250.2636216279723
 20
-286.0879637956655
 30
0.0
 10
251.0882052323668
 20
-285.5608641864223
 30
0.0
 10
251.0882052323668
 20
-285.5608641864223
 30
0.0
 10
251.0882052323668
 20
-285.5608641864223
 30
0.0
 10
251.0882052323668
 20
-286.0652261654629
 30
0.0
 10
251.0882052323668
 20
-286.0652261654629
 30
0.0
 10
251.0882052323668
 20
-286.0652261654629
 30
0.0
 10
250.4579250133404
 20
-286.466235279946
 30
0.0
 10
250.4579250133404
 20
-286.466235279946
 30
0.0
 10
250.2760239717192
 20
-286.5833685264445
 30
0.0
 10
250.1368421141151
 20
-286.6798312000315
 30
0.0
 10
250.0403794405281
 20
-286.7556233007069
 30
0.0
 10
249.9439167669411
 20
-286.8314154013825
 30
0.0
 10
249.8763928954302
 20
-286.8992837824418
 30
0.0
 10
249.8378078259954
 20
-286.9592284438852
 30
0.0
 10
249.7992227565606
 20
-287.0191731053285
 30
0.0
 10
249.7723510117757
 20
-287.0801512954175
 30
0.0
 10
249.7571925916406
 20
-287.1421630141519
 30
0.0
 10
249.7475463242819
 20
-287.1876382745573
 30
0.0
 10
249.7427231906025
 20
-287.2620523370387
 30
0.0
 10
249.7427231906025
 20
-287.3654052015962
 30
0.0
 10
249.7427231906025
 20
-287.3654052015962
 30
0.0
 10
249.7427231906025
 20
-287.8304930921049
 30
0.0
 10
249.7427231906025
 20
-287.8304930921049
 30
0.0
 10
249.7427231906025
 20
-287.8304930921049
 30
0.0
 10
251.0882052323668
 20
-287.8304930921049
 30
0.0
 10
251.0882052323668
 20
-287.8304930921049
 30
0.0
 10
251.0882052323668
 20
-287.8304930921049
 30
0.0
 10
251.0882052323668
 20
-288.2315022065879
 30
0.0
 10
251.0882052323668
 20
-288.2315022065879
 30
0.0
  0
SPLINE
  5
58
330
53
100
AcDbEntity
  8
LAYER_1
 62
    30
100
AcDbSpline
210
0.0
220
0.0
230
1.0
 70
    11
 71
     3
 72
    29
 73
    25
 74
     0
 42
0.0000000001
 43
0.0000000001
 40
0.0
 40
0.0
 40
0.0
 40
0.0
 40
1.0
 40
1.0
 40
1.0
 40
2.0
 40
2.0
 40
2.0
 40
3.0
 40
3.0
 40
3.0
 40
4.0
 40
4.0
 40
4.0
 40
5.0
 40
5.0
 40
5.0
 40
6.0
 40
6.0
 40
6.0
 40
7.0
 40
7.0
 40
7.0
 40
8.0
 40
8.0
 40
8.0
 40
8.0
 10
249.3954575656894
 20
-287.8304930921049
 30
0.0
 10
249.3954575656894
 20
-287.8304930921049
 30
0.0
 10
249.3954575656894
 20
-286.9685302016954
 30
0.0
 10
249.3954575656894
 20
-286.9685302016954
 30
0.0
 10
249.3954575656894
 20
-286.7852511218801
 30
0.0
 10
249.3765095405205
 20
-286.6419351496937
 30
0.0
 10
249.3386134901827
 20
-286.5385822851362
 30
0.0
 10
249.300717439845
 20
-286.4352294205787
 30
0.0
 10
249.2400837593046
 20
-286.356681243515
 30
0.0
 10
249.1567124485615
 20
-286.3029377539451
 30
0.0
 10
249.0733411378185
 20
-286.2491942643752
 30
0.0
 10
248.9827351265564
 20
-286.2223225195903
 30
0.0
 10
248.8848944147753
 20
-286.2223225195903
 30
0.0
 10
248.7415784425889
 20
-286.2223225195903
 30
0.0
 10
248.6237561769934
 20
-286.2743434614175
 30
0.0
 10
248.5314276179887
 20
-286.3783853450721
 30
0.0
 10
248.439099058984
 20
-286.4824272287266
 30
0.0
 10
248.3929347794816
 20
-286.6467582833731
 30
0.0
 10
248.3929347794816
 20
-286.8713785090113
 30
0.0
 10
248.3929347794816
 20
-286.8713785090113
 30
0.0
 10
248.3929347794816
 20
-287.8304930921049
 30
0.0
 10
248.3929347794816
 20
-287.8304930921049
 30
0.0
 10
248.3929347794816
 20
-287.8304930921049
 30
0.0
 10
249.3954575656894
 20
-287.8304930921049
 30
0.0
 10
249.3954575656894
 20
-287.8304930921049
 30
0.0
  0
SPLINE
  5
59
330
53
100
AcDbEntity
  8
LAYER_1
 62
    30
100
AcDbSpline
210
0.0
220
0.0
230
1.0
 70
    11
 71
     3
 72
    86
 73
    82
 74
     0
 42
0.0000000001
 43
0.0000000001
 40
0.0
 40
0.0
 40
0.0
 40
0.0
 40
1.0
 40
1.0
 40
1.0
 40
2.0
 40
2.0
 40
2.0
 40
3.0
 40
3.0
 40
3.0
 40
4.0
 40
4.0
 40
4.0
 40
5.0
 40
5.0
 40
5.0
 40
6.0
 40
6.0
 40
6.0
 40
7.0
 40
7.0
 40
7.0
 40
8.0
 40
8.0
 40
8.0
 40
9.0
 40
9.0
 40
9.0
 40
10.0
 40
10.0
 40
10.0
 40
11.0
 40
11.0
 40
11.0
 40
12.0
 40
12.0
 40
12.0
 40
13.0
 40
13.0
 40
13.0
 40
14.0
 40
14.0
 40
14.0
 40
15.0
 40
15.0
 40
15.0
 40
16.0
 40
16.0
 40
16.0
 40
17.0
 40
17.0
 40
17.0
 40
18.0
 40
18.0
 40
18.0
 40
19.0
 40
19.0
 40
19.0
 40
20.0
 40
20.0
 40
20.0
 40
21.0
 40
21.0
 40
21.0
 40
22.0
 40
22.0
 40
22.0
 40
23.0
 40
23.0
 40
23.0
 40
24.0
 40
24.0
 40
24.0
 40
25.0
 40
25.0
 40
25.0
 40
26.0
 40
26.0
 40
26.0
 40
27.0
 40
27.0
 40
27.0
 40
27.0
 10
250.8174207272262
 20
-283.5837238874374
 30
0.0
 10
250.9345539737247
 20
-283.7215277068474
 30
0.0
 10
251.0172362653707
 20
-283.8545083925781
 30
0.0
 10
251.0654676021642
 20
-283.9819769255323
 30
0.0
 10
251.1136989389577
 20
-284.1094454584866
 30
0.0
 10
251.1378146073544
 20
-284.2458712397024
 30
0.0
 10
251.1378146073544
 20
-284.391943288277
 30
0.0
 10
251.1378146073544
 20
-284.6330999722445
 30
0.0
 10
251.0792479841052
 20
-284.8184461093509
 30
0.0
 10
250.9614257185096
 20
-284.9479816995964
 30
0.0
 10
250.8436034529141
 20
-285.0775172898418
 30
0.0
 10
250.6927082706602
 20
-285.1422850849644
 30
0.0
 10
250.5094291908449
 20
-285.1422850849644
 30
0.0
 10
250.4021144664793
 20
-285.1422850849644
 30
0.0
 10
250.3039292451497
 20
-285.1181694165677
 30
0.0
 10
250.2150457816303
 20
-285.0692490606771
 30
0.0
 10
250.1261623181108
 20
-285.0203287047866
 30
0.0
 10
250.0548488415662
 20
-284.9562499287609
 30
0.0
 10
250.0011053519963
 20
-284.8770127326002
 30
0.0
 10
249.9473618624264
 20
-284.7977755364395
 30
0.0
 10
249.9067097357004
 20
-284.708203053823
 30
0.0
 10
249.8791489718184
 20
-284.6089843038478
 30
0.0
 10
249.859856437101
 20
-284.5359482795604
 30
0.0
 10
249.8412529214807
 20
-284.4257052240325
 30
0.0
 10
249.8233384249574
 20
-284.2782551372638
 30
0.0
 10
249.7875094319108
 20
-283.97784281095
 30
0.0
 10
249.7447902478937
 20
-283.756667680797
 30
0.0
 10
249.6951808729061
 20
-283.6147297468046
 30
0.0
 10
249.6441934597244
 20
-283.6133517086105
 30
0.0
 10
249.611809562163
 20
-283.6126626895135
 30
0.0
 10
249.598029180222
 20
-283.6126626895135
 30
0.0
 10
249.446444978871
 20
-283.6126626895135
 30
0.0
 10
249.3396470188283
 20
-283.647802663463
 30
0.0
 10
249.2776353000938
 20
-283.7180826113621
 30
0.0
 10
249.1935749702537
 20
-283.813167246755
 30
0.0
 10
249.1515448053337
 20
-283.9544161616503
 30
0.0
 10
249.1515448053337
 20
-284.1418293560479
 30
0.0
 10
249.1515448053337
 20
-284.3168402066986
 30
0.0
 10
249.1822061551524
 20
-284.446375796944
 30
0.0
 10
249.2435288547898
 20
-284.529747107687
 30
0.0
 10
249.3048515544273
 20
-284.6131184184301
 30
0.0
 10
249.4133720622126
 20
-284.6744411180675
 30
0.0
 10
249.5690903781459
 20
-284.7144042256964
 30
0.0
 10
249.5690903781459
 20
-284.7144042256964
 30
0.0
 10
249.5194810031583
 20
-285.0782063089388
 30
0.0
 10
249.5194810031583
 20
-285.0782063089388
 30
0.0
 10
249.363762687225
 20
-285.0451333922804
 30
0.0
 10
249.2380167020134
 20
-284.9907008836134
 30
0.0
 10
249.1422430475235
 20
-284.914908782938
 30
0.0
 10
249.0464693930335
 20
-284.8391166822624
 30
0.0
 10
248.9727443496492
 20
-284.7295626458315
 30
0.0
 10
248.9210679173704
 20
-284.5862466736451
 30
0.0
 10
248.8693914850917
 20
-284.4429307014587
 30
0.0
 10
248.8435532689523
 20
-284.2768770990697
 30
0.0
 10
248.8435532689523
 20
-284.088085866478
 30
0.0
 10
248.8435532689523
 20
-283.9006726720804
 30
0.0
 10
248.8656018800579
 20
-283.7483994516323
 30
0.0
 10
248.9096991022691
 20
-283.6312662051338
 30
0.0
 10
248.9537963244803
 20
-283.5141329586353
 30
0.0
 10
249.0092623617928
 20
-283.4280055715041
 30
0.0
 10
249.0760972142067
 20
-283.3728840437401
 30
0.0
 10
249.1429320666205
 20
-283.3177625159761
 30
0.0
 10
249.2273369060092
 20
-283.2791774465413
 30
0.0
 10
249.3293117323725
 20
-283.2571288354357
 30
0.0
 10
249.3927014893011
 20
-283.2447264916888
 30
0.0
 10
249.5070786594114
 20
-283.2385253198154
 30
0.0
 10
249.6724432427034
 20
-283.2385253198154
 30
0.0
 10
249.6724432427034
 20
-283.2385253198154
 30
0.0
 10
250.1685369925794
 20
-283.2385253198154
 30
0.0
 10
250.1685369925794
 20
-283.2385253198154
 30
0.0
 10
250.5142523245242
 20
-283.2385253198154
 30
0.0
 10
250.7333603973861
 20
-283.2309461097478
 30
0.0
 10
250.8249999372938
 20
-283.2150986705157
 30
0.0
 10
250.9166394772014
 20
-283.1992512312835
 30
0.0
 10
251.0041449025267
 20
-283.1675563528192
 30
0.0
 10
251.0882052323668
 20
-283.1207030542199
 30
0.0
 10
251.0882052323668
 20
-283.1207030542199
 30
0.0
 10
251.0882052323668
 20
-283.509309824956
 30
0.0
 10
251.0882052323668
 20
-283.509309824956
 30
0.0
 10
251.0110350934972
 20
-283.5478948943908
 30
0.0
 10
250.9207735917837
 20
-283.5726995818846
 30
0.0
 10
250.8174207272262
 20
-283.5837238874374
 30
0.0
  0
SPLINE
  5
5A
330
53
100
AcDbEntity
  8
LAYER_1
 62
    30
100
AcDbSpline
210
0.0
220
0.0
230
1.0
 70
    11
 71
     3
 72
    35
 73
    31
 74
     0
 42
0.0000000001
 43
0.0000000001
 40
0.0
 40
0.0
 40
0.0
 40
0.0
 40
1.0
 40
1.0
 40
1.0
 40
2.0
 40
2.0
 40
2.0
 40
3.0
 40
3.0
 40
3.0
 40
4.0
 40
4.0
 40
4.0
 40
5.0
 40
5.0
 40
5.0
 40
6.0
 40
6.0
 40
6.0
 40
7.0
 40
7.0
 40
7.0
 40
8.0
 40
8.0
 40
8.0
 40
9.0
 40
9.0
 40
9.0
 40
10.0
 40
10.0
 40
10.0
 40
10.0
 10
249.9866359509582
 20
-283.6147297468046
 30
0.0
 10
250.0417574787222
 20
-283.7497774898264
 30
0.0
 10
250.0886107773216
 20
-283.9523491043591
 30
0.0
 10
250.1271958467564
 20
-284.2224445904027
 30
0.0
 10
250.149244457862
 20
-284.3754068299478
 30
0.0
 10
250.1740491453558
 20
-284.4835828281847
 30
0.0
 10
250.2016099092378
 20
-284.5469725851133
 30
0.0
 10
250.2291706731198
 20
-284.6103623420419
 30
0.0
 10
250.2694782902972
 20
-284.6592826979324
 30
0.0
 10
250.3225327607701
 20
-284.6937336527849
 30
0.0
 10
250.3755872312429
 20
-284.7281846076374
 30
0.0
 10
250.4344983640407
 20
-284.7454100850637
 30
0.0
 10
250.4990939043891
 20
-284.7454100850637
 30
0.0
 10
250.5983126543643
 20
-284.7454100850637
 30
0.0
 10
250.6809949460103
 20
-284.708203053823
 30
0.0
 10
250.7471407793271
 20
-284.6330999722445
 30
0.0
 10
250.8132866126439
 20
-284.5579968906661
 30
0.0
 10
250.8463595293023
 20
-284.4477538351381
 30
0.0
 10
250.8463595293023
 20
-284.3030598247576
 30
0.0
 10
250.8463595293023
 20
-284.1597438525712
 30
0.0
 10
250.8153536699351
 20
-284.0322753196169
 30
0.0
 10
250.7526529321035
 20
-283.9206542258949
 30
0.0
 10
250.689952194272
 20
-283.8090331321728
 30
0.0
 10
250.6038248071407
 20
-283.7270398596238
 30
0.0
 10
250.4949597898068
 20
-283.674674408248
 30
0.0
 10
250.411071714741
 20
-283.6347113006191
 30
0.0
 10
250.287048277272
 20
-283.6147297468046
 30
0.0
 10
250.1230617321741
 20
-283.6147297468046
 30
0.0
 10
250.1230617321741
 20
-283.6147297468046
 30
0.0
 10
249.9866359509582
 20
-283.6147297468046
 30
0.0
 10
249.9866359509582
 20
-283.6147297468046
 30
0.0
  0
SPLINE
  5
5B
330
53
100
AcDbEntity
  8
LAYER_1
 62
    30
100
AcDbSpline
210
0.0
220
0.0
230
1.0
 70
    11
 71
     3
 72
   104
 73
   100
 74
     0
 42
0.0000000001
 43
0.0000000001
 40
0.0
 40
0.0
 40
0.0
 40
0.0
 40
1.0
 40
1.0
 40
1.0
 40
2.0
 40
2.0
 40
2.0
 40
3.0
 40
3.0
 40
3.0
 40
4.0
 40
4.0
 40
4.0
 40
5.0
 40
5.0
 40
5.0
 40
6.0
 40
6.0
 40
6.0
 40
7.0
 40
7.0
 40
7.0
 40
8.0
 40
8.0
 40
8.0
 40
9.0
 40
9.0
 40
9.0
 40
10.0
 40
10.0
 40
10.0
 40
11.0
 40
11.0
 40
11.0
 40
12.0
 40
12.0
 40
12.0
 40
13.0
 40
13.0
 40
13.0
 40
14.0
 40
14.0
 40
14.0
 40
15.0
 40
15.0
 40
15.0
 40
16.0
 40
16.0
 40
16.0
 40
17.0
 40
17.0
 40
17.0
 40
18.0
 40
18.0
 40
18.0
 40
19.0
 40
19.0
 40
19.0
 40
20.0
 40
20.0
 40
20.0
 40
21.0
 40
21.0
 40
21.0
 40
22.0
 40
22.0
 40
22.0
 40
23.0
 40
23.0
 40
23.0
 40
24.0
 40
24.0
 40
24.0
 40
25.0
 40
25.0
 40
25.0
 40
26.0
 40
26.0
 40
26.0
 40
27.0
 40
27.0
 40
27.0
 40
28.0
 40
28.0
 40
28.0
 40
29.0
 40
29.0
 40
29.0
 40
30.0
 40
30.0
 40
30.0
 40
31.0
 40
31.0
 40
31.0
 40
32.0
 40
32.0
 40
32.0
 40
33.0
 40
33.0
 40
33.0
 40
33.0
 10
250.4331203258466
 20
-282.599115597753
 30
0.0
 10
250.4331203258466
 20
-282.599115597753
 30
0.0
 10
250.3752427216944
 20
-282.2311793999284
 30
0.0
 10
250.3752427216944
 20
-282.2311793999284
 30
0.0
 10
250.5225205536888
 20
-282.2105088270168
 30
0.0
 10
250.635519685605
 20
-282.1529757324132
 30
0.0
 10
250.7140678626687
 20
-282.0585801161173
 30
0.0
 10
250.7926160397324
 20
-281.9641844998214
 30
0.0
 10
250.8318901282643
 20
-281.8322373427364
 30
0.0
 10
250.8318901282643
 20
-281.6627386448621
 30
0.0
 10
250.8318901282643
 20
-281.4918619087937
 30
0.0
 10
250.7974391734118
 20
-281.3650823949365
 30
0.0
 10
250.7278482446097
 20
-281.2824001032905
 30
0.0
 10
250.6582573158077
 20
-281.1997178116445
 30
0.0
 10
250.5762640432587
 20
-281.1583766658215
 30
0.0
 10
250.4825574460599
 20
-281.1583766658215
 30
0.0
 10
250.3986693709941
 20
-281.1583766658215
 30
0.0
 10
250.3325235376773
 20
-281.1948946779652
 30
0.0
 10
250.2842922008838
 20
-281.2679307022525
 30
0.0
 10
250.2512192842254
 20
-281.3189181154341
 30
0.0
 10
250.2091891193054
 20
-281.4456976292914
 30
0.0
 10
250.1582017061237
 20
-281.6482692438241
 30
0.0
 10
250.0892997964187
 20
-281.9211208062558
 30
0.0
 10
250.0296996445238
 20
-282.1102565483961
 30
0.0
 10
249.9794012504392
 20
-282.2156764702447
 30
0.0
 10
249.9291028563545
 20
-282.3210963920934
 30
0.0
 10
249.8595119275525
 20
-282.4010226073511
 30
0.0
 10
249.7706284640331
 20
-282.4554551160181
 30
0.0
 10
249.6817450005136
 20
-282.5098876246851
 30
0.0
 10
249.583559779184
 20
-282.5371038790185
 30
0.0
 10
249.4760728000442
 20
-282.5371038790185
 30
0.0
 10
249.3782320882631
 20
-282.5371038790185
 30
0.0
 10
249.287626077001
 20
-282.5147107583644
 30
0.0
 10
249.204254766258
 20
-282.4699245170561
 30
0.0
 10
249.1208834555149
 20
-282.4251382757479
 30
0.0
 10
249.0516370362614
 20
-282.364160085659
 30
0.0
 10
248.9965155084974
 20
-282.2869899467894
 30
0.0
 10
248.9537963244803
 20
-282.2291123426372
 30
0.0
 10
248.9176228218852
 20
-282.1502196560249
 30
0.0
 10
248.887995000712
 20
-282.0503118869527
 30
0.0
 10
248.8583671795389
 20
-281.9504041178805
 30
0.0
 10
248.8435532689523
 20
-281.8432616482892
 30
0.0
 10
248.8435532689523
 20
-281.7288844781789
 30
0.0
 10
248.8435532689523
 20
-281.5566297039164
 30
0.0
 10
248.8683579564461
 20
-281.405390012114
 30
0.0
 10
248.9179673314337
 20
-281.2751654027715
 30
0.0
 10
248.9675767064213
 20
-281.144940793429
 30
0.0
 10
249.0347560683837
 20
-281.0488226293906
 30
0.0
 10
249.1195054173208
 20
-280.9868109106561
 30
0.0
 10
249.204254766258
 20
-280.9247991919216
 30
0.0
 10
249.3175984077227
 20
-280.8820800079045
 30
0.0
 10
249.459536341715
 20
-280.8586533586048
 30
0.0
 10
249.459536341715
 20
-280.8586533586048
 30
0.0
 10
249.5091457167026
 20
-281.2224554418472
 30
0.0
 10
249.5091457167026
 20
-281.2224554418472
 30
0.0
 10
249.3961465847864
 20
-281.2389919001764
 30
0.0
 10
249.307952140364
 20
-281.2868787274214
 30
0.0
 10
249.2445623834354
 20
-281.3661159235821
 30
0.0
 10
249.1811726265068
 20
-281.4453531197428
 30
0.0
 10
249.1494777480425
 20
-281.5573187230135
 30
0.0
 10
249.1494777480425
 20
-281.7020127333939
 30
0.0
 10
249.1494777480425
 20
-281.8728894694623
 30
0.0
 10
249.1777275310216
 20
-281.9948458496402
 30
0.0
 10
249.2342270969797
 20
-282.0678818739275
 30
0.0
 10
249.2907266629377
 20
-282.1409178982148
 30
0.0
 10
249.3568724962545
 20
-282.1774359103584
 30
0.0
 10
249.43266459693
 20
-282.1774359103584
 30
0.0
 10
249.4808959337235
 20
-282.1774359103584
 30
0.0
 10
249.5243041368377
 20
-282.1622774902233
 30
0.0
 10
249.5628892062725
 20
-282.1319606499532
 30
0.0
 10
249.6028523139014
 20
-282.1016438096829
 30
0.0
 10
249.6359252305598
 20
-282.0541014919865
 30
0.0
 10
249.6621079562477
 20
-281.9893336968638
 30
0.0
 10
249.6758883381887
 20
-281.9521266656231
 30
0.0
 10
249.707583216653
 20
-281.8425726291921
 30
0.0
 10
249.7571925916406
 20
-281.660671587571
 30
0.0
 10
249.8274725395397
 20
-281.3974662924979
 30
0.0
 10
249.8850056341433
 20
-281.213842703134
 30
0.0
 10
249.9297918754516
 20
-281.1098008194795
 30
0.0
 10
249.9745781167598
 20
-281.005758935825
 30
0.0
 10
250.0396904214311
 20
-280.9241101728246
 30
0.0
 10
250.1251287894653
 20
-280.8648545304782
 30
0.0
 10
250.2105671574994
 20
-280.805598888132
 30
0.0
 10
250.3166760984452
 20
-280.7759710669588
 30
0.0
 10
250.4434556123023
 20
-280.7759710669588
 30
0.0
 10
250.5673067949971
 20
-280.7759710669588
 30
0.0
 10
250.6844400414956
 20
-280.8121445695539
 30
0.0
 10
250.7939940779265
 20
-280.8844915747442
 30
0.0
 10
250.9035481143574
 20
-280.9568385799344
 30
0.0
 10
250.9882974632946
 20
-281.0612249731375
 30
0.0
 10
251.048242124738
 20
-281.1976507543534
 30
0.0
 10
251.1081867861813
 20
-281.3340765355693
 30
0.0
 10
251.1378146073544
 20
-281.4884168133084
 30
0.0
 10
251.1378146073544
 20
-281.660671587571
 30
0.0
 10
251.1378146073544
 20
-281.9459254937497
 30
0.0
 10
251.0785589650081
 20
-282.1633110188689
 30
0.0
 10
250.9600476803156
 20
-282.3128281629287
 30
0.0
 10
250.841536395623
 20
-282.4623453069886
 30
0.0
 10
250.6658365258752
 20
-282.55777445193
 30
0.0
 10
250.4331203258466
 20
-282.599115597753
 30
0.0
  0
SPLINE
  5
5C
330
53
100
AcDbEntity
  8
LAYER_1
 62
    30
100
AcDbSpline
210
0.0
220
0.0
230
1.0
 70
    11
 71
     3
 72
    50
 73
    46
 74
     0
 42
0.0000000001
 43
0.0000000001
 40
0.0
 40
0.0
 40
0.0
 40
0.0
 40
1.0
 40
1.0
 40
1.0
 40
2.0
 40
2.0
 40
2.0
 40
3.0
 40
3.0
 40
3.0
 40
4.0
 40
4.0
 40
4.0
 40
5.0
 40
5.0
 40
5.0
 40
6.0
 40
6.0
 40
6.0
 40
7.0
 40
7.0
 40
7.0
 40
8.0
 40
8.0
 40
8.0
 40
9.0
 40
9.0
 40
9.0
 40
10.0
 40
10.0
 40
10.0
 40
11.0
 40
11.0
 40
11.0
 40
12.0
 40
12.0
 40
12.0
 40
13.0
 40
13.0
 40
13.0
 40
14.0
 40
14.0
 40
14.0
 40
15.0
 40
15.0
 40
15.0
 40
15.0
 10
251.9294975498649
 20
-280.1220919438584
 30
0.0
 10
251.9294975498649
 20
-280.1220919438584
 30
0.0
 10
248.8931626439399
 20
-280.1220919438584
 30
0.0
 10
248.8931626439399
 20
-280.1220919438584
 30
0.0
 10
248.8931626439399
 20
-280.1220919438584
 30
0.0
 10
248.8931626439399
 20
-279.7830945481098
 30
0.0
 10
248.8931626439399
 20
-279.7830945481098
 30
0.0
 10
248.8931626439399
 20
-279.7830945481098
 30
0.0
 10
249.1784165501186
 20
-279.7830945481098
 30
0.0
 10
249.1784165501186
 20
-279.7830945481098
 30
0.0
 10
249.0667954563965
 20
-279.703168332852
 30
0.0
 10
248.9830796361049
 20
-279.6129068311384
 30
0.0
 10
248.9272690892439
 20
-279.5123100429691
 30
0.0
 10
248.8714585423828
 20
-279.4117132547998
 30
0.0
 10
248.8435532689523
 20
-279.289756874622
 30
0.0
 10
248.8435532689523
 20
-279.1464409024356
 30
0.0
 10
248.8435532689523
 20
-278.959027708038
 30
0.0
 10
248.8917846057458
 20
-278.793663124746
 30
0.0
 10
248.9882472793328
 20
-278.6503471525597
 30
0.0
 10
249.0847099529198
 20
-278.5070311803732
 30
0.0
 10
249.2207912245872
 20
-278.3988551821364
 30
0.0
 10
249.3964910943349
 20
-278.3258191578491
 30
0.0
 10
249.5721909640827
 20
-278.2527831335618
 30
0.0
 10
249.7647718017081
 20
-278.2162651214182
 30
0.0
 10
249.9742336072113
 20
-278.2162651214182
 30
0.0
 10
250.1988538328496
 20
-278.2162651214182
 30
0.0
 10
250.4010809378338
 20
-278.2565727385956
 30
0.0
 10
250.5810871769381
 20
-278.3371879729505
 30
0.0
 10
250.7609211612681
 20
-278.4178032073053
 30
0.0
 10
250.8987249806781
 20
-278.5349364538038
 30
0.0
 10
250.994498635168
 20
-278.6885877124459
 30
0.0
 10
251.090272289658
 20
-278.8422389710881
 30
0.0
 10
251.1378146073544
 20
-279.0038139493463
 30
0.0
 10
251.1378146073544
 20
-279.1733126472206
 30
0.0
 10
251.1378146073544
 20
-279.2973360846896
 30
0.0
 10
251.1116318816665
 20
-279.4086126688632
 30
0.0
 10
251.0592664302908
 20
-279.5071423997413
 30
0.0
 10
251.006900978915
 20
-279.6056721306194
 30
0.0
 10
250.9407551455982
 20
-279.6866318745228
 30
0.0
 10
250.8608289303403
 20
-279.7500216314514
 30
0.0
 10
250.8608289303403
 20
-279.7500216314514
 30
0.0
 10
251.9294975498649
 20
-279.7500216314514
 30
0.0
 10
251.9294975498649
 20
-279.7500216314514
 30
0.0
 10
251.9294975498649
 20
-279.7500216314514
 30
0.0
 10
251.9294975498649
 20
-280.1220919438584
 30
0.0
 10
251.9294975498649
 20
-280.1220919438584
 30
0.0
  0
SPLINE
  5
5D
330
53
100
AcDbEntity
  8
LAYER_1
 62
    30
100
AcDbSpline
210
0.0
220
0.0
230
1.0
 70
    11
 71
     3
 72
    29
 73
    25
 74
     0
 42
0.0000000001
 43
0.0000000001
 40
0.0
 40
0.0
 40
0.0
 40
0.0
 40
1.0
 40
1.0
 40
1.0
 40
2.0
 40
2.0
 40
2.0
 40
3.0
 40
3.0
 40
3.0
 40
4.0
 40
4.0
 40
4.0
 40
5.0
 40
5.0
 40
5.0
 40
6.0
 40
6.0
 40
6.0
 40
7.0
 40
7.0
 40
7.0
 40
8.0
 40
8.0
 40
8.0
 40
8.0
 10
250.0031724092874
 20
-279.785161605401
 30
0.0
 10
250.2856702390779
 20
-279.785161605401
 30
0.0
 10
250.4942707707098
 20
-279.7279730203458
 30
0.0
 10
250.6293185137316
 20
-279.6135958502355
 30
0.0
 10
250.7643662567534
 20
-279.4992186801252
 30
0.0
 10
250.8318901282643
 20
-279.3607258416181
 30
0.0
 10
250.8318901282643
 20
-279.1981173347144
 30
0.0
 10
250.8318901282643
 20
-279.0327527514224
 30
0.0
 10
250.7622991994622
 20
-278.8911593269786
 30
0.0
 10
250.6224283227611
 20
-278.7733370613831
 30
0.0
 10
250.4825574460599
 20
-278.6555147957875
 30
0.0
 10
250.2656886852635
 20
-278.5966036629898
 30
0.0
 10
249.9721665499202
 20
-278.5966036629898
 30
0.0
 10
249.6924247965179
 20
-278.5966036629898
 30
0.0
 10
249.4829629910147
 20
-278.6541367575934
 30
0.0
 10
249.3437811334106
 20
-278.7692029468008
 30
0.0
 10
249.2045992758065
 20
-278.8842691360081
 30
0.0
 10
249.1350083470045
 20
-279.0217284458696
 30
0.0
 10
249.1350083470045
 20
-279.1815808763852
 30
0.0
 10
249.1350083470045
 20
-279.3400552687067
 30
0.0
 10
249.2090778999373
 20
-279.4802706549563
 30
0.0
 10
249.3572170058031
 20
-279.6022270351342
 30
0.0
 10
249.5053561116688
 20
-279.724183415312
 30
0.0
 10
249.7206745794969
 20
-279.785161605401
 30
0.0
 10
250.0031724092874
 20
-279.785161605401
 30
0.0
  0
SPLINE
  5
5E
330
53
100
AcDbEntity
  8
LAYER_1
 62
    30
100
AcDbSpline
210
0.0
220
0.0
230
1.0
 70
    11
 71
     3
 72
    44
 73
    40
 74
     0
 42
0.0000000001
 43
0.0000000001
 40
0.0
 40
0.0
 40
0.0
 40
0.0
 40
1.0
 40
1.0
 40
1.0
 40
2.0
 40
2.0
 40
2.0
 40
3.0
 40
3.0
 40
3.0
 40
4.0
 40
4.0
 40
4.0
 40
5.0
 40
5.0
 40
5.0
 40
6.0
 40
6.0
 40
6.0
 40
7.0
 40
7.0
 40
7.0
 40
8.0
 40
8.0
 40
8.0
 40
9.0
 40
9.0
 40
9.0
 40
10.0
 40
10.0
 40
10.0
 40
11.0
 40
11.0
 40
11.0
 40
12.0
 40
12.0
 40
12.0
 40
13.0
 40
13.0
 40
13.0
 40
13.0
 10
251.0882052323668
 20
-277.2130533161134
 30
0.0
 10
251.0882052323668
 20
-277.2130533161134
 30
0.0
 10
251.0882052323668
 20
-277.5582518837355
 30
0.0
 10
251.0882052323668
 20
-277.5582518837355
 30
0.0
 10
251.0882052323668
 20
-277.5582518837355
 30
0.0
 10
248.0580714983153
 20
-277.5582518837355
 30
0.0
 10
248.0580714983153
 20
-277.5582518837355
 30
0.0
 10
248.0580714983153
 20
-277.5582518837355
 30
0.0
 10
248.0580714983153
 20
-277.1861815713285
 30
0.0
 10
248.0580714983153
 20
-277.1861815713285
 30
0.0
 10
248.0580714983153
 20
-277.1861815713285
 30
0.0
 10
249.1391424615867
 20
-277.1861815713285
 30
0.0
 10
249.1391424615867
 20
-277.1861815713285
 30
0.0
 10
248.9420829998305
 20
-277.0290852172011
 30
0.0
 10
248.8435532689523
 20
-276.8285806599595
 30
0.0
 10
248.8435532689523
 20
-276.5846678996039
 30
0.0
 10
248.8435532689523
 20
-276.4496201565821
 30
0.0
 10
248.8707695232858
 20
-276.3214626045308
 30
0.0
 10
248.9252020319528
 20
-276.200884262547
 30
0.0
 10
248.9796345406197
 20
-276.0803059205633
 30
0.0
 10
249.0561156603922
 20
-275.9810871705881
 30
0.0
 10
249.1546453912704
 20
-275.9032280126214
 30
0.0
 10
249.2531751221485
 20
-275.8253688546548
 30
0.0
 10
249.3720309163896
 20
-275.7647351741144
 30
0.0
 10
249.5112127739937
 20
-275.7206379519032
 30
0.0
 10
249.6503946315978
 20
-275.676540729692
 30
0.0
 10
249.7992227565606
 20
-275.6544921185864
 30
0.0
 10
249.9576971488821
 20
-275.6544921185864
 30
0.0
 10
250.3339015758714
 20
-275.6544921185864
 30
0.0
 10
250.6244953800522
 20
-275.7475096966882
 30
0.0
 10
250.8298230709731
 20
-275.9335448528916
 30
0.0
 10
251.035150761894
 20
-276.1195800090951
 30
0.0
 10
251.1378146073544
 20
-276.3428221965393
 30
0.0
 10
251.1378146073544
 20
-276.6032714152242
 30
0.0
 10
251.1378146073544
 20
-276.862342595715
 30
0.0
 10
251.0296386091176
 20
-277.0656032293447
 30
0.0
 10
250.8132866126439
 20
-277.2130533161134
 30
0.0
 10
250.8132866126439
 20
-277.2130533161134
 30
0.0
 10
251.0882052323668
 20
-277.2130533161134
 30
0.0
 10
251.0882052323668
 20
-277.2130533161134
 30
0.0
  0
SPLINE
  5
5F
330
53
100
AcDbEntity
  8
LAYER_1
 62
    30
100
AcDbSpline
210
0.0
220
0.0
230
1.0
 70
    11
 71
     3
 72
    29
 73
    25
 74
     0
 42
0.0000000001
 43
0.0000000001
 40
0.0
 40
0.0
 40
0.0
 40
0.0
 40
1.0
 40
1.0
 40
1.0
 40
2.0
 40
2.0
 40
2.0
 40
3.0
 40
3.0
 40
3.0
 40
4.0
 40
4.0
 40
4.0
 40
5.0
 40
5.0
 40
5.0
 40
6.0
 40
6.0
 40
6.0
 40
7.0
 40
7.0
 40
7.0
 40
8.0
 40
8.0
 40
8.0
 40
8.0
 10
249.9742336072113
 20
-277.2171874306957
 30
0.0
 10
250.2374389022844
 20
-277.2171874306957
 30
0.0
 10
250.4276081730702
 20
-277.1813584376491
 30
0.0
 10
250.5445691647944
 20
-277.1097004515559
 30
0.0
 10
250.7361164737743
 20
-276.9925672050574
 30
0.0
 10
250.8318901282643
 20
-276.8340928127359
 30
0.0
 10
250.8318901282643
 20
-276.6342772745915
 30
0.0
 10
250.8318901282643
 20
-276.4716687676877
 30
0.0
 10
250.7616101803652
 20
-276.3311088718895
 30
0.0
 10
250.6203612654699
 20
-276.2125975871969
 30
0.0
 10
250.4791123505747
 20
-276.0940863025043
 30
0.0
 10
250.2684447616516
 20
-276.034830660158
 30
0.0
 10
249.9887030082494
 20
-276.034830660158
 30
0.0
 10
249.7020710638766
 20
-276.034830660158
 30
0.0
 10
249.4905422010822
 20
-276.091330226116
 30
0.0
 10
249.3541164198663
 20
-276.2050183771293
 30
0.0
 10
249.2176906386505
 20
-276.3187065281426
 30
0.0
 10
249.1494777480425
 20
-276.4565103475525
 30
0.0
 10
249.1494777480425
 20
-276.6177408162623
 30
0.0
 10
249.1494777480425
 20
-276.780349323166
 30
0.0
 10
249.2201022054901
 20
-276.9209092189643
 30
0.0
 10
249.3613511203854
 20
-277.0394205036568
 30
0.0
 10
249.5026000352806
 20
-277.1579317883494
 30
0.0
 10
249.7068941975559
 20
-277.2171874306957
 30
0.0
 10
249.9742336072113
 20
-277.2171874306957
 30
0.0
  0
SPLINE
  5
60
330
53
100
AcDbEntity
  8
LAYER_1
 62
    30
100
AcDbSpline
210
0.0
220
0.0
230
1.0
 70
    11
 71
     3
 72
    50
 73
    46
 74
     0
 42
0.0000000001
 43
0.0000000001
 40
0.0
 40
0.0
 40
0.0
 40
0.0
 40
1.0
 40
1.0
 40
1.0
 40
2.0
 40
2.0
 40
2.0
 40
3.0
 40
3.0
 40
3.0
 40
4.0
 40
4.0
 40
4.0
 40
5.0
 40
5.0
 40
5.0
 40
6.0
 40
6.0
 40
6.0
 40
7.0
 40
7.0
 40
7.0
 40
8.0
 40
8.0
 40
8.0
 40
9.0
 40
9.0
 40
9.0
 40
10.0
 40
10.0
 40
10.0
 40
11.0
 40
11.0
 40
11.0
 40
12.0
 40
12.0
 40
12.0
 40
13.0
 40
13.0
 40
13.0
 40
14.0
 40
14.0
 40
14.0
 40
15.0
 40
15.0
 40
15.0
 40
15.0
 10
250.3814438935678
 20
-273.4871825488157
 30
0.0
 10
250.3814438935678
 20
-273.4871825488157
 30
0.0
 10
250.4289862112643
 20
-273.1027098926618
 30
0.0
 10
250.4289862112643
 20
-273.1027098926618
 30
0.0
 10
250.6534341821283
 20
-273.1633435732022
 30
0.0
 10
250.8277560136819
 20
-273.2756536860214
 30
0.0
 10
250.951779451151
 20
-273.4396402311193
 30
0.0
 10
251.07580288862
 20
-273.6036267762171
 30
0.0
 10
251.1378146073544
 20
-273.8130885817204
 30
0.0
 10
251.1378146073544
 20
-274.0680256476288
 30
0.0
 10
251.1378146073544
 20
-274.3891085468541
 30
0.0
 10
251.0392848764763
 20
-274.6437011032141
 30
0.0
 10
250.841536395623
 20
-274.8318033167087
 30
0.0
 10
250.6437879147696
 20
-275.0199055302033
 30
0.0
 10
250.3662854734328
 20
-275.1139566369507
 30
0.0
 10
250.0093735811609
 20
-275.1139566369507
 30
0.0
 10
249.6400593451421
 20
-275.1139566369507
 30
0.0
 10
249.3534274007693
 20
-275.0188720015578
 30
0.0
 10
249.1494777480425
 20
-274.828702730772
 30
0.0
 10
248.9455280953157
 20
-274.6385334599862
 30
0.0
 10
248.8435532689523
 20
-274.3918646232423
 30
0.0
 10
248.8435532689523
 20
-274.0886962205403
 30
0.0
 10
248.8435532689523
 20
-273.7951740851971
 30
0.0
 10
248.9434610380246
 20
-273.5553954394236
 30
0.0
 10
249.1432765761691
 20
-273.3693602832201
 30
0.0
 10
249.3430921143135
 20
-273.1833251270167
 30
0.0
 10
249.6242119059099
 20
-273.090307548915
 30
0.0
 10
249.9866359509582
 20
-273.090307548915
 30
0.0
 10
250.0086845620638
 20
-273.090307548915
 30
0.0
 10
250.0417574787222
 20
-273.090996568012
 30
0.0
 10
250.0858547009334
 20
-273.0923746062061
 30
0.0
 10
250.0858547009334
 20
-273.0923746062061
 30
0.0
 10
250.0858547009334
 20
-274.7294839807968
 30
0.0
 10
250.0858547009334
 20
-274.7294839807968
 30
0.0
 10
250.3270113849009
 20
-274.7157035988558
 30
0.0
 10
250.511496248136
 20
-274.6474907082479
 30
0.0
 10
250.6396538001873
 20
-274.5248453089729
 30
0.0
 10
250.7678113522386
 20
-274.4021999096981
 30
0.0
 10
250.8318901282643
 20
-274.249237670153
 30
0.0
 10
250.8318901282643
 20
-274.0659585903377
 30
0.0
 10
250.8318901282643
 20
-273.9295328091218
 30
0.0
 10
250.7960611352177
 20
-273.8130885817204
 30
0.0
 10
250.7244031491245
 20
-273.7166259081334
 30
0.0
 10
250.6527451630313
 20
-273.6201632345463
 30
0.0
 10
250.538367992921
 20
-273.5436821147738
 30
0.0
 10
250.3814438935678
 20
-273.4871825488157
 30
0.0
  0
SPLINE
  5
61
330
53
100
AcDbEntity
  8
LAYER_1
 62
    30
100
AcDbSpline
210
0.0
220
0.0
230
1.0
 70
    11
 71
     3
 72
    20
 73
    16
 74
     0
 42
0.0000000001
 43
0.0000000001
 40
0.0
 40
0.0
 40
0.0
 40
0.0
 40
1.0
 40
1.0
 40
1.0
 40
2.0
 40
2.0
 40
2.0
 40
3.0
 40
3.0
 40
3.0
 40
4.0
 40
4.0
 40
4.0
 40
5.0
 40
5.0
 40
5.0
 40
5.0
 10
249.7799302218432
 20
-274.7088134078853
 30
0.0
 10
249.7799302218432
 20
-274.7088134078853
 30
0.0
 10
249.7799302218432
 20
-273.4830484342334
 30
0.0
 10
249.7799302218432
 20
-273.4830484342334
 30
0.0
 10
249.5952731038338
 20
-273.4995848925626
 30
0.0
 10
249.4567802653268
 20
-273.546438191162
 30
0.0
 10
249.3644517063221
 20
-273.6236083300316
 30
0.0
 10
249.2211357341357
 20
-273.7421196147242
 30
0.0
 10
249.1494777480425
 20
-273.8957708733664
 30
0.0
 10
249.1494777480425
 20
-274.084562105958
 30
0.0
 10
249.1494777480425
 20
-274.2554388420264
 30
0.0
 10
249.2066663330976
 20
-274.3990993237613
 30
0.0
 10
249.3210435032079
 20
-274.5155435511628
 30
0.0
 10
249.4354206733182
 20
-274.6319877785642
 30
0.0
 10
249.5883829128633
 20
-274.6964110641384
 30
0.0
 10
249.7799302218432
 20
-274.7088134078853
 30
0.0
  0
SPLINE
  5
62
330
53
100
AcDbEntity
  8
LAYER_1
 62
    30
100
AcDbSpline
210
0.0
220
0.0
230
1.0
 70
    11
 71
     3
 72
    44
 73
    40
 74
     0
 42
0.0000000001
 43
0.0000000001
 40
0.0
 40
0.0
 40
0.0
 40
0.0
 40
1.0
 40
1.0
 40
1.0
 40
2.0
 40
2.0
 40
2.0
 40
3.0
 40
3.0
 40
3.0
 40
4.0
 40
4.0
 40
4.0
 40
5.0
 40
5.0
 40
5.0
 40
6.0
 40
6.0
 40
6.0
 40
7.0
 40
7.0
 40
7.0
 40
8.0
 40
8.0
 40
8.0
 40
9.0
 40
9.0
 40
9.0
 40
10.0
 40
10.0
 40
10.0
 40
11.0
 40
11.0
 40
11.0
 40
12.0
 40
12.0
 40
12.0
 40
13.0
 40
13.0
 40
13.0
 40
13.0
 10
251.0882052323668
 20
-272.4278156871014
 30
0.0
 10
251.0882052323668
 20
-272.4278156871014
 30
0.0
 10
248.8931626439399
 20
-272.4278156871014
 30
0.0
 10
248.8931626439399
 20
-272.4278156871014
 30
0.0
 10
248.8931626439399
 20
-272.4278156871014
 30
0.0
 10
248.8931626439399
 20
-272.0929524059351
 30
0.0
 10
248.8931626439399
 20
-272.0929524059351
 30
0.0
 10
248.8931626439399
 20
-272.0929524059351
 30
0.0
 10
249.2259588678151
 20
-272.0929524059351
 30
0.0
 10
249.2259588678151
 20
-272.0929524059351
 30
0.0
 10
249.0702405518818
 20
-272.0075140379009
 30
0.0
 10
248.9675767064213
 20
-271.9289658608372
 30
0.0
 10
248.9179673314337
 20
-271.856618855647
 30
0.0
 10
248.8683579564461
 20
-271.7842718504567
 30
0.0
 10
248.8435532689523
 20
-271.7043456351989
 30
0.0
 10
248.8435532689523
 20
-271.6175292289706
 30
0.0
 10
248.8435532689523
 20
-271.4921277533076
 30
0.0
 10
248.8835163765812
 20
-271.3646592203533
 30
0.0
 10
248.963442591839
 20
-271.2351236301079
 30
0.0
 10
248.963442591839
 20
-271.2351236301079
 30
0.0
 10
249.308641159461
 20
-271.3632811821592
 30
0.0
 10
249.308641159461
 20
-271.3632811821592
 30
0.0
 10
249.2548976698911
 20
-271.4542317029698
 30
0.0
 10
249.2280259251062
 20
-271.5451822237804
 30
0.0
 10
249.2280259251062
 20
-271.636132744591
 30
0.0
 10
249.2280259251062
 20
-271.7174369980429
 30
0.0
 10
249.2524861030515
 20
-271.7904730223302
 30
0.0
 10
249.301406458942
 20
-271.8552408174529
 30
0.0
 10
249.3503268148326
 20
-271.9200086125755
 30
0.0
 10
249.418195195892
 20
-271.9661728920779
 30
0.0
 10
249.5050116021203
 20
-271.9937336559599
 30
0.0
 10
249.6373032687539
 20
-272.0350748017829
 30
0.0
 10
249.7819972791344
 20
-272.0557453746944
 30
0.0
 10
249.9390936332618
 20
-272.0557453746944
 30
0.0
 10
249.9390936332618
 20
-272.0557453746944
 30
0.0
 10
251.0882052323668
 20
-272.0557453746944
 30
0.0
 10
251.0882052323668
 20
-272.0557453746944
 30
0.0
 10
251.0882052323668
 20
-272.0557453746944
 30
0.0
 10
251.0882052323668
 20
-272.4278156871014
 30
0.0
 10
251.0882052323668
 20
-272.4278156871014
 30
0.0
  0
SPLINE
  5
63
330
53
100
AcDbEntity
  8
LAYER_1
 62
    30
100
AcDbSpline
210
0.0
220
0.0
230
1.0
 70
    11
 71
     3
 72
    44
 73
    40
 74
     0
 42
0.0000000001
 43
0.0000000001
 40
0.0
 40
0.0
 40
0.0
 40
0.0
 40
1.0
 40
1.0
 40
1.0
 40
2.0
 40
2.0
 40
2.0
 40
3.0
 40
3.0
 40
3.0
 40
4.0
 40
4.0
 40
4.0
 40
5.0
 40
5.0
 40
5.0
 40
6.0
 40
6.0
 40
6.0
 40
7.0
 40
7.0
 40
7.0
 40
8.0
 40
8.0
 40
8.0
 40
9.0
 40
9.0
 40
9.0
 40
10.0
 40
10.0
 40
10.0
 40
11.0
 40
11.0
 40
11.0
 40
12.0
 40
12.0
 40
12.0
 40
13.0
 40
13.0
 40
13.0
 40
13.0
 10
251.0882052323668
 20
-270.8065537517428
 30
0.0
 10
251.0882052323668
 20
-270.8065537517428
 30
0.0
 10
248.8931626439399
 20
-270.8065537517428
 30
0.0
 10
248.8931626439399
 20
-270.8065537517428
 30
0.0
 10
248.8931626439399
 20
-270.8065537517428
 30
0.0
 10
248.8931626439399
 20
-270.4716904705766
 30
0.0
 10
248.8931626439399
 20
-270.4716904705766
 30
0.0
 10
248.8931626439399
 20
-270.4716904705766
 30
0.0
 10
249.2259588678151
 20
-270.4716904705766
 30
0.0
 10
249.2259588678151
 20
-270.4716904705766
 30
0.0
 10
249.0702405518818
 20
-270.3862521025424
 30
0.0
 10
248.9675767064213
 20
-270.3073594159301
 30
0.0
 10
248.9179673314337
 20
-270.2350124107399
 30
0.0
 10
248.8683579564461
 20
-270.1626654055496
 30
0.0
 10
248.8435532689523
 20
-270.0830836998404
 30
0.0
 10
248.8435532689523
 20
-269.996267293612
 30
0.0
 10
248.8435532689523
 20
-269.870865817949
 30
0.0
 10
248.8835163765812
 20
-269.7433972849947
 30
0.0
 10
248.963442591839
 20
-269.6138616947493
 30
0.0
 10
248.963442591839
 20
-269.6138616947493
 30
0.0
 10
249.308641159461
 20
-269.7420192468006
 30
0.0
 10
249.308641159461
 20
-269.7420192468006
 30
0.0
 10
249.2548976698911
 20
-269.8329697676112
 30
0.0
 10
249.2280259251062
 20
-269.9239202884218
 30
0.0
 10
249.2280259251062
 20
-270.0148708092324
 30
0.0
 10
249.2280259251062
 20
-270.0961750626843
 30
0.0
 10
249.2524861030515
 20
-270.1692110869716
 30
0.0
 10
249.301406458942
 20
-270.2339788820943
 30
0.0
 10
249.3503268148326
 20
-270.298746677217
 30
0.0
 10
249.418195195892
 20
-270.3449109567193
 30
0.0
 10
249.5050116021203
 20
-270.3724717206013
 30
0.0
 10
249.6373032687539
 20
-270.4138128664243
 30
0.0
 10
249.7819972791344
 20
-270.4344834393358
 30
0.0
 10
249.9390936332618
 20
-270.4344834393358
 30
0.0
 10
249.9390936332618
 20
-270.4344834393358
 30
0.0
 10
251.0882052323668
 20
-270.4344834393358
 30
0.0
 10
251.0882052323668
 20
-270.4344834393358
 30
0.0
 10
251.0882052323668
 20
-270.4344834393358
 30
0.0
 10
251.0882052323668
 20
-270.8065537517428
 30
0.0
 10
251.0882052323668
 20
-270.8065537517428
 30
0.0
  0
SPLINE
  5
64
330
53
100
AcDbEntity
  8
LAYER_1
 62
    30
100
AcDbSpline
210
0.0
220
0.0
230
1.0
 70
    11
 71
     3
 72
    59
 73
    55
 74
     0
 42
0.0000000001
 43
0.0000000001
 40
0.0
 40
0.0
 40
0.0
 40
0.0
 40
1.0
 40
1.0
 40
1.0
 40
2.0
 40
2.0
 40
2.0
 40
3.0
 40
3.0
 40
3.0
 40
4.0
 40
4.0
 40
4.0
 40
5.0
 40
5.0
 40
5.0
 40
6.0
 40
6.0
 40
6.0
 40
7.0
 40
7.0
 40
7.0
 40
8.0
 40
8.0
 40
8.0
 40
9.0
 40
9.0
 40
9.0
 40
10.0
 40
10.0
 40
10.0
 40
11.0
 40
11.0
 40
11.0
 40
12.0
 40
12.0
 40
12.0
 40
13.0
 40
13.0
 40
13.0
 40
14.0
 40
14.0
 40
14.0
 40
15.0
 40
15.0
 40
15.0
 40
16.0
 40
16.0
 40
16.0
 40
17.0
 40
17.0
 40
17.0
 40
18.0
 40
18.0
 40
18.0
 40
18.0
 10
251.9336316644471
 20
-269.1976941601312
 30
0.0
 10
251.9336316644471
 20
-269.1976941601312
 30
0.0
 10
251.5842989822428
 20
-269.2390353059541
 30
0.0
 10
251.5842989822428
 20
-269.2390353059541
 30
0.0
 10
251.6063475933484
 20
-269.1577310525022
 30
0.0
 10
251.6173718989012
 20
-269.0867620855061
 30
0.0
 10
251.6173718989012
 20
-269.0261284049657
 30
0.0
 10
251.6173718989012
 20
-268.9434461133197
 30
0.0
 10
251.6035915169602
 20
-268.8773002800029
 30
0.0
 10
251.5760307530782
 20
-268.8276909050153
 30
0.0
 10
251.5484699891962
 20
-268.7780815300277
 30
0.0
 10
251.5098849197614
 20
-268.7374294033017
 30
0.0
 10
251.4602755447738
 20
-268.7057345248375
 30
0.0
 10
251.4230685135331
 20
-268.6823078755378
 30
0.0
 10
251.3307399545284
 20
-268.6444118252
 30
0.0
 10
251.1832898677598
 20
-268.5920463738242
 30
0.0
 10
251.1626192948482
 20
-268.5851561828537
 30
0.0
 10
251.1323024545781
 20
-268.5741318773009
 30
0.0
 10
251.0923393469492
 20
-268.5589734571658
 30
0.0
 10
251.0923393469492
 20
-268.5589734571658
 30
0.0
 10
248.8931626439399
 20
-269.3919975454992
 30
0.0
 10
248.8931626439399
 20
-269.3919975454992
 30
0.0
 10
248.8931626439399
 20
-269.3919975454992
 30
0.0
 10
248.8931626439399
 20
-268.9909884310161
 30
0.0
 10
248.8931626439399
 20
-268.9909884310161
 30
0.0
 10
248.8931626439399
 20
-268.9909884310161
 30
0.0
 10
250.1644028779971
 20
-268.534168769672
 30
0.0
 10
250.1644028779971
 20
-268.534168769672
 30
0.0
 10
250.3256333467068
 20
-268.4749131273257
 30
0.0
 10
250.4949597898068
 20
-268.4218586568529
 30
0.0
 10
250.6727267168457
 20
-268.3750053582535
 30
0.0
 10
250.5018499807773
 20
-268.3322861742364
 30
0.0
 10
250.3352796140655
 20
-268.2812987610547
 30
0.0
 10
250.1726711071617
 20
-268.2220431187084
 30
0.0
 10
250.1726711071617
 20
-268.2220431187084
 30
0.0
 10
248.8931626439399
 20
-267.7528211136174
 30
0.0
 10
248.8931626439399
 20
-267.7528211136174
 30
0.0
 10
248.8931626439399
 20
-267.7528211136174
 30
0.0
 10
248.8931626439399
 20
-267.3807508012104
 30
0.0
 10
248.8931626439399
 20
-267.3807508012104
 30
0.0
 10
248.8931626439399
 20
-267.3807508012104
 30
0.0
 10
251.1254122636076
 20
-268.2158419468349
 30
0.0
 10
251.1254122636076
 20
-268.2158419468349
 30
0.0
 10
251.366568947575
 20
-268.3054144294514
 30
0.0
 10
251.5326225499641
 20
-268.3750053582535
 30
0.0
 10
251.6235730707747
 20
-268.4246147332411
 30
0.0
 10
251.7462184700496
 20
-268.4907605665579
 30
0.0
 10
251.8364799717631
 20
-268.5665526672334
 30
0.0
 10
251.8936685568183
 20
-268.6519910352675
 30
0.0
 10
251.9508571418734
 20
-268.7374294033017
 30
0.0
 10
251.9791069248525
 20
-268.8394042296651
 30
0.0
 10
251.9791069248525
 20
-268.9579155143578
 30
0.0
 10
251.9791069248525
 20
-269.029573500451
 30
0.0
 10
251.9639485047174
 20
-269.1094997157088
 30
0.0
 10
251.9336316644471
 20
-269.1976941601312
 30
0.0
  0
SPLINE
  5
65
330
53
100
AcDbEntity
  8
LAYER_1
 62
    30
100
AcDbSpline
210
0.0
220
0.0
230
1.0
 70
    11
 71
     3
 72
    38
 73
    34
 74
     0
 42
0.0000000001
 43
0.0000000001
 40
0.0
 40
0.0
 40
0.0
 40
0.0
 40
1.0
 40
1.0
 40
1.0
 40
2.0
 40
2.0
 40
2.0
 40
3.0
 40
3.0
 40
3.0
 40
4.0
 40
4.0
 40
4.0
 40
5.0
 40
5.0
 40
5.0
 40
6.0
 40
6.0
 40
6.0
 40
7.0
 40
7.0
 40
7.0
 40
8.0
 40
8.0
 40
8.0
 40
9.0
 40
9.0
 40
9.0
 40
10.0
 40
10.0
 40
10.0
 40
11.0
 40
11.0
 40
11.0
 40
11.0
 10
251.0882052323668
 20
-265.4173908841665
 30
0.0
 10
251.0882052323668
 20
-265.4173908841665
 30
0.0
 10
248.0580714983153
 20
-265.4173908841665
 30
0.0
 10
248.0580714983153
 20
-265.4173908841665
 30
0.0
 10
248.0580714983153
 20
-265.4173908841665
 30
0.0
 10
248.0580714983153
 20
-264.2743082021606
 30
0.0
 10
248.0580714983153
 20
-264.2743082021606
 30
0.0
 10
248.0580714983153
 20
-264.073114625822
 30
0.0
 10
248.067717765674
 20
-263.9194633671798
 30
0.0
 10
248.0870103003915
 20
-263.8133544262342
 30
0.0
 10
248.1118149878853
 20
-263.6645263012714
 30
0.0
 10
248.1590127960332
 20
-263.5398138447053
 30
0.0
 10
248.2286037248352
 20
-263.4392170565361
 30
0.0
 10
248.2981946536373
 20
-263.3386202683668
 30
0.0
 10
248.3956908558698
 20
-263.2576605244633
 30
0.0
 10
248.5210923315329
 20
-263.1963378248259
 30
0.0
 10
248.646493807196
 20
-263.1350151251885
 30
0.0
 10
248.784297626606
 20
-263.1043537753698
 30
0.0
 10
248.9345037897629
 20
-263.1043537753698
 30
0.0
 10
249.1921969320596
 20
-263.1043537753698
 30
0.0
 10
249.4102714762759
 20
-263.1863470479187
 30
0.0
 10
249.5887274224119
 20
-263.3503335930166
 30
0.0
 10
249.7671833685478
 20
-263.5143201381145
 30
0.0
 10
249.8564113416158
 20
-263.810598349846
 30
0.0
 10
249.8564113416158
 20
-264.239168228211
 30
0.0
 10
249.8564113416158
 20
-264.239168228211
 30
0.0
 10
249.8564113416158
 20
-265.0163817696834
 30
0.0
 10
249.8564113416158
 20
-265.0163817696834
 30
0.0
 10
249.8564113416158
 20
-265.0163817696834
 30
0.0
 10
251.0882052323668
 20
-265.0163817696834
 30
0.0
 10
251.0882052323668
 20
-265.0163817696834
 30
0.0
 10
251.0882052323668
 20
-265.0163817696834
 30
0.0
 10
251.0882052323668
 20
-265.4173908841665
 30
0.0
 10
251.0882052323668
 20
-265.4173908841665
 30
0.0
  0
SPLINE
  5
66
330
53
100
AcDbEntity
  8
LAYER_1
 62
    30
100
AcDbSpline
210
0.0
220
0.0
230
1.0
 70
    11
 71
     3
 72
    29
 73
    25
 74
     0
 42
0.0000000001
 43
0.0000000001
 40
0.0
 40
0.0
 40
0.0
 40
0.0
 40
1.0
 40
1.0
 40
1.0
 40
2.0
 40
2.0
 40
2.0
 40
3.0
 40
3.0
 40
3.0
 40
4.0
 40
4.0
 40
4.0
 40
5.0
 40
5.0
 40
5.0
 40
6.0
 40
6.0
 40
6.0
 40
7.0
 40
7.0
 40
7.0
 40
8.0
 40
8.0
 40
8.0
 40
8.0
 10
249.4988104302468
 20
-265.0163817696834
 30
0.0
 10
249.4988104302468
 20
-265.0163817696834
 30
0.0
 10
249.4988104302468
 20
-264.2329670563376
 30
0.0
 10
249.4988104302468
 20
-264.2329670563376
 30
0.0
 10
249.4988104302468
 20
-263.9738958758468
 30
0.0
 10
249.4505790934533
 20
-263.7899277769345
 30
0.0
 10
249.3541164198663
 20
-263.6810627596006
 30
0.0
 10
249.2576537462793
 20
-263.5721977422667
 30
0.0
 10
249.1219169841605
 20
-263.5177652335997
 30
0.0
 10
248.9469061335098
 20
-263.5177652335997
 30
0.0
 10
248.8201266196526
 20
-263.5177652335997
 30
0.0
 10
248.7116061118672
 20
-263.5498046216126
 30
0.0
 10
248.6213446101537
 20
-263.6138833976382
 30
0.0
 10
248.5310831084402
 20
-263.6779621736638
 30
0.0
 10
248.4714829565453
 20
-263.7623670130525
 30
0.0
 10
248.4425441544692
 20
-263.8670979158041
 30
0.0
 10
248.4246296579459
 20
-263.934621787315
 30
0.0
 10
248.4156724096843
 20
-264.059334243881
 30
0.0
 10
248.4156724096843
 20
-264.2412352855022
 30
0.0
 10
248.4156724096843
 20
-264.2412352855022
 30
0.0
 10
248.4156724096843
 20
-265.0163817696834
 30
0.0
 10
248.4156724096843
 20
-265.0163817696834
 30
0.0
 10
248.4156724096843
 20
-265.0163817696834
 30
0.0
 10
249.4988104302468
 20
-265.0163817696834
 30
0.0
 10
249.4988104302468
 20
-265.0163817696834
 30
0.0
  0
POLYLINE
  5
67
330
53
100
AcDbEntity
  8
LAYER_1
 62
    30
100
AcDb2dPolyline
 66
     1
 10
0.0
 20
0.0
 30
0.0
  0
VERTEX
  5
68
330
67
100
AcDbEntity
  8
LAYER_1
 62
    30
100
AcDbVertex
100
AcDb2dVertex
 10
248.4859523575834
 20
-262.4273925125182
 30
0.0
  0
VERTEX
  5
69
330
67
100
AcDbEntity
  8
LAYER_1
 62
    30
100
AcDbVertex
100
AcDb2dVertex
 10
248.0580714983153
 20
-262.4273925125182
 30
0.0
  0
VERTEX
  5
6A
330
67
100
AcDbEntity
  8
LAYER_1
 62
    30
100
AcDbVertex
100
AcDb2dVertex
 10
248.0580714983153
 20
-262.0553222001112
 30
0.0
  0
VERTEX
  5
6B
330
67
100
AcDbEntity
  8
LAYER_1
 62
    30
100
AcDbVertex
100
AcDb2dVertex
 10
248.4859523575834
 20
-262.0553222001112
 30
0.0
  0
VERTEX
  5
6C
330
67
100
AcDbEntity
  8
LAYER_1
 62
    30
100
AcDbVertex
100
AcDb2dVertex
 10
248.4859523575834
 20
-262.4273925125182
 30
0.0
  0
SEQEND
  5
6D
330
67
100
AcDbEntity
  8
LAYER_1
  0
POLYLINE
  5
6E
330
53
100
AcDbEntity
  8
LAYER_1
 62
    30
100
AcDb2dPolyline
 66
     1
 10
0.0
 20
0.0
 30
0.0
  0
VERTEX
  5
6F
330
6E
100
AcDbEntity
  8
LAYER_1
 62
    30
100
AcDbVertex
100
AcDb2dVertex
 10
251.0882052323668
 20
-262.4273925125182
 30
0.0
  0
VERTEX
  5
70
330
6E
100
AcDbEntity
  8
LAYER_1
 62
    30
100
AcDbVertex
100
AcDb2dVertex
 10
248.8931626439399
 20
-262.4273925125182
 30
0.0
  0
VERTEX
  5
71
330
6E
100
AcDbEntity
  8
LAYER_1
 62
    30
100
AcDbVertex
100
AcDb2dVertex
 10
248.8931626439399
 20
-262.0553222001112
 30
0.0
  0
VERTEX
  5
72
330
6E
100
AcDbEntity
  8
LAYER_1
 62
    30
100
AcDbVertex
100
AcDb2dVertex
 10
251.0882052323668
 20
-262.0553222001112
 30
0.0
  0
VERTEX
  5
73
330
6E
100
AcDbEntity
  8
LAYER_1
 62
    30
100
AcDbVertex
100
AcDb2dVertex
 10
251.0882052323668
 20
-262.4273925125182
 30
0.0
  0
SEQEND
  5
74
330
6E
100
AcDbEntity
  8
LAYER_1
  0
ENDBLK
  5
56
330
53
100
AcDbEntity
  8
0
100
AcDbBlockEnd
  0
ENDSEC
  0
SECTION
  2
ENTITIES
  0
SPLINE
  5
3C
330
1F
100
AcDbEntity
  8
LAYER_1
 62
   250
100
AcDbSpline
210
0.0
220
0.0
230
1.0
 70
    11
 71
     3
 72
    17
 73
    13
 74
     0
 42
0.0000000001
 43
0.0000000001
 40
0.0
 40
0.0
 40
0.0
 40
0.0
 40
1.0
 40
1.0
 40
1.0
 40
2.0
 40
2.0
 40
2.0
 40
3.0
 40
3.0
 40
3.0
 40
4.0
 40
4.0
 40
4.0
 40
4.0
 10
202.9457519023886
 20
-230.696685055173
 30
0.0
 10
202.9457519023886
 20
-232.353603728804
 30
0.0
 10
201.6028536822382
 20
-233.6966742037286
 30
0.0
 10
199.945762753833
 20
-233.6966742037286
 30
0.0
 10
198.2890163349764
 20
-233.6966742037286
 30
0.0
 10
196.9457736052775
 20
-232.353603728804
 30
0.0
 10
196.9457736052775
 20
-230.696685055173
 30
0.0
 10
196.9457736052775
 20
-229.0397663815422
 30
0.0
 10
198.2890163349764
 20
-227.6966959066175
 30
0.0
 10
199.945762753833
 20
-227.6966959066175
 30
0.0
 10
201.6028536822382
 20
-227.6966959066175
 30
0.0
 10
202.9457519023886
 20
-229.0397663815422
 30
0.0
 10
202.9457519023886
 20
-230.696685055173
 30
0.0
  0
SPLINE
  5
3D
330
1F
100
AcDbEntity
  8
LAYER_1
 62
   250
100
AcDbSpline
210
0.0
220
0.0
230
1.0
 70
    11
 71
     3
 72
    17
 73
    13
 74
     0
 42
0.0000000001
 43
0.0000000001
 40
0.0
 40
0.0
 40
0.0
 40
0.0
 40
1.0
 40
1.0
 40
1.0
 40
2.0
 40
2.0
 40
2.0
 40
3.0
 40
3.0
 40
3.0
 40
4.0
 40
4.0
 40
4.0
 40
4.0
 10
202.9457519023886
 20
-250.6968423852425
 30
0.0
 10
202.9457519023886
 20
-252.3539333136476
 30
0.0
 10
201.6028536822382
 20
-253.696831533798
 30
0.0
 10
199.945762753833
 20
-253.696831533798
 30
0.0
 10
198.2890163349764
 20
-253.696831533798
 30
0.0
 10
196.9457736052775
 20
-252.3539333136476
 30
0.0
 10
196.9457736052775
 20
-250.6968423852425
 30
0.0
 10
196.9457736052775
 20
-249.0399237116116
 30
0.0
 10
198.2890163349764
 20
-247.6968532366869
 30
0.0
 10
199.945762753833
 20
-247.6968532366869
 30
0.0
 10
201.6028536822382
 20
-247.6968532366869
 30
0.0
 10
202.9457519023886
 20
-249.0399237116116
 30
0.0
 10
202.9457519023886
 20
-250.6968423852425
 30
0.0
  0
SPLINE
  5
3E
330
1F
100
AcDbEntity
  8
LAYER_1
 62
   250
100
AcDbSpline
210
0.0
220
0.0
230
1.0
 70
    11
 71
     3
 72
    17
 73
    13
 74
     0
 42
0.0000000001
 43
0.0000000001
 40
0.0
 40
0.0
 40
0.0
 40
0.0
 40
1.0
 40
1.0
 40
1.0
 40
2.0
 40
2.0
 40
2.0
 40
3.0
 40
3.0
 40
3.0
 40
4.0
 40
4.0
 40
4.0
 40
4.0
 10
302.9458495336386
 20
-230.696685055173
 30
0.0
 10
302.9458495336386
 20
-232.353603728804
 30
0.0
 10
301.6029513134882
 20
-233.6966742037286
 30
0.0
 10
299.945860385083
 20
-233.6966742037286
 30
0.0
 10
298.2891139662264
 20
-233.6966742037286
 30
0.0
 10
296.9458712365274
 20
-232.353603728804
 30
0.0
 10
296.9458712365274
 20
-230.696685055173
 30
0.0
 10
296.9458712365274
 20
-229.0397663815422
 30
0.0
 10
298.2891139662264
 20
-227.6966959066175
 30
0.0
 10
299.945860385083
 20
-227.6966959066175
 30
0.0
 10
301.6029513134882
 20
-227.6966959066175
 30
0.0
 10
302.9458495336386
 20
-229.0397663815422
 30
0.0
 10
302.9458495336386
 20
-230.696685055173
 30
0.0
  0
SPLINE
  5
3F
330
1F
100
AcDbEntity
  8
LAYER_1
 62
   250
100
AcDbSpline
210
0.0
220
0.0
230
1.0
 70
    11
 71
     3
 72
    17
 73
    13
 74
     0
 42
0.0000000001
 43
0.0000000001
 40
0.0
 40
0.0
 40
0.0
 40
0.0
 40
1.0
 40
1.0
 40
1.0
 40
2.0
 40
2.0
 40
2.0
 40
3.0
 40
3.0
 40
3.0
 40
4.0
 40
4.0
 40
4.0
 40
4.0
 10
202.9457519023886
 20
-310.6980033945478
 30
0.0
 10
202.9457519023886
 20
-312.3550943229529
 30
0.0
 10
201.6028536822382
 20
-313.6979925431033
 30
0.0
 10
199.945762753833
 20
-313.6979925431033
 30
0.0
 10
198.2890163349764
 20
-313.6979925431033
 30
0.0
 10
196.9457736052775
 20
-312.3550943229529
 30
0.0
 10
196.9457736052775
 20
-310.6980033945478
 30
0.0
 10
196.9457736052775
 20
-309.0409124661426
 30
0.0
 10
198.2890163349764
 20
-307.6980142459922
 30
0.0
 10
199.945762753833
 20
-307.6980142459922
 30
0.0
 10
201.6028536822382
 20
-307.6980142459922
 30
0.0
 10
202.9457519023886
 20
-309.0409124661426
 30
0.0
 10
202.9457519023886
 20
-310.6980033945478
 30
0.0
  0
SPLINE
  5
40
330
1F
100
AcDbEntity
  8
LAYER_1
 62
   250
100
AcDbSpline
210
0.0
220
0.0
230
1.0
 70
    11
 71
     3
 72
    17
 73
    13
 74
     0
 42
0.0000000001
 43
0.0000000001
 40
0.0
 40
0.0
 40
0.0
 40
0.0
 40
1.0
 40
1.0
 40
1.0
 40
2.0
 40
2.0
 40
2.0
 40
3.0
 40
3.0
 40
3.0
 40
4.0
 40
4.0
 40
4.0
 40
4.0
 10
302.9458495336386
 20
-310.6980033945478
 30
0.0
 10
302.9458495336386
 20
-312.3550943229529
 30
0.0
 10
301.6029513134882
 20
-313.6979925431033
 30
0.0
 10
299.945860385083
 20
-313.6979925431033
 30
0.0
 10
298.2891139662264
 20
-313.6979925431033
 30
0.0
 10
296.9458712365274
 20
-312.3550943229529
 30
0.0
 10
296.9458712365274
 20
-310.6980033945478
 30
0.0
 10
296.9458712365274
 20
-309.0409124661426
 30
0.0
 10
298.2891139662264
 20
-307.6980142459922
 30
0.0
 10
299.945860385083
 20
-307.6980142459922
 30
0.0
 10
301.6029513134882
 20
-307.6980142459922
 30
0.0
 10
302.9458495336386
 20
-309.0409124661426
 30
0.0
 10
302.9458495336386
 20
-310.6980033945478
 30
0.0
  0
SPLINE
  5
41
330
1F
100
AcDbEntity
  8
LAYER_1
 62
   250
100
AcDbSpline
210
0.0
220
0.0
230
1.0
 70
    11
 71
     3
 72
    17
 73
    13
 74
     0
 42
0.0000000001
 43
0.0000000001
 40
0.0
 40
0.0
 40
0.0
 40
0.0
 40
1.0
 40
1.0
 40
1.0
 40
2.0
 40
2.0
 40
2.0
 40
3.0
 40
3.0
 40
3.0
 40
4.0
 40
4.0
 40
4.0
 40
4.0
 10
282.9456922035691
 20
-310.6980033945478
 30
0.0
 10
282.9456922035691
 20
-312.3550943229529
 30
0.0
 10
281.6027939834187
 20
-313.6979925431033
 30
0.0
 10
279.9457030550136
 20
-313.6979925431033
 30
0.0
 10
278.288956636157
 20
-313.6979925431033
 30
0.0
 10
276.945713906458
 20
-312.3550943229529
 30
0.0
 10
276.945713906458
 20
-310.6980033945478
 30
0.0
 10
276.945713906458
 20
-309.0409124661426
 30
0.0
 10
278.288956636157
 20
-307.6980142459922
 30
0.0
 10
279.9457030550136
 20
-307.6980142459922
 30
0.0
 10
281.6027939834187
 20
-307.6980142459922
 30
0.0
 10
282.9456922035691
 20
-309.0409124661426
 30
0.0
 10
282.9456922035691
 20
-310.6980033945478
 30
0.0
  0
SPLINE
  5
42
330
1F
100
AcDbEntity
  8
LAYER_1
 62
   250
100
AcDbSpline
210
0.0
220
0.0
230
1.0
 70
    11
 71
     3
 72
    17
 73
    13
 74
     0
 42
0.0000000001
 43
0.0000000001
 40
0.0
 40
0.0
 40
0.0
 40
0.0
 40
1.0
 40
1.0
 40
1.0
 40
2.0
 40
2.0
 40
2.0
 40
3.0
 40
3.0
 40
3.0
 40
4.0
 40
4.0
 40
4.0
 40
4.0
 10
262.9455348734998
 20
-310.6980033945478
 30
0.0
 10
262.9455348734998
 20
-312.3550943229529
 30
0.0
 10
261.6026366533494
 20
-313.6979925431033
 30
0.0
 10
259.9455457249442
 20
-313.6979925431033
 30
0.0
 10
258.2887993060875
 20
-313.6979925431033
 30
0.0
 10
256.9455565763886
 20
-312.3550943229529
 30
0.0
 10
256.9455565763886
 20
-310.6980033945478
 30
0.0
 10
256.9455565763886
 20
-309.0409124661426
 30
0.0
 10
258.2887993060875
 20
-307.6980142459922
 30
0.0
 10
259.9455457249442
 20
-307.6980142459922
 30
0.0
 10
261.6026366533494
 20
-307.6980142459922
 30
0.0
 10
262.9455348734998
 20
-309.0409124661426
 30
0.0
 10
262.9455348734998
 20
-310.6980033945478
 30
0.0
  0
SPLINE
  5
43
330
1F
100
AcDbEntity
  8
LAYER_1
 62
   250
100
AcDbSpline
210
0.0
220
0.0
230
1.0
 70
    11
 71
     3
 72
    17
 73
    13
 74
     0
 42
0.0000000001
 43
0.0000000001
 40
0.0
 40
0.0
 40
0.0
 40
0.0
 40
1.0
 40
1.0
 40
1.0
 40
2.0
 40
2.0
 40
2.0
 40
3.0
 40
3.0
 40
3.0
 40
4.0
 40
4.0
 40
4.0
 40
4.0
 10
242.9453775434303
 20
-310.6980033945478
 30
0.0
 10
242.9453775434303
 20
-312.3550943229529
 30
0.0
 10
241.6024793232799
 20
-313.6979925431033
 30
0.0
 10
239.9453883948748
 20
-313.6979925431033
 30
0.0
 10
238.2886419760181
 20
-313.6979925431033
 30
0.0
 10
236.9453992463192
 20
-312.3550943229529
 30
0.0
 10
236.9453992463192
 20
-310.6980033945478
 30
0.0
 10
236.9453992463192
 20
-309.0409124661426
 30
0.0
 10
238.2886419760181
 20
-307.6980142459922
 30
0.0
 10
239.9453883948748
 20
-307.6980142459922
 30
0.0
 10
241.6024793232799
 20
-307.6980142459922
 30
0.0
 10
242.9453775434303
 20
-309.0409124661426
 30
0.0
 10
242.9453775434303
 20
-310.6980033945478
 30
0.0
  0
SPLINE
  5
44
330
1F
100
AcDbEntity
  8
LAYER_1
 62
   250
100
AcDbSpline
210
0.0
220
0.0
230
1.0
 70
    11
 71
     3
 72
    17
 73
    13
 74
     0
 42
0.0000000001
 43
0.0000000001
 40
0.0
 40
0.0
 40
0.0
 40
0.0
 40
1.0
 40
1.0
 40
1.0
 40
2.0
 40
2.0
 40
2.0
 40
3.0
 40
3.0
 40
3.0
 40
4.0
 40
4.0
 40
4.0
 40
4.0
 10
222.9452202133609
 20
-310.6980033945478
 30
0.0
 10
222.9452202133609
 20
-312.3550943229529
 30
0.0
 10
221.6023219932106
 20
-313.6979925431033
 30
0.0
 10
219.9452310648054
 20
-313.6979925431033
 30
0.0
 10
218.2884846459487
 20
-313.6979925431033
 30
0.0
 10
216.9452419162498
 20
-312.3550943229529
 30
0.0
 10
216.9452419162498
 20
-310.6980033945478
 30
0.0
 10
216.9452419162498
 20
-309.0409124661426
 30
0.0
 10
218.2884846459487
 20
-307.6980142459922
 30
0.0
 10
219.9452310648054
 20
-307.6980142459922
 30
0.0
 10
221.6023219932106
 20
-307.6980142459922
 30
0.0
 10
222.9452202133609
 20
-309.0409124661426
 30
0.0
 10
222.9452202133609
 20
-310.6980033945478
 30
0.0
  0
SPLINE
  5
45
330
1F
100
AcDbEntity
  8
LAYER_1
 62
   250
100
AcDbSpline
210
0.0
220
0.0
230
1.0
 70
    11
 71
     3
 72
    17
 73
    13
 74
     0
 42
0.0000000001
 43
0.0000000001
 40
0.0
 40
0.0
 40
0.0
 40
0.0
 40
1.0
 40
1.0
 40
1.0
 40
2.0
 40
2.0
 40
2.0
 40
3.0
 40
3.0
 40
3.0
 40
4.0
 40
4.0
 40
4.0
 40
4.0
 10
302.9458495336386
 20
-290.6978460644783
 30
0.0
 10
302.9458495336386
 20
-292.3549369928835
 30
0.0
 10
301.6029513134882
 20
-293.6978352130339
 30
0.0
 10
299.945860385083
 20
-293.6978352130339
 30
0.0
 10
298.2891139662264
 20
-293.6978352130339
 30
0.0
 10
296.9458712365274
 20
-292.3549369928835
 30
0.0
 10
296.9458712365274
 20
-290.6978460644783
 30
0.0
 10
296.9458712365274
 20
-289.0407551360731
 30
0.0
 10
298.2891139662264
 20
-287.6978569159228
 30
0.0
 10
299.945860385083
 20
-287.6978569159228
 30
0.0
 10
301.6029513134882
 20
-287.6978569159228
 30
0.0
 10
302.9458495336386
 20
-289.0407551360731
 30
0.0
 10
302.9458495336386
 20
-290.6978460644783
 30
0.0
  0
SPLINE
  5
46
330
1F
100
AcDbEntity
  8
LAYER_1
 62
   250
100
AcDbSpline
210
0.0
220
0.0
230
1.0
 70
    11
 71
     3
 72
    17
 73
    13
 74
     0
 42
0.0000000001
 43
0.0000000001
 40
0.0
 40
0.0
 40
0.0
 40
0.0
 40
1.0
 40
1.0
 40
1.0
 40
2.0
 40
2.0
 40
2.0
 40
3.0
 40
3.0
 40
3.0
 40
4.0
 40
4.0
 40
4.0
 40
4.0
 10
302.9458495336386
 20
-270.6976887344089
 30
0.0
 10
302.9458495336386
 20
-272.3547796628141
 30
0.0
 10
301.6029513134882
 20
-273.6976778829645
 30
0.0
 10
299.945860385083
 20
-273.6976778829645
 30
0.0
 10
298.2891139662264
 20
-273.6976778829645
 30
0.0
 10
296.9458712365274
 20
-272.3547796628141
 30
0.0
 10
296.9458712365274
 20
-270.6976887344089
 30
0.0
 10
296.9458712365274
 20
-269.0405978060037
 30
0.0
 10
298.2891139662264
 20
-267.6976995858533
 30
0.0
 10
299.945860385083
 20
-267.6976995858533
 30
0.0
 10
301.6029513134882
 20
-267.6976995858533
 30
0.0
 10
302.9458495336386
 20
-269.0405978060037
 30
0.0
 10
302.9458495336386
 20
-270.6976887344089
 30
0.0
  0
SPLINE
  5
47
330
1F
100
AcDbEntity
  8
LAYER_1
 62
   250
100
AcDbSpline
210
0.0
220
0.0
230
1.0
 70
    11
 71
     3
 72
    17
 73
    13
 74
     0
 42
0.0000000001
 43
0.0000000001
 40
0.0
 40
0.0
 40
0.0
 40
0.0
 40
1.0
 40
1.0
 40
1.0
 40
2.0
 40
2.0
 40
2.0
 40
3.0
 40
3.0
 40
3.0
 40
4.0
 40
4.0
 40
4.0
 40
4.0
 10
302.9458495336386
 20
-250.6975314043395
 30
0.0
 10
302.9458495336386
 20
-252.3546223327447
 30
0.0
 10
301.6029513134882
 20
-253.6975205528951
 30
0.0
 10
299.945860385083
 20
-253.6975205528951
 30
0.0
 10
298.2891139662264
 20
-253.6975205528951
 30
0.0
 10
296.9458712365274
 20
-252.3546223327447
 30
0.0
 10
296.9458712365274
 20
-250.6975314043395
 30
0.0
 10
296.9458712365274
 20
-249.0406127307086
 30
0.0
 10
298.2891139662264
 20
-247.697542255784
 30
0.0
 10
299.945860385083
 20
-247.697542255784
 30
0.0
 10
301.6029513134882
 20
-247.697542255784
 30
0.0
 10
302.9458495336386
 20
-249.0406127307086
 30
0.0
 10
302.9458495336386
 20
-250.6975314043395
 30
0.0
  0
SPLINE
  5
48
330
1F
100
AcDbEntity
  8
LAYER_1
 62
   250
100
AcDbSpline
210
0.0
220
0.0
230
1.0
 70
    11
 71
     3
 72
    17
 73
    13
 74
     0
 42
0.0000000001
 43
0.0000000001
 40
0.0
 40
0.0
 40
0.0
 40
0.0
 40
1.0
 40
1.0
 40
1.0
 40
2.0
 40
2.0
 40
2.0
 40
3.0
 40
3.0
 40
3.0
 40
4.0
 40
4.0
 40
4.0
 40
4.0
 10
288.9277560041569
 20
-259.8277234593486
 30
0.0
 10
288.9277560041569
 20
-260.6559244140027
 30
0.0
 10
288.2563068940818
 20
-261.3277180336264
 30
0.0
 10
287.4277614298792
 20
-261.3277180336264
 30
0.0
 10
286.5992159656766
 20
-261.3277180336264
 30
0.0
 10
285.9277668556014
 20
-260.6559244140027
 30
0.0
 10
285.9277668556014
 20
-259.8277234593486
 30
0.0
 10
285.9277668556014
 20
-258.9995225046946
 30
0.0
 10
286.5992159656766
 20
-258.3277288850709
 30
0.0
 10
287.4277614298792
 20
-258.3277288850709
 30
0.0
 10
288.2563068940818
 20
-258.3277288850709
 30
0.0
 10
288.9277560041569
 20
-258.9995225046946
 30
0.0
 10
288.9277560041569
 20
-259.8277234593486
 30
0.0
  0
SPLINE
  5
49
330
1F
100
AcDbEntity
  8
LAYER_1
 62
   250
100
AcDbSpline
210
0.0
220
0.0
230
1.0
 70
    11
 71
     3
 72
    17
 73
    13
 74
     0
 42
0.0000000001
 43
0.0000000001
 40
0.0
 40
0.0
 40
0.0
 40
0.0
 40
1.0
 40
1.0
 40
1.0
 40
2.0
 40
2.0
 40
2.0
 40
3.0
 40
3.0
 40
3.0
 40
4.0
 40
4.0
 40
4.0
 40
4.0
 10
234.4232448415678
 20
-285.2284124720957
 30
0.0
 10
234.4232448415678
 20
-286.0569579362983
 30
0.0
 10
233.7514512219441
 20
-286.7284070463735
 30
0.0
 10
232.92325026729
 20
-286.7284070463735
 30
0.0
 10
232.095049312636
 20
-286.7284070463735
 30
0.0
 10
231.4232556930123
 20
-286.0569579362983
 30
0.0
 10
231.4232556930123
 20
-285.2284124720957
 30
0.0
 10
231.4232556930123
 20
-284.4002115174416
 30
0.0
 10
232.095049312636
 20
-283.7284178978179
 30
0.0
 10
232.92325026729
 20
-283.7284178978179
 30
0.0
 10
233.7514512219441
 20
-283.7284178978179
 30
0.0
 10
234.4232448415678
 20
-284.4002115174416
 30
0.0
 10
234.4232448415678
 20
-285.2284124720957
 30
0.0
  0
SPLINE
  5
4A
330
1F
100
AcDbEntity
  8
LAYER_1
 62
    30
100
AcDbSpline
210
0.0
220
0.0
230
1.0
 70
    11
 71
     3
 72
    17
 73
    13
 74
     0
 42
0.0000000001
 43
0.0000000001
 40
0.0
 40
0.0
 40
0.0
 40
0.0
 40
1.0
 40
1.0
 40
1.0
 40
2.0
 40
2.0
 40
2.0
 40
3.0
 40
3.0
 40
3.0
 40
4.0
 40
4.0
 40
4.0
 40
4.0
 10
291.3703287031991
 20
-293.2248236029091
 30
0.0
 10
291.3703287031991
 20
-295.9860676343368
 30
0.0
 10
289.1317056568838
 20
-298.2246906806522
 30
0.0
 10
286.370461625456
 20
-298.2246906806522
 30
0.0
 10
283.6088730844797
 20
-298.2246906806522
 30
0.0
 10
281.3702500381644
 20
-295.9860676343368
 30
0.0
 10
281.3702500381644
 20
-293.2248236029091
 30
0.0
 10
281.3702500381644
 20
-290.4635795714813
 30
0.0
 10
283.6088730844797
 20
-288.224956525166
 30
0.0
 10
286.370461625456
 20
-288.224956525166
 30
0.0
 10
289.1317056568838
 20
-288.224956525166
 30
0.0
 10
291.3703287031991
 20
-290.4635795714813
 30
0.0
 10
291.3703287031991
 20
-293.2248236029091
 30
0.0
  0
SPLINE
  5
4B
330
1F
100
AcDbEntity
  8
LAYER_1
 62
    30
100
AcDbSpline
210
0.0
220
0.0
230
1.0
 70
    11
 71
     3
 72
    17
 73
    13
 74
     0
 42
0.0000000001
 43
0.0000000001
 40
0.0
 40
0.0
 40
0.0
 40
0.0
 40
1.0
 40
1.0
 40
1.0
 40
2.0
 40
2.0
 40
2.0
 40
3.0
 40
3.0
 40
3.0
 40
4.0
 40
4.0
 40
4.0
 40
4.0
 10
243.3698133072131
 20
-258.2243760205134
 30
0.0
 10
243.3698133072131
 20
-260.9852755423926
 30
0.0
 10
241.1311902608978
 20
-263.2238985887079
 30
0.0
 10
238.36994622947
 20
-263.2238985887079
 30
0.0
 10
235.6083576884938
 20
-263.2238985887079
 30
0.0
 10
233.3697346421784
 20
-260.9852755423926
 30
0.0
 10
233.3697346421784
 20
-258.2243760205134
 30
0.0
 10
233.3697346421784
 20
-255.4627874795371
 30
0.0
 10
235.6083576884938
 20
-253.2241644332217
 30
0.0
 10
238.36994622947
 20
-253.2241644332217
 30
0.0
 10
241.1311902608978
 20
-253.2241644332217
 30
0.0
 10
243.3698133072131
 20
-255.4627874795371
 30
0.0
 10
243.3698133072131
 20
-258.2243760205134
 30
0.0
  0
POLYLINE
  5
4C
330
1F
100
AcDbEntity
  8
LAYER_1
 62
    30
100
AcDb2dPolyline
 66
     1
 10
0.0
 20
0.0
 30
0.0
  0
VERTEX
  5
4D
330
4C
100
AcDbEntity
  8
LAYER_1
 62
    30
100
AcDbVertex
100
AcDb2dVertex
 10
292.3704399225671
 20
-302.8673013565748
 30
0.0
  0
VERTEX
  5
4E
330
4C
100
AcDbEntity
  8
LAYER_1
 62
    30
100
AcDbVertex
100
AcDb2dVertex
 10
207.4388454342514
 20
-302.8673013565748
 30
0.0
  0
VERTEX
  5
4F
330
4C
100
AcDbEntity
  8
LAYER_1
 62
    30
100
AcDbVertex
100
AcDb2dVertex
 10
207.4388454342514
 20
-247.2538139572838
 30
0.0
  0
VERTEX
  5
50
330
4C
100
AcDbEntity
  8
LAYER_1
 62
    30
100
AcDbVertex
100
AcDb2dVertex
 10
292.3704399225671
 20
-247.2538139572838
 30
0.0
  0
VERTEX
  5
51
330
4C
100
AcDbEntity
  8
LAYER_1
 62
    30
100
AcDbVertex
100
AcDb2dVertex
 10
292.3704399225671
 20
-302.8673013565748
 30
0.0
  0
SEQEND
  5
52
330
4C
100
AcDbEntity
  8
LAYER_1
  0
INSERT
  5
54
330
1F
100
AcDbEntity
  8
LAYER_1
100
AcDbBlockReference
  2
BLOCK_2
 10
0.0
 20
0.0
 30
0.0
  0
POLYLINE
  5
75
330
1F
100
AcDbEntity
  8
LAYER_1
 62
   250
100
AcDb2dPolyline
 66
     1
 10
0.0
 20
0.0
 30
0.0
  0
VERTEX
  5
76
330
75
100
AcDbEntity
  8
LAYER_1
 62
   250
100
AcDbVertex
100
AcDb2dVertex
 10
292.9464598877009
 20
-312.1979979688255
 30
0.0
  0
VERTEX
  5
77
330
75
100
AcDbEntity
  8
LAYER_1
 62
   250
100
AcDbVertex
100
AcDb2dVertex
 10
286.9461370810412
 20
-312.1979979688255
 30
0.0
  0
VERTEX
  5
78
330
75
100
AcDbEntity
  8
LAYER_1
 62
   250
100
AcDbVertex
100
AcDb2dVertex
 10
286.9461370810412
 20
-309.1980088202699
 30
0.0
  0
VERTEX
  5
79
330
75
100
AcDbEntity
  8
LAYER_1
 62
   250
100
AcDbVertex
100
AcDb2dVertex
 10
292.9464598877009
 20
-309.1980088202699
 30
0.0
  0
VERTEX
  5
7A
330
75
100
AcDbEntity
  8
LAYER_1
 62
   250
100
AcDbVertex
100
AcDb2dVertex
 10
292.9464598877009
 20
-312.1979979688255
 30
0.0
  0
SEQEND
  5
7B
330
75
100
AcDbEntity
  8
LAYER_1
  0
POLYLINE
  5
7C
330
1F
100
AcDbEntity
  8
LAYER_1
 62
   250
100
AcDb2dPolyline
 66
     1
 10
0.0
 20
0.0
 30
0.0
  0
VERTEX
  5
7D
330
7C
100
AcDbEntity
  8
LAYER_1
 62
   250
100
AcDbVertex
100
AcDb2dVertex
 10
298.4462103203537
 20
-303.6982583876171
 30
0.0
  0
VERTEX
  5
7E
330
7C
100
AcDbEntity
  8
LAYER_1
 62
   250
100
AcDbVertex
100
AcDb2dVertex
 10
298.4462103203537
 20
-297.698280090506
 30
0.0
  0
VERTEX
  5
7F
330
7C
100
AcDbEntity
  8
LAYER_1
 62
   250
100
AcDbVertex
100
AcDb2dVertex
 10
301.4461994689093
 20
-297.698280090506
 30
0.0
  0
VERTEX
  5
80
330
7C
100
AcDbEntity
  8
LAYER_1
 62
   250
100
AcDbVertex
100
AcDb2dVertex
 10
301.4461994689093
 20
-303.6982583876171
 30
0.0
  0
VERTEX
  5
81
330
7C
100
AcDbEntity
  8
LAYER_1
 62
   250
100
AcDbVertex
100
AcDb2dVertex
 10
298.4462103203537
 20
-303.6982583876171
 30
0.0
  0
SEQEND
  5
82
330
7C
100
AcDbEntity
  8
LAYER_1
  0
POLYLINE
  5
83
330
1F
100
AcDbEntity
  8
LAYER_1
 62
   250
100
AcDb2dPolyline
 66
     1
 10
0.0
 20
0.0
 30
0.0
  0
VERTEX
  5
84
330
83
100
AcDbEntity
  8
LAYER_1
 62
   250
100
AcDbVertex
100
AcDb2dVertex
 10
298.4462103203537
 20
-283.6981010575477
 30
0.0
  0
VERTEX
  5
85
330
83
100
AcDbEntity
  8
LAYER_1
 62
   250
100
AcDbVertex
100
AcDb2dVertex
 10
298.4462103203537
 20
-277.6981227604366
 30
0.0
  0
VERTEX
  5
86
330
83
100
AcDbEntity
  8
LAYER_1
 62
   250
100
AcDbVertex
100
AcDb2dVertex
 10
301.4461994689093
 20
-277.6981227604366
 30
0.0
  0
VERTEX
  5
87
330
83
100
AcDbEntity
  8
LAYER_1
 62
   250
100
AcDbVertex
100
AcDb2dVertex
 10
301.4461994689093
 20
-283.6981010575477
 30
0.0
  0
VERTEX
  5
88
330
83
100
AcDbEntity
  8
LAYER_1
 62
   250
100
AcDbVertex
100
AcDb2dVertex
 10
298.4462103203537
 20
-283.6981010575477
 30
0.0
  0
SEQEND
  5
89
330
83
100
AcDbEntity
  8
LAYER_1
  0
POLYLINE
  5
8A
330
1F
100
AcDbEntity
  8
LAYER_1
 62
   250
100
AcDb2dPolyline
 66
     1
 10
0.0
 20
0.0
 30
0.0
  0
VERTEX
  5
8B
330
8A
100
AcDbEntity
  8
LAYER_1
 62
   250
100
AcDbVertex
100
AcDb2dVertex
 10
298.4462103203537
 20
-263.6979437274783
 30
0.0
  0
VERTEX
  5
8C
330
8A
100
AcDbEntity
  8
LAYER_1
 62
   250
100
AcDbVertex
100
AcDb2dVertex
 10
298.4462103203537
 20
-257.6979654303672
 30
0.0
  0
VERTEX
  5
8D
330
8A
100
AcDbEntity
  8
LAYER_1
 62
   250
100
AcDbVertex
100
AcDb2dVertex
 10
301.4461994689093
 20
-257.6979654303672
 30
0.0
  0
VERTEX
  5
8E
330
8A
100
AcDbEntity
  8
LAYER_1
 62
   250
100
AcDbVertex
100
AcDb2dVertex
 10
301.4461994689093
 20
-263.6979437274783
 30
0.0
  0
VERTEX
  5
8F
330
8A
100
AcDbEntity
  8
LAYER_1
 62
   250
100
AcDbVertex
100
AcDb2dVertex
 10
298.4462103203537
 20
-263.6979437274783
 30
0.0
  0
SEQEND
  5
90
330
8A
100
AcDbEntity
  8
LAYER_1
  0
POLYLINE
  5
91
330
1F
100
AcDbEntity
  8
LAYER_1
 62
   250
100
AcDb2dPolyline
 66
     1
 10
0.0
 20
0.0
 30
0.0
  0
VERTEX
  5
92
330
91
100
AcDbEntity
  8
LAYER_1
 62
   250
100
AcDbVertex
100
AcDb2dVertex
 10
298.4462103203537
 20
-243.6979586521832
 30
0.0
  0
VERTEX
  5
93
330
91
100
AcDbEntity
  8
LAYER_1
 62
   250
100
AcDbVertex
100
AcDb2dVertex
 10
298.4462103203537
 20
-237.6976358455235
 30
0.0
  0
VERTEX
  5
94
330
91
100
AcDbEntity
  8
LAYER_1
 62
   250
100
AcDbVertex
100
AcDb2dVertex
 10
301.4461994689093
 20
-237.6976358455235
 30
0.0
  0
VERTEX
  5
95
330
91
100
AcDbEntity
  8
LAYER_1
 62
   250
100
AcDbVertex
100
AcDb2dVertex
 10
301.4461994689093
 20
-243.6979586521832
 30
0.0
  0
VERTEX
  5
96
330
91
100
AcDbEntity
  8
LAYER_1
 62
   250
100
AcDbVertex
100
AcDb2dVertex
 10
298.4462103203537
 20
-243.6979586521832
 30
0.0
  0
SEQEND
  5
97
330
91
100
AcDbEntity
  8
LAYER_1
  0
POLYLINE
  5
98
330
1F
100
AcDbEntity
  8
LAYER_1
 62
   250
100
AcDb2dPolyline
 66
     1
 10
0.0
 20
0.0
 30
0.0
  0
VERTEX
  5
99
330
98
100
AcDbEntity
  8
LAYER_1
 62
   250
100
AcDbVertex
100
AcDb2dVertex
 10
278.4460529902843
 20
-243.6979586521832
 30
0.0
  0
VERTEX
  5
9A
330
98
100
AcDbEntity
  8
LAYER_1
 62
   250
100
AcDbVertex
100
AcDb2dVertex
 10
278.4460529902843
 20
-237.6976358455235
 30
0.0
  0
VERTEX
  5
9B
330
98
100
AcDbEntity
  8
LAYER_1
 62
   250
100
AcDbVertex
100
AcDb2dVertex
 10
281.4460421388399
 20
-237.6976358455235
 30
0.0
  0
VERTEX
  5
9C
330
98
100
AcDbEntity
  8
LAYER_1
 62
   250
100
AcDbVertex
100
AcDb2dVertex
 10
281.4460421388399
 20
-243.6979586521832
 30
0.0
  0
VERTEX
  5
9D
330
98
100
AcDbEntity
  8
LAYER_1
 62
   250
100
AcDbVertex
100
AcDb2dVertex
 10
278.4460529902843
 20
-243.6979586521832
 30
0.0
  0
SEQEND
  5
9E
330
98
100
AcDbEntity
  8
LAYER_1
  0
POLYLINE
  5
9F
330
1F
100
AcDbEntity
  8
LAYER_1
 62
   250
100
AcDb2dPolyline
 66
     1
 10
0.0
 20
0.0
 30
0.0
  0
VERTEX
  5
A0
330
9F
100
AcDbEntity
  8
LAYER_1
 62
   250
100
AcDbVertex
100
AcDb2dVertex
 10
258.4458956602149
 20
-243.6979586521832
 30
0.0
  0
VERTEX
  5
A1
330
9F
100
AcDbEntity
  8
LAYER_1
 62
   250
100
AcDbVertex
100
AcDb2dVertex
 10
258.4458956602149
 20
-237.6976358455235
 30
0.0
  0
VERTEX
  5
A2
330
9F
100
AcDbEntity
  8
LAYER_1
 62
   250
100
AcDbVertex
100
AcDb2dVertex
 10
261.4458848087705
 20
-237.6976358455235
 30
0.0
  0
VERTEX
  5
A3
330
9F
100
AcDbEntity
  8
LAYER_1
 62
   250
100
AcDbVertex
100
AcDb2dVertex
 10
261.4458848087705
 20
-243.6979586521832
 30
0.0
  0
VERTEX
  5
A4
330
9F
100
AcDbEntity
  8
LAYER_1
 62
   250
100
AcDbVertex
100
AcDb2dVertex
 10
258.4458956602149
 20
-243.6979586521832
 30
0.0
  0
SEQEND
  5
A5
330
9F
100
AcDbEntity
  8
LAYER_1
  0
POLYLINE
  5
A6
330
1F
100
AcDbEntity
  8
LAYER_1
 62
   250
100
AcDb2dPolyline
 66
     1
 10
0.0
 20
0.0
 30
0.0
  0
VERTEX
  5
A7
330
A6
100
AcDbEntity
  8
LAYER_1
 62
   250
100
AcDbVertex
100
AcDb2dVertex
 10
238.4457383301455
 20
-243.6979586521832
 30
0.0
  0
VERTEX
  5
A8
330
A6
100
AcDbEntity
  8
LAYER_1
 62
   250
100
AcDbVertex
100
AcDb2dVertex
 10
238.4457383301455
 20
-237.6976358455235
 30
0.0
  0
VERTEX
  5
A9
330
A6
100
AcDbEntity
  8
LAYER_1
 62
   250
100
AcDbVertex
100
AcDb2dVertex
 10
241.4457274787011
 20
-237.6976358455235
 30
0.0
  0
VERTEX
  5
AA
330
A6
100
AcDbEntity
  8
LAYER_1
 62
   250
100
AcDbVertex
100
AcDb2dVertex
 10
241.4457274787011
 20
-243.6979586521832
 30
0.0
  0
VERTEX
  5
AB
330
A6
100
AcDbEntity
  8
LAYER_1
 62
   250
100
AcDbVertex
100
AcDb2dVertex
 10
238.4457383301455
 20
-243.6979586521832
 30
0.0
  0
SEQEND
  5
AC
330
A6
100
AcDbEntity
  8
LAYER_1
  0
POLYLINE
  5
AD
330
1F
100
AcDbEntity
  8
LAYER_1
 62
   250
100
AcDb2dPolyline
 66
     1
 10
0.0
 20
0.0
 30
0.0
  0
VERTEX
  5
AE
330
AD
100
AcDbEntity
  8
LAYER_1
 62
   250
100
AcDbVertex
100
AcDb2dVertex
 10
218.4455810000761
 20
-243.6979586521832
 30
0.0
  0
VERTEX
  5
AF
330
AD
100
AcDbEntity
  8
LAYER_1
 62
   250
100
AcDbVertex
100
AcDb2dVertex
 10
218.4455810000761
 20
-237.6976358455235
 30
0.0
  0
VERTEX
  5
B0
330
AD
100
AcDbEntity
  8
LAYER_1
 62
   250
100
AcDbVertex
100
AcDb2dVertex
 10
221.4455701486317
 20
-237.6976358455235
 30
0.0
  0
VERTEX
  5
B1
330
AD
100
AcDbEntity
  8
LAYER_1
 62
   250
100
AcDbVertex
100
AcDb2dVertex
 10
221.4455701486317
 20
-243.6979586521832
 30
0.0
  0
VERTEX
  5
B2
330
AD
100
AcDbEntity
  8
LAYER_1
 62
   250
100
AcDbVertex
100
AcDb2dVertex
 10
218.4455810000761
 20
-243.6979586521832
 30
0.0
  0
SEQEND
  5
B3
330
AD
100
AcDbEntity
  8
LAYER_1
  0
POLYLINE
  5
B4
330
1F
100
AcDbEntity
  8
LAYER_1
 62
   250
100
AcDb2dPolyline
 66
     1
 10
0.0
 20
0.0
 30
0.0
  0
VERTEX
  5
B5
330
B4
100
AcDbEntity
  8
LAYER_1
 62
   250
100
AcDbVertex
100
AcDb2dVertex
 10
272.9463025576315
 20
-312.1979979688255
 30
0.0
  0
VERTEX
  5
B6
330
B4
100
AcDbEntity
  8
LAYER_1
 62
   250
100
AcDbVertex
100
AcDb2dVertex
 10
266.9459797509718
 20
-312.1979979688255
 30
0.0
  0
VERTEX
  5
B7
330
B4
100
AcDbEntity
  8
LAYER_1
 62
   250
100
AcDbVertex
100
AcDb2dVertex
 10
266.9459797509718
 20
-309.1980088202699
 30
0.0
  0
VERTEX
  5
B8
330
B4
100
AcDbEntity
  8
LAYER_1
 62
   250
100
AcDbVertex
100
AcDb2dVertex
 10
272.9463025576315
 20
-309.1980088202699
 30
0.0
  0
VERTEX
  5
B9
330
B4
100
AcDbEntity
  8
LAYER_1
 62
   250
100
AcDbVertex
100
AcDb2dVertex
 10
272.9463025576315
 20
-312.1979979688255
 30
0.0
  0
SEQEND
  5
BA
330
B4
100
AcDbEntity
  8
LAYER_1
  0
POLYLINE
  5
BB
330
1F
100
AcDbEntity
  8
LAYER_1
 62
   250
100
AcDb2dPolyline
 66
     1
 10
0.0
 20
0.0
 30
0.0
  0
VERTEX
  5
BC
330
BB
100
AcDbEntity
  8
LAYER_1
 62
   250
100
AcDbVertex
100
AcDb2dVertex
 10
252.9461452275621
 20
-312.1979979688255
 30
0.0
  0
VERTEX
  5
BD
330
BB
100
AcDbEntity
  8
LAYER_1
 62
   250
100
AcDbVertex
100
AcDb2dVertex
 10
246.9458224209024
 20
-312.1979979688255
 30
0.0
  0
VERTEX
  5
BE
330
BB
100
AcDbEntity
  8
LAYER_1
 62
   250
100
AcDbVertex
100
AcDb2dVertex
 10
246.9458224209024
 20
-309.1980088202699
 30
0.0
  0
VERTEX
  5
BF
330
BB
100
AcDbEntity
  8
LAYER_1
 62
   250
100
AcDbVertex
100
AcDb2dVertex
 10
252.9461452275621
 20
-309.1980088202699
 30
0.0
  0
VERTEX
  5
C0
330
BB
100
AcDbEntity
  8
LAYER_1
 62
   250
100
AcDbVertex
100
AcDb2dVertex
 10
252.9461452275621
 20
-312.1979979688255
 30
0.0
  0
SEQEND
  5
C1
330
BB
100
AcDbEntity
  8
LAYER_1
  0
POLYLINE
  5
C2
330
1F
100
AcDbEntity
  8
LAYER_1
 62
   250
100
AcDb2dPolyline
 66
     1
 10
0.0
 20
0.0
 30
0.0
  0
VERTEX
  5
C3
330
C2
100
AcDbEntity
  8
LAYER_1
 62
   250
100
AcDbVertex
100
AcDb2dVertex
 10
232.9459878974927
 20
-312.1979979688255
 30
0.0
  0
VERTEX
  5
C4
330
C2
100
AcDbEntity
  8
LAYER_1
 62
   250
100
AcDbVertex
100
AcDb2dVertex
 10
226.945665090833
 20
-312.1979979688255
 30
0.0
  0
VERTEX
  5
C5
330
C2
100
AcDbEntity
  8
LAYER_1
 62
   250
100
AcDbVertex
100
AcDb2dVertex
 10
226.945665090833
 20
-309.1980088202699
 30
0.0
  0
VERTEX
  5
C6
330
C2
100
AcDbEntity
  8
LAYER_1
 62
   250
100
AcDbVertex
100
AcDb2dVertex
 10
232.9459878974927
 20
-309.1980088202699
 30
0.0
  0
VERTEX
  5
C7
330
C2
100
AcDbEntity
  8
LAYER_1
 62
   250
100
AcDbVertex
100
AcDb2dVertex
 10
232.9459878974927
 20
-312.1979979688255
 30
0.0
  0
SEQEND
  5
C8
330
C2
100
AcDbEntity
  8
LAYER_1
  0
POLYLINE
  5
C9
330
1F
100
AcDbEntity
  8
LAYER_1
 62
   250
100
AcDb2dPolyline
 66
     1
 10
0.0
 20
0.0
 30
0.0
  0
VERTEX
  5
CA
330
C9
100
AcDbEntity
  8
LAYER_1
 62
   250
100
AcDbVertex
100
AcDb2dVertex
 10
212.9458305674233
 20
-312.1979979688255
 30
0.0
  0
VERTEX
  5
CB
330
C9
100
AcDbEntity
  8
LAYER_1
 62
   250
100
AcDbVertex
100
AcDb2dVertex
 10
206.9455077607636
 20
-312.1979979688255
 30
0.0
  0
VERTEX
  5
CC
330
C9
100
AcDbEntity
  8
LAYER_1
 62
   250
100
AcDbVertex
100
AcDb2dVertex
 10
206.9455077607636
 20
-309.1980088202699
 30
0.0
  0
VERTEX
  5
CD
330
C9
100
AcDbEntity
  8
LAYER_1
 62
   250
100
AcDbVertex
100
AcDb2dVertex
 10
212.9458305674233
 20
-309.1980088202699
 30
0.0
  0
VERTEX
  5
CE
330
C9
100
AcDbEntity
  8
LAYER_1
 62
   250
100
AcDbVertex
100
AcDb2dVertex
 10
212.9458305674233
 20
-312.1979979688255
 30
0.0
  0
SEQEND
  5
CF
330
C9
100
AcDbEntity
  8
LAYER_1
  0
SPLINE
  5
D0
330
1F
100
AcDbEntity
  8
LAYER_1
 62
   250
100
AcDbSpline
210
0.0
220
0.0
230
1.0
 70
    11
 71
     3
 72
    17
 73
    13
 74
     0
 42
0.0000000001
 43
0.0000000001
 40
0.0
 40
0.0
 40
0.0
 40
0.0
 40
1.0
 40
1.0
 40
1.0
 40
2.0
 40
2.0
 40
2.0
 40
3.0
 40
3.0
 40
3.0
 40
4.0
 40
4.0
 40
4.0
 40
4.0
 10
282.9456922035691
 20
-230.6973740742701
 30
0.0
 10
282.9456922035691
 20
-232.354292747901
 30
0.0
 10
281.6027939834187
 20
-233.6973632228257
 30
0.0
 10
279.9457030550136
 20
-233.6973632228257
 30
0.0
 10
278.288956636157
 20
-233.6973632228257
 30
0.0
 10
276.945713906458
 20
-232.354292747901
 30
0.0
 10
276.945713906458
 20
-230.6973740742701
 30
0.0
 10
276.945713906458
 20
-229.0404554006392
 30
0.0
 10
278.288956636157
 20
-227.6973849257145
 30
0.0
 10
279.9457030550136
 20
-227.6973849257145
 30
0.0
 10
281.6027939834187
 20
-227.6973849257145
 30
0.0
 10
282.9456922035691
 20
-229.0404554006392
 30
0.0
 10
282.9456922035691
 20
-230.6973740742701
 30
0.0
  0
SPLINE
  5
D1
330
1F
100
AcDbEntity
  8
LAYER_1
 62
   250
100
AcDbSpline
210
0.0
220
0.0
230
1.0
 70
    11
 71
     3
 72
    17
 73
    13
 74
     0
 42
0.0000000001
 43
0.0000000001
 40
0.0
 40
0.0
 40
0.0
 40
0.0
 40
1.0
 40
1.0
 40
1.0
 40
2.0
 40
2.0
 40
2.0
 40
3.0
 40
3.0
 40
3.0
 40
4.0
 40
4.0
 40
4.0
 40
4.0
 10
262.9455348734998
 20
-230.6973740742701
 30
0.0
 10
262.9455348734998
 20
-232.354292747901
 30
0.0
 10
261.6026366533494
 20
-233.6973632228257
 30
0.0
 10
259.9455457249442
 20
-233.6973632228257
 30
0.0
 10
258.2887993060875
 20
-233.6973632228257
 30
0.0
 10
256.9455565763886
 20
-232.354292747901
 30
0.0
 10
256.9455565763886
 20
-230.6973740742701
 30
0.0
 10
256.9455565763886
 20
-229.0404554006392
 30
0.0
 10
258.2887993060875
 20
-227.6973849257145
 30
0.0
 10
259.9455457249442
 20
-227.6973849257145
 30
0.0
 10
261.6026366533494
 20
-227.6973849257145
 30
0.0
 10
262.9455348734998
 20
-229.0404554006392
 30
0.0
 10
262.9455348734998
 20
-230.6973740742701
 30
0.0
  0
SPLINE
  5
D2
330
1F
100
AcDbEntity
  8
LAYER_1
 62
   250
100
AcDbSpline
210
0.0
220
0.0
230
1.0
 70
    11
 71
     3
 72
    17
 73
    13
 74
     0
 42
0.0000000001
 43
0.0000000001
 40
0.0
 40
0.0
 40
0.0
 40
0.0
 40
1.0
 40
1.0
 40
1.0
 40
2.0
 40
2.0
 40
2.0
 40
3.0
 40
3.0
 40
3.0
 40
4.0
 40
4.0
 40
4.0
 40
4.0
 10
242.9453775434303
 20
-230.6973740742701
 30
0.0
 10
242.9453775434303
 20
-232.354292747901
 30
0.0
 10
241.6024793232799
 20
-233.6973632228257
 30
0.0
 10
239.9453883948748
 20
-233.6973632228257
 30
0.0
 10
238.2886419760181
 20
-233.6973632228257
 30
0.0
 10
236.9453992463192
 20
-232.354292747901
 30
0.0
 10
236.9453992463192
 20
-230.6973740742701
 30
0.0
 10
236.9453992463192
 20
-229.0404554006392
 30
0.0
 10
238.2886419760181
 20
-227.6973849257145
 30
0.0
 10
239.9453883948748
 20
-227.6973849257145
 30
0.0
 10
241.6024793232799
 20
-227.6973849257145
 30
0.0
 10
242.9453775434303
 20
-229.0404554006392
 30
0.0
 10
242.9453775434303
 20
-230.6973740742701
 30
0.0
  0
SPLINE
  5
D3
330
1F
100
AcDbEntity
  8
LAYER_1
 62
   250
100
AcDbSpline
210
0.0
220
0.0
230
1.0
 70
    11
 71
     3
 72
    17
 73
    13
 74
     0
 42
0.0000000001
 43
0.0000000001
 40
0.0
 40
0.0
 40
0.0
 40
0.0
 40
1.0
 40
1.0
 40
1.0
 40
2.0
 40
2.0
 40
2.0
 40
3.0
 40
3.0
 40
3.0
 40
4.0
 40
4.0
 40
4.0
 40
4.0
 10
222.9452202133609
 20
-230.6973740742701
 30
0.0
 10
222.9452202133609
 20
-232.354292747901
 30
0.0
 10
221.6023219932106
 20
-233.6973632228257
 30
0.0
 10
219.9452310648054
 20
-233.6973632228257
 30
0.0
 10
218.2884846459487
 20
-233.6973632228257
 30
0.0
 10
216.9452419162498
 20
-232.354292747901
 30
0.0
 10
216.9452419162498
 20
-230.6973740742701
 30
0.0
 10
216.9452419162498
 20
-229.0404554006392
 30
0.0
 10
218.2884846459487
 20
-227.6973849257145
 30
0.0
 10
219.9452310648054
 20
-227.6973849257145
 30
0.0
 10
221.6023219932106
 20
-227.6973849257145
 30
0.0
 10
222.9452202133609
 20
-229.0404554006392
 30
0.0
 10
222.9452202133609
 20
-230.6973740742701
 30
0.0
  0
POLYLINE
  5
D4
330
1F
100
AcDbEntity
  8
LAYER_1
 62
   250
100
AcDb2dPolyline
 66
     1
 10
0.0
 20
0.0
 30
0.0
  0
VERTEX
  5
D5
330
D4
100
AcDbEntity
  8
LAYER_1
 62
   250
100
AcDbVertex
100
AcDb2dVertex
 10
292.9464598877009
 20
-232.1975409033222
 30
0.0
  0
VERTEX
  5
D6
330
D4
100
AcDbEntity
  8
LAYER_1
 62
   250
100
AcDbVertex
100
AcDb2dVertex
 10
286.9461370810412
 20
-232.1975409033222
 30
0.0
  0
VERTEX
  5
D7
330
D4
100
AcDbEntity
  8
LAYER_1
 62
   250
100
AcDbVertex
100
AcDb2dVertex
 10
286.9461370810412
 20
-229.1975517547666
 30
0.0
  0
VERTEX
  5
D8
330
D4
100
AcDbEntity
  8
LAYER_1
 62
   250
100
AcDbVertex
100
AcDb2dVertex
 10
292.9464598877009
 20
-229.1975517547666
 30
0.0
  0
VERTEX
  5
D9
330
D4
100
AcDbEntity
  8
LAYER_1
 62
   250
100
AcDbVertex
100
AcDb2dVertex
 10
292.9464598877009
 20
-232.1975409033222
 30
0.0
  0
SEQEND
  5
DA
330
D4
100
AcDbEntity
  8
LAYER_1
  0
POLYLINE
  5
DB
330
1F
100
AcDbEntity
  8
LAYER_1
 62
   250
100
AcDb2dPolyline
 66
     1
 10
0.0
 20
0.0
 30
0.0
  0
VERTEX
  5
DC
330
DB
100
AcDbEntity
  8
LAYER_1
 62
   250
100
AcDbVertex
100
AcDb2dVertex
 10
272.9463025576315
 20
-232.1975409033222
 30
0.0
  0
VERTEX
  5
DD
330
DB
100
AcDbEntity
  8
LAYER_1
 62
   250
100
AcDbVertex
100
AcDb2dVertex
 10
266.9459797509718
 20
-232.1975409033222
 30
0.0
  0
VERTEX
  5
DE
330
DB
100
AcDbEntity
  8
LAYER_1
 62
   250
100
AcDbVertex
100
AcDb2dVertex
 10
266.9459797509718
 20
-229.1975517547666
 30
0.0
  0
VERTEX
  5
DF
330
DB
100
AcDbEntity
  8
LAYER_1
 62
   250
100
AcDbVertex
100
AcDb2dVertex
 10
272.9463025576315
 20
-229.1975517547666
 30
0.0
  0
VERTEX
  5
E0
330
DB
100
AcDbEntity
  8
LAYER_1
 62
   250
100
AcDbVertex
100
AcDb2dVertex
 10
272.9463025576315
 20
-232.1975409033222
 30
0.0
  0
SEQEND
  5
E1
330
DB
100
AcDbEntity
  8
LAYER_1
  0
POLYLINE
  5
E2
330
1F
100
AcDbEntity
  8
LAYER_1
 62
   250
100
AcDb2dPolyline
 66
     1
 10
0.0
 20
0.0
 30
0.0
  0
VERTEX
  5
E3
330
E2
100
AcDbEntity
  8
LAYER_1
 62
   250
100
AcDbVertex
100
AcDb2dVertex
 10
252.9461452275621
 20
-232.1975409033222
 30
0.0
  0
VERTEX
  5
E4
330
E2
100
AcDbEntity
  8
LAYER_1
 62
   250
100
AcDbVertex
100
AcDb2dVertex
 10
246.9458224209024
 20
-232.1975409033222
 30
0.0
  0
VERTEX
  5
E5
330
E2
100
AcDbEntity
  8
LAYER_1
 62
   250
100
AcDbVertex
100
AcDb2dVertex
 10
246.9458224209024
 20
-229.1975517547666
 30
0.0
  0
VERTEX
  5
E6
330
E2
100
AcDbEntity
  8
LAYER_1
 62
   250
100
AcDbVertex
100
AcDb2dVertex
 10
252.9461452275621
 20
-229.1975517547666
 30
0.0
  0
VERTEX
  5
E7
330
E2
100
AcDbEntity
  8
LAYER_1
 62
   250
100
AcDbVertex
100
AcDb2dVertex
 10
252.9461452275621
 20
-232.1975409033222
 30
0.0
  0
SEQEND
  5
E8
330
E2
100
AcDbEntity
  8
LAYER_1
  0
POLYLINE
  5
E9
330
1F
100
AcDbEntity
  8
LAYER_1
 62
   250
100
AcDb2dPolyline
 66
     1
 10
0.0
 20
0.0
 30
0.0
  0
VERTEX
  5
EA
330
E9
100
AcDbEntity
  8
LAYER_1
 62
   250
100
AcDbVertex
100
AcDb2dVertex
 10
232.9459878974927
 20
-232.1975409033222
 30
0.0
  0
VERTEX
  5
EB
330
E9
100
AcDbEntity
  8
LAYER_1
 62
   250
100
AcDbVertex
100
AcDb2dVertex
 10
226.945665090833
 20
-232.1975409033222
 30
0.0
  0
VERTEX
  5
EC
330
E9
100
AcDbEntity
  8
LAYER_1
 62
   250
100
AcDbVertex
100
AcDb2dVertex
 10
226.945665090833
 20
-229.1975517547666
 30
0.0
  0
VERTEX
  5
ED
330
E9
100
AcDbEntity
  8
LAYER_1
 62
   250
100
AcDbVertex
100
AcDb2dVertex
 10
232.9459878974927
 20
-229.1975517547666
 30
0.0
  0
VERTEX
  5
EE
330
E9
100
AcDbEntity
  8
LAYER_1
 62
   250
100
AcDbVertex
100
AcDb2dVertex
 10
232.9459878974927
 20
-232.1975409033222
 30
0.0
  0
SEQEND
  5
EF
330
E9
100
AcDbEntity
  8
LAYER_1
  0
POLYLINE
  5
F0
330
1F
100
AcDbEntity
  8
LAYER_1
 62
   250
100
AcDb2dPolyline
 66
     1
 10
0.0
 20
0.0
 30
0.0
  0
VERTEX
  5
F1
330
F0
100
AcDbEntity
  8
LAYER_1
 62
   250
100
AcDbVertex
100
AcDb2dVertex
 10
212.9458305674233
 20
-232.1975409033222
 30
0.0
  0
VERTEX
  5
F2
330
F0
100
AcDbEntity
  8
LAYER_1
 62
   250
100
AcDbVertex
100
AcDb2dVertex
 10
206.9455077607636
 20
-232.1975409033222
 30
0.0
  0
VERTEX
  5
F3
330
F0
100
AcDbEntity
  8
LAYER_1
 62
   250
100
AcDbVertex
100
AcDb2dVertex
 10
206.9455077607636
 20
-229.1975517547666
 30
0.0
  0
VERTEX
  5
F4
330
F0
100
AcDbEntity
  8
LAYER_1
 62
   250
100
AcDbVertex
100
AcDb2dVertex
 10
212.9458305674233
 20
-229.1975517547666
 30
0.0
  0
VERTEX
  5
F5
330
F0
100
AcDbEntity
  8
LAYER_1
 62
   250
100
AcDbVertex
100
AcDb2dVertex
 10
212.9458305674233
 20
-232.1975409033222
 30
0.0
  0
SEQEND
  5
F6
330
F0
100
AcDbEntity
  8
LAYER_1
  0
POLYLINE
  5
F7
330
1F
100
AcDbEntity
  8
LAYER_1
 62
   250
100
AcDb2dPolyline
 66
     1
 10
0.0
 20
0.0
 30
0.0
  0
VERTEX
  5
F8
330
F7
100
AcDbEntity
  8
LAYER_1
 62
   250
100
AcDbVertex
100
AcDb2dVertex
 10
201.4464463472079
 20
-297.6986246000545
 30
0.0
  0
VERTEX
  5
F9
330
F7
100
AcDbEntity
  8
LAYER_1
 62
   250
100
AcDbVertex
100
AcDb2dVertex
 10
201.4464463472079
 20
-303.6989474067142
 30
0.0
  0
VERTEX
  5
FA
330
F7
100
AcDbEntity
  8
LAYER_1
 62
   250
100
AcDbVertex
100
AcDb2dVertex
 10
198.4464571986523
 20
-303.6989474067142
 30
0.0
  0
VERTEX
  5
FB
330
F7
100
AcDbEntity
  8
LAYER_1
 62
   250
100
AcDbVertex
100
AcDb2dVertex
 10
198.4464571986523
 20
-297.6986246000545
 30
0.0
  0
VERTEX
  5
FC
330
F7
100
AcDbEntity
  8
LAYER_1
 62
   250
100
AcDbVertex
100
AcDb2dVertex
 10
201.4464463472079
 20
-297.6986246000545
 30
0.0
  0
SEQEND
  5
FD
330
F7
100
AcDbEntity
  8
LAYER_1
  0
POLYLINE
  5
FE
330
1F
100
AcDbEntity
  8
LAYER_1
 62
   250
100
AcDb2dPolyline
 66
     1
 10
0.0
 20
0.0
 30
0.0
  0
VERTEX
  5
FF
330
FE
100
AcDbEntity
  8
LAYER_1
 62
   250
100
AcDbVertex
100
AcDb2dVertex
 10
201.4464463472079
 20
-237.6981526098463
 30
0.0
  0
VERTEX
  5
100
330
FE
100
AcDbEntity
  8
LAYER_1
 62
   250
100
AcDbVertex
100
AcDb2dVertex
 10
201.4464463472079
 20
-243.6984754165059
 30
0.0
  0
VERTEX
  5
101
330
FE
100
AcDbEntity
  8
LAYER_1
 62
   250
100
AcDbVertex
100
AcDb2dVertex
 10
198.4464571986523
 20
-243.6984754165059
 30
0.0
  0
VERTEX
  5
102
330
FE
100
AcDbEntity
  8
LAYER_1
 62
   250
100
AcDbVertex
100
AcDb2dVertex
 10
198.4464571986523
 20
-237.6981526098463
 30
0.0
  0
VERTEX
  5
103
330
FE
100
AcDbEntity
  8
LAYER_1
 62
   250
100
AcDbVertex
100
AcDb2dVertex
 10
201.4464463472079
 20
-237.6981526098463
 30
0.0
  0
SEQEND
  5
104
330
FE
100
AcDbEntity
  8
LAYER_1
  0
SPLINE
  5
105
330
1F
100
AcDbEntity
  8
LAYER_1
 62
   250
100
AcDbSpline
210
0.0
220
0.0
230
1.0
 70
    11
 71
     3
 72
    17
 73
    13
 74
     0
 42
0.0000000001
 43
0.0000000001
 40
0.0
 40
0.0
 40
0.0
 40
0.0
 40
1.0
 40
1.0
 40
1.0
 40
2.0
 40
2.0
 40
2.0
 40
3.0
 40
3.0
 40
3.0
 40
4.0
 40
4.0
 40
4.0
 40
4.0
 10
210.9471584216556
 20
-298.0607041355543
 30
0.0
 10
211.7755316310839
 20
-298.0607041355543
 30
0.0
 10
212.4471529959334
 20
-298.7321532456295
 30
0.0
 10
212.4471529959334
 20
-299.5606987098321
 30
0.0
 10
212.4471529959334
 20
-300.3892441740347
 30
0.0
 10
211.7755316310839
 20
-301.0606932841098
 30
0.0
 10
210.9471584216556
 20
-301.0606932841098
 30
0.0
 10
210.1187852122273
 20
-301.0606932841098
 30
0.0
 10
209.4471638473778
 20
-300.3892441740347
 30
0.0
 10
209.4471638473778
 20
-299.5606987098321
 30
0.0
 10
209.4471638473778
 20
-298.7321532456295
 30
0.0
 10
210.1187852122273
 20
-298.0607041355543
 30
0.0
 10
210.9471584216556
 20
-298.0607041355543
 30
0.0
  0
SPLINE
  5
106
330
1F
100
AcDbEntity
  8
LAYER_1
 62
   250
100
AcDbSpline
210
0.0
220
0.0
230
1.0
 70
    11
 71
     3
 72
    17
 73
    13
 74
     0
 42
0.0000000001
 43
0.0000000001
 40
0.0
 40
0.0
 40
0.0
 40
0.0
 40
1.0
 40
1.0
 40
1.0
 40
2.0
 40
2.0
 40
2.0
 40
3.0
 40
3.0
 40
3.0
 40
4.0
 40
4.0
 40
4.0
 40
4.0
 10
210.9471584216556
 20
-249.0604220297488
 30
0.0
 10
211.7755316310839
 20
-249.0604220297488
 30
0.0
 10
212.4471529959334
 20
-249.731871139824
 30
0.0
 10
212.4471529959334
 20
-250.5604166040266
 30
0.0
 10
212.4471529959334
 20
-251.3889620682291
 30
0.0
 10
211.7755316310839
 20
-252.0604111783043
 30
0.0
 10
210.9471584216556
 20
-252.0604111783043
 30
0.0
 10
210.1187852122273
 20
-252.0604111783043
 30
0.0
 10
209.4471638473778
 20
-251.3889620682291
 30
0.0
 10
209.4471638473778
 20
-250.5604166040266
 30
0.0
 10
209.4471638473778
 20
-249.731871139824
 30
0.0
 10
210.1187852122273
 20
-249.0604220297488
 30
0.0
 10
210.9471584216556
 20
-249.0604220297488
 30
0.0
  0
SPLINE
  5
107
330
1F
100
AcDbEntity
  8
LAYER_1
 62
   250
100
AcDbSpline
210
0.0
220
0.0
230
1.0
 70
    11
 71
     3
 72
    17
 73
    13
 74
     0
 42
0.0000000001
 43
0.0000000001
 40
0.0
 40
0.0
 40
0.0
 40
0.0
 40
1.0
 40
1.0
 40
1.0
 40
2.0
 40
2.0
 40
2.0
 40
3.0
 40
3.0
 40
3.0
 40
4.0
 40
4.0
 40
4.0
 40
4.0
 10
268.947580227902
 20
-298.0607041355543
 30
0.0
 10
269.7764702016531
 20
-298.0607041355543
 30
0.0
 10
270.4475748021798
 20
-298.7321532456295
 30
0.0
 10
270.4475748021798
 20
-299.5606987098321
 30
0.0
 10
270.4475748021798
 20
-300.3892441740347
 30
0.0
 10
269.7764702016531
 20
-301.0606932841098
 30
0.0
 10
268.947580227902
 20
-301.0606932841098
 30
0.0
 10
268.1193792732479
 20
-301.0606932841098
 30
0.0
 10
267.4475856536242
 20
-300.3892441740347
 30
0.0
 10
267.4475856536242
 20
-299.5606987098321
 30
0.0
 10
267.4475856536242
 20
-298.7321532456295
 30
0.0
 10
268.1193792732479
 20
-298.0607041355543
 30
0.0
 10
268.947580227902
 20
-298.0607041355543
 30
0.0
  0
SPLINE
  5
108
330
1F
100
AcDbEntity
  8
LAYER_1
 62
   250
100
AcDbSpline
210
0.0
220
0.0
230
1.0
 70
    11
 71
     3
 72
    17
 73
    13
 74
     0
 42
0.0000000001
 43
0.0000000001
 40
0.0
 40
0.0
 40
0.0
 40
0.0
 40
1.0
 40
1.0
 40
1.0
 40
2.0
 40
2.0
 40
2.0
 40
3.0
 40
3.0
 40
3.0
 40
4.0
 40
4.0
 40
4.0
 40
4.0
 10
268.947580227902
 20
-249.0604220297488
 30
0.0
 10
269.7764702016531
 20
-249.0604220297488
 30
0.0
 10
270.4475748021798
 20
-249.731871139824
 30
0.0
 10
270.4475748021798
 20
-250.5604166040266
 30
0.0
 10
270.4475748021798
 20
-251.3889620682291
 30
0.0
 10
269.7764702016531
 20
-252.0604111783043
 30
0.0
 10
268.947580227902
 20
-252.0604111783043
 30
0.0
 10
268.1193792732479
 20
-252.0604111783043
 30
0.0
 10
267.4475856536242
 20
-251.3889620682291
 30
0.0
 10
267.4475856536242
 20
-250.5604166040266
 30
0.0
 10
267.4475856536242
 20
-249.731871139824
 30
0.0
 10
268.1193792732479
 20
-249.0604220297488
 30
0.0
 10
268.947580227902
 20
-249.0604220297488
 30
0.0
  0
SPLINE
  5
109
330
1F
100
AcDbEntity
  8
LAYER_1
 62
     7
100
AcDbSpline
210
0.0
220
0.0
230
1.0
 70
    11
 71
     3
 72
    17
 73
    13
 74
     0
 42
0.0000000001
 43
0.0000000001
 40
0.0
 40
0.0
 40
0.0
 40
0.0
 40
1.0
 40
1.0
 40
1.0
 40
2.0
 40
2.0
 40
2.0
 40
3.0
 40
3.0
 40
3.0
 40
4.0
 40
4.0
 40
4.0
 40
4.0
 10
222.9502156018145
 20
-189.365357754308
 30
0.0
 10
222.9502156018145
 20
-187.7089558449998
 30
0.0
 10
221.6066283625671
 20
-186.3653686057524
 30
0.0
 10
219.9505709628075
 20
-186.3653686057524
 30
0.0
 10
218.2938245439508
 20
-186.3653686057524
 30
0.0
 10
216.9502373047034
 20
-187.7089558449998
 30
0.0
 10
216.9502373047034
 20
-189.365357754308
 30
0.0
 10
216.9502373047034
 20
-191.0231377018102
 30
0.0
 10
218.2938245439508
 20
-192.3653469028635
 30
0.0
 10
219.9505709628075
 20
-192.3653469028635
 30
0.0
 10
221.6066283625671
 20
-192.3653469028635
 30
0.0
 10
222.9502156018145
 20
-191.0231377018102
 30
0.0
 10
222.9502156018145
 20
-189.365357754308
 30
0.0
  0
POLYLINE
  5
10A
330
1F
100
AcDbEntity
  8
LAYER_1
 62
     7
100
AcDb2dPolyline
 66
     1
 10
0.0
 20
0.0
 30
0.0
  0
VERTEX
  5
10B
330
10A
100
AcDbEntity
  8
LAYER_1
 62
     7
100
AcDbVertex
100
AcDb2dVertex
 10
206.9498141301202
 20
-190.8644910547144
 30
0.0
  0
VERTEX
  5
10C
330
10A
100
AcDbEntity
  8
LAYER_1
 62
     7
100
AcDbVertex
100
AcDb2dVertex
 10
212.9497924272313
 20
-190.8646633094887
 30
0.0
  0
VERTEX
  5
10D
330
10A
100
AcDbEntity
  8
LAYER_1
 62
     7
100
AcDbVertex
100
AcDb2dVertex
 10
212.9497924272313
 20
-187.8646741609331
 30
0.0
  0
VERTEX
  5
10E
330
10A
100
AcDbEntity
  8
LAYER_1
 62
     7
100
AcDbVertex
100
AcDb2dVertex
 10
206.9498141301202
 20
-187.8645019061589
 30
0.0
  0
VERTEX
  5
10F
330
10A
100
AcDbEntity
  8
LAYER_1
 62
     7
100
AcDbVertex
100
AcDb2dVertex
 10
206.9498141301202
 20
-190.8644910547144
 30
0.0
  0
SEQEND
  5
110
330
10A
100
AcDbEntity
  8
LAYER_1
  0
POLYLINE
  5
111
330
1F
100
AcDbEntity
  8
LAYER_1
 62
     7
100
AcDb2dPolyline
 66
     1
 10
0.0
 20
0.0
 30
0.0
  0
VERTEX
  5
112
330
111
100
AcDbEntity
  8
LAYER_1
 62
     7
100
AcDbVertex
100
AcDb2dVertex
 10
226.9499714601896
 20
-190.8644910547144
 30
0.0
  0
VERTEX
  5
113
330
111
100
AcDbEntity
  8
LAYER_1
 62
     7
100
AcDbVertex
100
AcDb2dVertex
 10
232.9499497573007
 20
-190.8646633094887
 30
0.0
  0
VERTEX
  5
114
330
111
100
AcDbEntity
  8
LAYER_1
 62
     7
100
AcDbVertex
100
AcDb2dVertex
 10
232.9499497573007
 20
-187.8646741609331
 30
0.0
  0
VERTEX
  5
115
330
111
100
AcDbEntity
  8
LAYER_1
 62
     7
100
AcDbVertex
100
AcDb2dVertex
 10
226.9499714601896
 20
-187.8645019061589
 30
0.0
  0
VERTEX
  5
116
330
111
100
AcDbEntity
  8
LAYER_1
 62
     7
100
AcDbVertex
100
AcDb2dVertex
 10
226.9499714601896
 20
-190.8644910547144
 30
0.0
  0
SEQEND
  5
117
330
111
100
AcDbEntity
  8
LAYER_1
  0
POLYLINE
  5
118
330
1F
100
AcDbEntity
  8
LAYER_1
 62
     7
100
AcDb2dPolyline
 66
     1
 10
0.0
 20
0.0
 30
0.0
  0
VERTEX
  5
119
330
118
100
AcDbEntity
  8
LAYER_1
 62
     7
100
AcDbVertex
100
AcDb2dVertex
 10
198.4499022941375
 20
-196.3645859969158
 30
0.0
  0
VERTEX
  5
11A
330
118
100
AcDbEntity
  8
LAYER_1
 62
     7
100
AcDbVertex
100
AcDb2dVertex
 10
198.449557784589
 20
-202.3645642940269
 30
0.0
  0
VERTEX
  5
11B
330
118
100
AcDbEntity
  8
LAYER_1
 62
     7
100
AcDbVertex
100
AcDb2dVertex
 10
201.4495469331446
 20
-202.3645642940269
 30
0.0
  0
VERTEX
  5
11C
330
118
100
AcDbEntity
  8
LAYER_1
 62
     7
100
AcDbVertex
100
AcDb2dVertex
 10
201.4498914426931
 20
-196.3645859969158
 30
0.0
  0
VERTEX
  5
11D
330
118
100
AcDbEntity
  8
LAYER_1
 62
     7
100
AcDbVertex
100
AcDb2dVertex
 10
198.4499022941375
 20
-196.3645859969158
 30
0.0
  0
SEQEND
  5
11E
330
118
100
AcDbEntity
  8
LAYER_1
  0
SPLINE
  5
11F
330
1F
100
AcDbEntity
  8
LAYER_1
 62
     7
100
AcDbSpline
210
0.0
220
0.0
230
1.0
 70
    11
 71
     3
 72
    17
 73
    13
 74
     0
 42
0.0000000001
 43
0.0000000001
 40
0.0
 40
0.0
 40
0.0
 40
0.0
 40
1.0
 40
1.0
 40
1.0
 40
2.0
 40
2.0
 40
2.0
 40
3.0
 40
3.0
 40
3.0
 40
4.0
 40
4.0
 40
4.0
 40
4.0
 10
282.9505153372485
 20
-189.365357754308
 30
0.0
 10
282.9505153372485
 20
-187.7089558449998
 30
0.0
 10
281.606928098001
 20
-186.3653686057524
 30
0.0
 10
279.95121520779
 20
-186.3653686057524
 30
0.0
 10
278.2941242793848
 20
-186.3653686057524
 30
0.0
 10
276.9505370401374
 20
-187.7089558449998
 30
0.0
 10
276.9505370401374
 20
-189.365357754308
 30
0.0
 10
276.9505370401374
 20
-191.0231377018102
 30
0.0
 10
278.2941242793848
 20
-192.3653469028635
 30
0.0
 10
279.95121520779
 20
-192.3653469028635
 30
0.0
 10
281.606928098001
 20
-192.3653469028635
 30
0.0
 10
282.9505153372485
 20
-191.0231377018102
 30
0.0
 10
282.9505153372485
 20
-189.365357754308
 30
0.0
  0
SPLINE
  5
120
330
1F
100
AcDbEntity
  8
LAYER_1
 62
     7
100
AcDbSpline
210
0.0
220
0.0
230
1.0
 70
    11
 71
     3
 72
    17
 73
    13
 74
     0
 42
0.0000000001
 43
0.0000000001
 40
0.0
 40
0.0
 40
0.0
 40
0.0
 40
1.0
 40
1.0
 40
1.0
 40
2.0
 40
2.0
 40
2.0
 40
3.0
 40
3.0
 40
3.0
 40
4.0
 40
4.0
 40
4.0
 40
4.0
 10
302.9506726673179
 20
-189.365357754308
 30
0.0
 10
302.9506726673179
 20
-187.7089558449998
 30
0.0
 10
301.6070854280705
 20
-186.3653686057524
 30
0.0
 10
299.9513725378594
 20
-186.3653686057524
 30
0.0
 10
298.2942816094542
 20
-186.3653686057524
 30
0.0
 10
296.9506943702068
 20
-187.7089558449998
 30
0.0
 10
296.9506943702068
 20
-189.365357754308
 30
0.0
 10
296.9506943702068
 20
-191.0231377018102
 30
0.0
 10
298.2942816094542
 20
-192.3653469028635
 30
0.0
 10
299.9513725378594
 20
-192.3653469028635
 30
0.0
 10
301.6070854280705
 20
-192.3653469028635
 30
0.0
 10
302.9506726673179
 20
-191.0231377018102
 30
0.0
 10
302.9506726673179
 20
-189.365357754308
 30
0.0
  0
POLYLINE
  5
121
330
1F
100
AcDbEntity
  8
LAYER_1
 62
     7
100
AcDb2dPolyline
 66
     1
 10
0.0
 20
0.0
 30
0.0
  0
VERTEX
  5
122
330
121
100
AcDbEntity
  8
LAYER_1
 62
     7
100
AcDbVertex
100
AcDb2dVertex
 10
286.9502711956235
 20
-190.8646633094887
 30
0.0
  0
VERTEX
  5
123
330
121
100
AcDbEntity
  8
LAYER_1
 62
     7
100
AcDbVertex
100
AcDb2dVertex
 10
292.9502494927347
 20
-190.8646633094887
 30
0.0
  0
VERTEX
  5
124
330
121
100
AcDbEntity
  8
LAYER_1
 62
     7
100
AcDbVertex
100
AcDb2dVertex
 10
292.9502494927347
 20
-187.8646741609331
 30
0.0
  0
VERTEX
  5
125
330
121
100
AcDbEntity
  8
LAYER_1
 62
     7
100
AcDbVertex
100
AcDb2dVertex
 10
286.9502711956235
 20
-187.8646741609331
 30
0.0
  0
VERTEX
  5
126
330
121
100
AcDbEntity
  8
LAYER_1
 62
     7
100
AcDbVertex
100
AcDb2dVertex
 10
286.9502711956235
 20
-190.8646633094887
 30
0.0
  0
SEQEND
  5
127
330
121
100
AcDbEntity
  8
LAYER_1
  0
POLYLINE
  5
128
330
1F
100
AcDbEntity
  8
LAYER_1
 62
     7
100
AcDb2dPolyline
 66
     1
 10
0.0
 20
0.0
 30
0.0
  0
VERTEX
  5
129
330
128
100
AcDbEntity
  8
LAYER_1
 62
     7
100
AcDbVertex
100
AcDb2dVertex
 10
266.9501138655542
 20
-190.8646633094887
 30
0.0
  0
VERTEX
  5
12A
330
128
100
AcDbEntity
  8
LAYER_1
 62
     7
100
AcDbVertex
100
AcDb2dVertex
 10
272.9500921626653
 20
-190.8646633094887
 30
0.0
  0
VERTEX
  5
12B
330
128
100
AcDbEntity
  8
LAYER_1
 62
     7
100
AcDbVertex
100
AcDb2dVertex
 10
272.9500921626653
 20
-187.8646741609331
 30
0.0
  0
VERTEX
  5
12C
330
128
100
AcDbEntity
  8
LAYER_1
 62
     7
100
AcDbVertex
100
AcDb2dVertex
 10
266.9501138655542
 20
-187.8646741609331
 30
0.0
  0
VERTEX
  5
12D
330
128
100
AcDbEntity
  8
LAYER_1
 62
     7
100
AcDbVertex
100
AcDb2dVertex
 10
266.9501138655542
 20
-190.8646633094887
 30
0.0
  0
SEQEND
  5
12E
330
128
100
AcDbEntity
  8
LAYER_1
  0
POLYLINE
  5
12F
330
1F
100
AcDbEntity
  8
LAYER_1
 62
     7
100
AcDb2dPolyline
 66
     1
 10
0.0
 20
0.0
 30
0.0
  0
VERTEX
  5
130
330
12F
100
AcDbEntity
  8
LAYER_1
 62
     7
100
AcDbVertex
100
AcDb2dVertex
 10
298.4506889444846
 20
-196.3647582516901
 30
0.0
  0
VERTEX
  5
131
330
12F
100
AcDbEntity
  8
LAYER_1
 62
     7
100
AcDbVertex
100
AcDb2dVertex
 10
298.4506889444846
 20
-202.3647365488012
 30
0.0
  0
VERTEX
  5
132
330
12F
100
AcDbEntity
  8
LAYER_1
 62
     7
100
AcDbVertex
100
AcDb2dVertex
 10
301.4506780930401
 20
-202.3647365488012
 30
0.0
  0
VERTEX
  5
133
330
12F
100
AcDbEntity
  8
LAYER_1
 62
     7
100
AcDbVertex
100
AcDb2dVertex
 10
301.4506780930401
 20
-196.3647582516901
 30
0.0
  0
VERTEX
  5
134
330
12F
100
AcDbEntity
  8
LAYER_1
 62
     7
100
AcDbVertex
100
AcDb2dVertex
 10
298.4506889444846
 20
-196.3647582516901
 30
0.0
  0
SEQEND
  5
135
330
12F
100
AcDbEntity
  8
LAYER_1
  0
SPLINE
  5
136
330
1F
100
AcDbEntity
  8
LAYER_1
 62
     7
100
AcDbSpline
210
0.0
220
0.0
230
1.0
 70
    11
 71
     3
 72
    17
 73
    13
 74
     0
 42
0.0000000001
 43
0.0000000001
 40
0.0
 40
0.0
 40
0.0
 40
0.0
 40
1.0
 40
1.0
 40
1.0
 40
2.0
 40
2.0
 40
2.0
 40
3.0
 40
3.0
 40
3.0
 40
4.0
 40
4.0
 40
4.0
 40
4.0
 10
202.9502305265194
 20
-189.3651854995337
 30
0.0
 10
202.9502305265194
 20
-187.7087835902256
 30
0.0
 10
201.606643287272
 20
-186.3651963509782
 30
0.0
 10
199.9505858875124
 20
-186.3651963509782
 30
0.0
 10
198.2938394686557
 20
-186.3651963509782
 30
0.0
 10
196.9502522294083
 20
-187.7087835902256
 30
0.0
 10
196.9502522294083
 20
-189.3651854995337
 30
0.0
 10
196.9502522294083
 20
-191.0229654470359
 30
0.0
 10
198.2938394686557
 20
-192.3651746480893
 30
0.0
 10
199.9505858875124
 20
-192.3651746480893
 30
0.0
 10
201.606643287272
 20
-192.3651746480893
 30
0.0
 10
202.9502305265194
 20
-191.0229654470359
 30
0.0
 10
202.9502305265194
 20
-189.3651854995337
 30
0.0
  0
POLYLINE
  5
137
330
1F
100
AcDbEntity
  8
LAYER_1
 62
    32
100
AcDb2dPolyline
 66
     1
 10
0.0
 20
0.0
 30
0.0
  0
VERTEX
  5
138
330
137
100
AcDbEntity
  8
LAYER_1
 62
    32
100
AcDbVertex
100
AcDb2dVertex
 10
262.44565151859
 20
-184.6727931938492
 30
0.0
  0
VERTEX
  5
139
330
137
100
AcDbEntity
  8
LAYER_1
 62
    32
100
AcDbVertex
100
AcDb2dVertex
 10
237.4457993655517
 20
-184.6727931938492
 30
0.0
  0
VERTEX
  5
13A
330
137
100
AcDbEntity
  8
LAYER_1
 62
    32
100
AcDbVertex
100
AcDb2dVertex
 10
237.4457993655517
 20
-208.6727063822936
 30
0.0
  0
VERTEX
  5
13B
330
137
100
AcDbEntity
  8
LAYER_1
 62
    32
100
AcDbVertex
100
AcDb2dVertex
 10
262.44565151859
 20
-208.6727063822936
 30
0.0
  0
VERTEX
  5
13C
330
137
100
AcDbEntity
  8
LAYER_1
 62
    32
100
AcDbVertex
100
AcDb2dVertex
 10
262.44565151859
 20
-184.6727931938492
 30
0.0
  0
SEQEND
  5
13D
330
137
100
AcDbEntity
  8
LAYER_1
  0
SPLINE
  5
13E
330
1F
100
AcDbEntity
  8
LAYER_1
 62
   250
100
AcDbSpline
210
0.0
220
0.0
230
1.0
 70
    11
 71
     3
 72
    17
 73
    13
 74
     0
 42
0.0000000001
 43
0.0000000001
 40
0.0
 40
0.0
 40
0.0
 40
0.0
 40
1.0
 40
1.0
 40
1.0
 40
2.0
 40
2.0
 40
2.0
 40
3.0
 40
3.0
 40
3.0
 40
4.0
 40
4.0
 40
4.0
 40
4.0
 10
240.6959024463364
 20
-194.0737697539989
 30
0.0
 10
240.6959024463364
 20
-193.5211764381648
 30
0.0
 10
240.2483845428025
 20
-193.0740030441794
 30
0.0
 10
239.6961357365169
 20
-193.0740030441794
 30
0.0
 10
239.1438869302314
 20
-193.0740030441794
 30
0.0
 10
238.6960245171489
 20
-193.5211764381648
 30
0.0
 10
238.6960245171489
 20
-194.0737697539989
 30
0.0
 10
238.6960245171489
 20
-194.626363069833
 30
0.0
 10
239.1438869302314
 20
-195.0735364638184
 30
0.0
 10
239.6961357365169
 20
-195.0735364638184
 30
0.0
 10
240.2483845428025
 20
-195.0735364638184
 30
0.0
 10
240.6959024463364
 20
-194.626363069833
 30
0.0
 10
240.6959024463364
 20
-194.0737697539989
 30
0.0
  0
SPLINE
  5
13F
330
1F
100
AcDbEntity
  8
LAYER_1
 62
   250
100
AcDbSpline
210
0.0
220
0.0
230
1.0
 70
    11
 71
     3
 72
    17
 73
    13
 74
     0
 42
0.0000000001
 43
0.0000000001
 40
0.0
 40
0.0
 40
0.0
 40
0.0
 40
1.0
 40
1.0
 40
1.0
 40
2.0
 40
2.0
 40
2.0
 40
3.0
 40
3.0
 40
3.0
 40
4.0
 40
4.0
 40
4.0
 40
4.0
 10
261.1957708765414
 20
-194.0737697539989
 30
0.0
 10
261.1957708765414
 20
-193.5211764381648
 30
0.0
 10
260.7479084634589
 20
-193.0740030441794
 30
0.0
 10
260.1960041667218
 20
-193.0740030441794
 30
0.0
 10
259.6434108508878
 20
-193.0740030441794
 30
0.0
 10
259.1955484378053
 20
-193.5211764381648
 30
0.0
 10
259.1955484378053
 20
-194.0737697539989
 30
0.0
 10
259.1955484378053
 20
-194.626363069833
 30
0.0
 10
259.6434108508878
 20
-195.0735364638184
 30
0.0
 10
260.1960041667218
 20
-195.0735364638184
 30
0.0
 10
260.7479084634589
 20
-195.0735364638184
 30
0.0
 10
261.1957708765414
 20
-194.626363069833
 30
0.0
 10
261.1957708765414
 20
-194.0737697539989
 30
0.0
  0
SPLINE
  5
140
330
1F
100
AcDbEntity
  8
LAYER_1
 62
   250
100
AcDbSpline
210
0.0
220
0.0
230
1.0
 70
    11
 71
     3
 72
    17
 73
    13
 74
     0
 42
0.0000000001
 43
0.0000000001
 40
0.0
 40
0.0
 40
0.0
 40
0.0
 40
1.0
 40
1.0
 40
1.0
 40
2.0
 40
2.0
 40
2.0
 40
3.0
 40
3.0
 40
3.0
 40
4.0
 40
4.0
 40
4.0
 40
4.0
 10
240.6959024463364
 20
-206.5739542126794
 30
0.0
 10
240.6959024463364
 20
-206.0213608968454
 30
0.0
 10
240.2483845428025
 20
-205.5734984837629
 30
0.0
 10
239.6961357365169
 20
-205.5734984837629
 30
0.0
 10
239.1438869302314
 20
-205.5734984837629
 30
0.0
 10
238.6960245171489
 20
-206.0213608968454
 30
0.0
 10
238.6960245171489
 20
-206.5739542126794
 30
0.0
 10
238.6960245171489
 20
-207.1258585094165
 30
0.0
 10
239.1438869302314
 20
-207.5737209224989
 30
0.0
 10
239.6961357365169
 20
-207.5737209224989
 30
0.0
 10
240.2483845428025
 20
-207.5737209224989
 30
0.0
 10
240.6959024463364
 20
-207.1258585094165
 30
0.0
 10
240.6959024463364
 20
-206.5739542126794
 30
0.0
  0
SPLINE
  5
141
330
1F
100
AcDbEntity
  8
LAYER_1
 62
   250
100
AcDbSpline
210
0.0
220
0.0
230
1.0
 70
    11
 71
     3
 72
    17
 73
    13
 74
     0
 42
0.0000000001
 43
0.0000000001
 40
0.0
 40
0.0
 40
0.0
 40
0.0
 40
1.0
 40
1.0
 40
1.0
 40
2.0
 40
2.0
 40
2.0
 40
3.0
 40
3.0
 40
3.0
 40
4.0
 40
4.0
 40
4.0
 40
4.0
 10
261.1957708765414
 20
-206.5739542126794
 30
0.0
 10
261.1957708765414
 20
-206.0213608968454
 30
0.0
 10
260.7479084634589
 20
-205.5734984837629
 30
0.0
 10
260.1960041667218
 20
-205.5734984837629
 30
0.0
 10
259.6434108508878
 20
-205.5734984837629
 30
0.0
 10
259.1955484378053
 20
-206.0213608968454
 30
0.0
 10
259.1955484378053
 20
-206.5739542126794
 30
0.0
 10
259.1955484378053
 20
-207.1258585094165
 30
0.0
 10
259.6434108508878
 20
-207.5737209224989
 30
0.0
 10
260.1960041667218
 20
-207.5737209224989
 30
0.0
 10
260.7479084634589
 20
-207.5737209224989
 30
0.0
 10
261.1957708765414
 20
-207.1258585094165
 30
0.0
 10
261.1957708765414
 20
-206.5739542126794
 30
0.0
  0
POLYLINE
  5
142
330
1F
100
AcDbEntity
  8
LAYER_1
 62
   250
100
AcDb2dPolyline
 66
     1
 10
0.0
 20
0.0
 30
0.0
  0
VERTEX
  5
143
330
142
100
AcDbEntity
  8
LAYER_1
 62
   250
100
AcDbVertex
100
AcDb2dVertex
 10
253.9462564469301
 20
-190.6727714909603
 30
0.0
  0
VERTEX
  5
144
330
142
100
AcDbEntity
  8
LAYER_1
 62
   250
100
AcDbVertex
100
AcDb2dVertex
 10
245.9458834563087
 20
-190.6727714909603
 30
0.0
  0
VERTEX
  5
145
330
142
100
AcDbEntity
  8
LAYER_1
 62
   250
100
AcDbVertex
100
AcDb2dVertex
 10
245.9458834563087
 20
-198.6729722268075
 30
0.0
  0
VERTEX
  5
146
330
142
100
AcDbEntity
  8
LAYER_1
 62
   250
100
AcDbVertex
100
AcDb2dVertex
 10
253.9462564469301
 20
-198.6729722268075
 30
0.0
  0
VERTEX
  5
147
330
142
100
AcDbEntity
  8
LAYER_1
 62
   250
100
AcDbVertex
100
AcDb2dVertex
 10
253.9462564469301
 20
-190.6727714909603
 30
0.0
  0
SEQEND
  5
148
330
142
100
AcDbEntity
  8
LAYER_1
  0
SPLINE
  5
149
330
1F
100
AcDbEntity
  8
LAYER_1
 62
   250
100
AcDbSpline
210
0.0
220
0.0
230
1.0
 70
    11
 71
     3
 72
   149
 73
   145
 74
     0
 42
0.0000000001
 43
0.0000000001
 40
0.0
 40
0.0
 40
0.0
 40
0.0
 40
1.0
 40
1.0
 40
1.0
 40
2.0
 40
2.0
 40
2.0
 40
3.0
 40
3.0
 40
3.0
 40
4.0
 40
4.0
 40
4.0
 40
5.0
 40
5.0
 40
5.0
 40
6.0
 40
6.0
 40
6.0
 40
7.0
 40
7.0
 40
7.0
 40
8.0
 40
8.0
 40
8.0
 40
9.0
 40
9.0
 40
9.0
 40
10.0
 40
10.0
 40
10.0
 40
11.0
 40
11.0
 40
11.0
 40
12.0
 40
12.0
 40
12.0
 40
13.0
 40
13.0
 40
13.0
 40
14.0
 40
14.0
 40
14.0
 40
15.0
 40
15.0
 40
15.0
 40
16.0
 40
16.0
 40
16.0
 40
17.0
 40
17.0
 40
17.0
 40
18.0
 40
18.0
 40
18.0
 40
19.0
 40
19.0
 40
19.0
 40
20.0
 40
20.0
 40
20.0
 40
21.0
 40
21.0
 40
21.0
 40
22.0
 40
22.0
 40
22.0
 40
23.0
 40
23.0
 40
23.0
 40
24.0
 40
24.0
 40
24.0
 40
25.0
 40
25.0
 40
25.0
 40
26.0
 40
26.0
 40
26.0
 40
27.0
 40
27.0
 40
27.0
 40
28.0
 40
28.0
 40
28.0
 40
29.0
 40
29.0
 40
29.0
 40
30.0
 40
30.0
 40
30.0
 40
31.0
 40
31.0
 40
31.0
 40
32.0
 40
32.0
 40
32.0
 40
33.0
 40
33.0
 40
33.0
 40
34.0
 40
34.0
 40
34.0
 40
35.0
 40
35.0
 40
35.0
 40
36.0
 40
36.0
 40
36.0
 40
37.0
 40
37.0
 40
37.0
 40
38.0
 40
38.0
 40
38.0
 40
39.0
 40
39.0
 40
39.0
 40
40.0
 40
40.0
 40
40.0
 40
41.0
 40
41.0
 40
41.0
 40
42.0
 40
42.0
 40
42.0
 40
43.0
 40
43.0
 40
43.0
 40
44.0
 40
44.0
 40
44.0
 40
45.0
 40
45.0
 40
45.0
 40
46.0
 40
46.0
 40
46.0
 40
47.0
 40
47.0
 40
47.0
 40
48.0
 40
48.0
 40
48.0
 40
48.0
 10
243.4454331531144
 20
-209.8802123498737
 30
0.0
 10
243.4454331531144
 20
-209.8802123498737
 30
0.0
 10
232.8825981405641
 20
-209.8802123498737
 30
0.0
 10
232.8825981405641
 20
-209.8802123498737
 30
0.0
 10
232.8825981405641
 20
-209.8802123498737
 30
0.0
 10
232.8825981405641
 20
-209.8802123498737
 30
0.0
 10
232.8825981405641
 20
-209.8802123498737
 30
0.0
 10
232.8825981405641
 20
-209.8802123498737
 30
0.0
 10
232.8825981405641
 20
-212.8802014984293
 30
0.0
 10
232.8825981405641
 20
-212.8802014984293
 30
0.0
 10
232.8825981405641
 20
-212.8802014984293
 30
0.0
 10
227.0076768095675
 20
-212.8802014984293
 30
0.0
 10
227.0076768095675
 20
-212.8802014984293
 30
0.0
 10
227.0076768095675
 20
-212.8802014984293
 30
0.0
 10
227.0076768095675
 20
-209.8802123498737
 30
0.0
 10
227.0076768095675
 20
-209.8802123498737
 30
0.0
 10
227.0076768095675
 20
-209.8802123498737
 30
0.0
 10
223.0072319320954
 20
-209.8802123498737
 30
0.0
 10
223.0072319320954
 20
-209.8802123498737
 30
0.0
 10
223.0072319320954
 20
-209.8802123498737
 30
0.0
 10
223.0072319320954
 20
-205.8808010010472
 30
0.0
 10
223.0072319320954
 20
-205.8808010010472
 30
0.0
 10
223.0072319320954
 20
-205.8808010010472
 30
0.0
 10
225.0074543708315
 20
-205.8804564914986
 30
0.0
 10
225.0074543708315
 20
-205.8804564914986
 30
0.0
 10
225.0074543708315
 20
-205.8804564914986
 30
0.0
 10
225.0074543708315
 20
-199.880822703936
 30
0.0
 10
225.0074543708315
 20
-199.880822703936
 30
0.0
 10
221.174096624394
 20
-199.880822703936
 30
0.0
 10
218.8407334522343
 20
-199.880822703936
 30
0.0
 10
215.0077202153453
 20
-199.880822703936
 30
0.0
 10
215.0077202153453
 20
-199.880822703936
 30
0.0
 10
215.0077202153453
 20
-205.8804564914986
 30
0.0
 10
215.0077202153453
 20
-205.8804564914986
 30
0.0
 10
215.0077202153453
 20
-205.8804564914986
 30
0.0
 10
217.0079426540813
 20
-205.8808010010472
 30
0.0
 10
217.0079426540813
 20
-205.8808010010472
 30
0.0
 10
217.0079426540813
 20
-205.8808010010472
 30
0.0
 10
217.0079426540813
 20
-209.8809013689708
 30
0.0
 10
217.0079426540813
 20
-209.8809013689708
 30
0.0
 10
217.0079426540813
 20
-209.8809013689708
 30
0.0
 10
213.0074977766093
 20
-209.8802123498737
 30
0.0
 10
213.0074977766093
 20
-209.8802123498737
 30
0.0
 10
213.0074977766093
 20
-209.8802123498737
 30
0.0
 10
213.0074977766093
 20
-212.8802014984293
 30
0.0
 10
213.0074977766093
 20
-212.8802014984293
 30
0.0
 10
213.0074977766093
 20
-212.8802014984293
 30
0.0
 10
207.0075194794981
 20
-212.8802014984293
 30
0.0
 10
207.0075194794981
 20
-212.8802014984293
 30
0.0
 10
207.0075194794981
 20
-212.8802014984293
 30
0.0
 10
207.0075194794981
 20
-209.8809013689708
 30
0.0
 10
207.0075194794981
 20
-209.8809013689708
 30
0.0
 10
207.0075194794981
 20
-209.8809013689708
 30
0.0
 10
207.0075194794981
 20
-209.8802123498737
 30
0.0
 10
207.0075194794981
 20
-209.8802123498737
 30
0.0
 10
207.0075194794981
 20
-209.8802123498737
 30
0.0
 10
207.0075194794981
 20
-209.8802123498737
 30
0.0
 10
207.0075194794981
 20
-209.8802123498737
 30
0.0
 10
207.0075194794981
 20
-209.8802123498737
 30
0.0
 10
203.4449462382013
 20
-209.8802123498737
 30
0.0
 10
203.4449462382013
 20
-209.8802123498737
 30
0.0
 10
203.4449462382013
 20
-209.8802123498737
 30
0.0
 10
193.4462456113607
 20
-209.8819348976163
 30
0.0
 10
193.4462456113607
 20
-209.8819348976163
 30
0.0
 10
193.4462456113607
 20
-209.8819348976163
 30
0.0
 10
193.4455565922636
 20
-187.8810383644881
 30
0.0
 10
193.4455565922636
 20
-187.8810383644881
 30
0.0
 10
193.4455565922636
 20
-185.1104925752502
 30
0.0
 10
195.6766004285114
 20
-182.8801377580994
 30
0.0
 10
198.4464571986523
 20
-182.8801377580994
 30
0.0
 10
198.4464571986523
 20
-182.8801377580994
 30
0.0
 10
198.4464571986523
 20
-182.8663573761584
 30
0.0
 10
198.4464571986523
 20
-182.8663573761584
 30
0.0
 10
198.4464571986523
 20
-182.8663573761584
 30
0.0
 10
301.4451659402637
 20
-182.8665296309327
 30
0.0
 10
301.4451659402637
 20
-182.8665296309327
 30
0.0
 10
304.2150227104046
 20
-182.8665296309327
 30
0.0
 10
306.4446885084583
 20
-185.097228957632
 30
0.0
 10
306.4446885084583
 20
-187.8674302373213
 30
0.0
 10
306.4446885084583
 20
-187.8674302373213
 30
0.0
 10
306.4453775275553
 20
-209.8684990252239
 30
0.0
 10
306.4453775275553
 20
-209.8684990252239
 30
0.0
 10
306.4453775275553
 20
-209.8684990252239
 30
0.0
 10
306.4453775275553
 20
-209.8802123498737
 30
0.0
 10
306.4453775275553
 20
-209.8802123498737
 30
0.0
 10
306.4453775275553
 20
-209.8802123498737
 30
0.0
 10
292.8827256212238
 20
-209.8802123498737
 30
0.0
 10
292.8827256212238
 20
-209.8802123498737
 30
0.0
 10
292.8827256212238
 20
-209.8802123498737
 30
0.0
 10
292.8827256212238
 20
-209.8802123498737
 30
0.0
 10
292.8827256212238
 20
-209.8802123498737
 30
0.0
 10
292.8827256212238
 20
-209.8802123498737
 30
0.0
 10
292.8827256212238
 20
-212.8802014984293
 30
0.0
 10
292.8827256212238
 20
-212.8802014984293
 30
0.0
 10
292.8827256212238
 20
-212.8802014984293
 30
0.0
 10
287.0081487997758
 20
-212.8802014984293
 30
0.0
 10
287.0081487997758
 20
-212.8802014984293
 30
0.0
 10
287.0081487997758
 20
-212.8802014984293
 30
0.0
 10
287.0081487997758
 20
-209.8802123498737
 30
0.0
 10
287.0081487997758
 20
-209.8802123498737
 30
0.0
 10
287.0081487997758
 20
-209.8802123498737
 30
0.0
 10
283.0077039223036
 20
-209.8802123498737
 30
0.0
 10
283.0077039223036
 20
-209.8802123498737
 30
0.0
 10
283.0077039223036
 20
-209.8802123498737
 30
0.0
 10
283.0077039223036
 20
-205.8808010010472
 30
0.0
 10
283.0077039223036
 20
-205.8808010010472
 30
0.0
 10
283.0077039223036
 20
-205.8808010010472
 30
0.0
 10
285.0079263610397
 20
-205.8804564914986
 30
0.0
 10
285.0079263610397
 20
-205.8804564914986
 30
0.0
 10
285.0079263610397
 20
-205.8804564914986
 30
0.0
 10
285.0079263610397
 20
-199.880822703936
 30
0.0
 10
285.0079263610397
 20
-199.880822703936
 30
0.0
 10
281.1749131241507
 20
-199.880822703936
 30
0.0
 10
278.8412054424425
 20
-199.880822703936
 30
0.0
 10
275.0081922055535
 20
-199.880822703936
 30
0.0
 10
275.0081922055535
 20
-199.880822703936
 30
0.0
 10
275.0081922055535
 20
-205.8804564914986
 30
0.0
 10
275.0081922055535
 20
-205.8804564914986
 30
0.0
 10
275.0081922055535
 20
-205.8804564914986
 30
0.0
 10
277.0084146442896
 20
-205.8808010010472
 30
0.0
 10
277.0084146442896
 20
-205.8808010010472
 30
0.0
 10
277.0084146442896
 20
-205.8808010010472
 30
0.0
 10
277.0084146442896
 20
-209.8809013689708
 30
0.0
 10
277.0084146442896
 20
-209.8809013689708
 30
0.0
 10
277.0084146442896
 20
-209.8809013689708
 30
0.0
 10
273.0079697668174
 20
-209.8802123498737
 30
0.0
 10
273.0079697668174
 20
-209.8802123498737
 30
0.0
 10
273.0079697668174
 20
-209.8802123498737
 30
0.0
 10
273.0079697668174
 20
-212.8802014984293
 30
0.0
 10
273.0079697668174
 20
-212.8802014984293
 30
0.0
 10
273.0079697668174
 20
-212.8802014984293
 30
0.0
 10
267.0079914697063
 20
-212.8802014984293
 30
0.0
 10
267.0079914697063
 20
-212.8802014984293
 30
0.0
 10
267.0079914697063
 20
-212.8802014984293
 30
0.0
 10
267.0079914697063
 20
-209.8809013689708
 30
0.0
 10
267.0079914697063
 20
-209.8809013689708
 30
0.0
 10
267.0079914697063
 20
-209.8809013689708
 30
0.0
 10
247.0080063944112
 20
-209.8802123498737
 30
0.0
 10
247.0080063944112
 20
-209.8802123498737
 30
0.0
 10
247.0080063944112
 20
-209.8802123498737
 30
0.0
 10
247.0080063944112
 20
-209.8802123498737
 30
0.0
 10
247.0080063944112
 20
-209.8802123498737
 30
0.0
 10
247.0080063944112
 20
-209.8802123498737
 30
0.0
 10
243.4454331531144
 20
-209.8802123498737
 30
0.0
 10
243.4454331531144
 20
-209.8802123498737
 30
0.0
  0
SPLINE
  5
14A
330
1F
100
AcDbEntity
  8
LAYER_1
 62
   250
100
AcDbSpline
210
0.0
220
0.0
230
1.0
 70
    11
 71
     3
 72
    74
 73
    70
 74
     0
 42
0.0000000001
 43
0.0000000001
 40
0.0
 40
0.0
 40
0.0
 40
0.0
 40
1.0
 40
1.0
 40
1.0
 40
2.0
 40
2.0
 40
2.0
 40
3.0
 40
3.0
 40
3.0
 40
4.0
 40
4.0
 40
4.0
 40
5.0
 40
5.0
 40
5.0
 40
6.0
 40
6.0
 40
6.0
 40
7.0
 40
7.0
 40
7.0
 40
8.0
 40
8.0
 40
8.0
 40
9.0
 40
9.0
 40
9.0
 40
10.0
 40
10.0
 40
10.0
 40
11.0
 40
11.0
 40
11.0
 40
12.0
 40
12.0
 40
12.0
 40
13.0
 40
13.0
 40
13.0
 40
14.0
 40
14.0
 40
14.0
 40
15.0
 40
15.0
 40
15.0
 40
16.0
 40
16.0
 40
16.0
 40
17.0
 40
17.0
 40
17.0
 40
18.0
 40
18.0
 40
18.0
 40
19.0
 40
19.0
 40
19.0
 40
20.0
 40
20.0
 40
20.0
 40
21.0
 40
21.0
 40
21.0
 40
22.0
 40
22.0
 40
22.0
 40
23.0
 40
23.0
 40
23.0
 40
23.0
 10
306.4446885084583
 20
-289.8675780525331
 30
0.0
 10
306.4446885084583
 20
-289.8675780525331
 30
0.0
 10
306.4453775275553
 20
-311.8683023308871
 30
0.0
 10
306.4453775275553
 20
-311.8683023308871
 30
0.0
 10
306.4453775275553
 20
-314.638848120125
 30
0.0
 10
304.2143336913076
 20
-316.8692029372758
 30
0.0
 10
301.4444769211667
 20
-316.8692029372758
 30
0.0
 10
301.4444769211667
 20
-316.8692029372758
 30
0.0
 10
301.4444769211667
 20
-316.8829833192167
 30
0.0
 10
301.4444769211667
 20
-316.8829833192167
 30
0.0
 10
301.4444769211667
 20
-316.8829833192167
 30
0.0
 10
198.4457681795552
 20
-316.8826388096683
 30
0.0
 10
198.4457681795552
 20
-316.8826388096683
 30
0.0
 10
195.6759114094144
 20
-316.8826388096683
 30
0.0
 10
193.4462456113607
 20
-314.6522839925175
 30
0.0
 10
193.4462456113607
 20
-311.8817382032796
 30
0.0
 10
193.4462456113607
 20
-311.8817382032796
 30
0.0
 10
193.4455565922636
 20
-299.8804035708632
 30
0.0
 10
193.4455565922636
 20
-299.8804035708632
 30
0.0
 10
193.4455565922636
 20
-299.8804035708632
 30
0.0
 10
193.4455565922636
 20
-292.3621716934025
 30
0.0
 10
193.4455565922636
 20
-292.3621716934025
 30
0.0
 10
193.4455565922636
 20
-289.6012721715233
 30
0.0
 10
195.684179638579
 20
-287.362649125208
 30
0.0
 10
198.4457681795552
 20
-287.362649125208
 30
0.0
 10
198.4457681795552
 20
-287.362649125208
 30
0.0
 10
198.4461126891038
 20
-287.362649125208
 30
0.0
 10
198.4461126891038
 20
-287.362649125208
 30
0.0
 10
198.4461126891038
 20
-287.362649125208
 30
0.0
 10
201.9470187212146
 20
-287.362649125208
 30
0.0
 10
201.9470187212146
 20
-287.362649125208
 30
0.0
 10
204.7086072621909
 20
-287.362649125208
 30
0.0
 10
206.9472303085062
 20
-285.1240260788926
 30
0.0
 10
206.9472303085062
 20
-282.3631265570134
 30
0.0
 10
206.9472303085062
 20
-282.3631265570134
 30
0.0
 10
206.9472303085062
 20
-263.363080446312
 30
0.0
 10
206.9472303085062
 20
-263.363080446312
 30
0.0
 10
206.9472303085062
 20
-260.6014919053358
 30
0.0
 10
204.7086072621909
 20
-258.3628688590204
 30
0.0
 10
201.9470187212146
 20
-258.3628688590204
 30
0.0
 10
201.9470187212146
 20
-258.3628688590204
 30
0.0
 10
201.9466742116661
 20
-258.3983533425185
 30
0.0
 10
201.9466742116661
 20
-258.3983533425185
 30
0.0
 10
201.9466742116661
 20
-258.3983533425185
 30
0.0
 10
198.4457681795552
 20
-258.3983533425185
 30
0.0
 10
198.4457681795552
 20
-258.3983533425185
 30
0.0
 10
195.684179638579
 20
-258.3983533425185
 30
0.0
 10
193.4455565922636
 20
-256.1597302962031
 30
0.0
 10
193.4455565922636
 20
-253.3981417552269
 30
0.0
 10
193.4455565922636
 20
-253.3981417552269
 30
0.0
 10
193.4455565922636
 20
-227.8813530246269
 30
0.0
 10
193.4455565922636
 20
-227.8813530246269
 30
0.0
 10
193.4455565922636
 20
-225.110807235389
 30
0.0
 10
195.6766004285114
 20
-222.8804524182382
 30
0.0
 10
198.4464571986523
 20
-222.8804524182382
 30
0.0
 10
198.4464571986523
 20
-222.8804524182382
 30
0.0
 10
198.4464571986523
 20
-222.8666720362972
 30
0.0
 10
198.4464571986523
 20
-222.8666720362972
 30
0.0
 10
198.4464571986523
 20
-222.8666720362972
 30
0.0
 10
301.4451659402637
 20
-222.8668442910715
 30
0.0
 10
301.4451659402637
 20
-222.8668442910715
 30
0.0
 10
304.2150227104046
 20
-222.8668442910715
 30
0.0
 10
306.4446885084583
 20
-225.0975436177708
 30
0.0
 10
306.4446885084583
 20
-227.8677448974602
 30
0.0
 10
306.4446885084583
 20
-227.8677448974602
 30
0.0
 10
306.4453775275553
 20
-249.8688136853627
 30
0.0
 10
306.4453775275553
 20
-249.8688136853627
 30
0.0
 10
306.4453775275553
 20
-249.8688136853627
 30
0.0
 10
306.4446885084583
 20
-289.8675780525331
 30
0.0
 10
306.4446885084583
 20
-289.8675780525331
 30
0.0
  0
ENDSEC
  0
SECTION
  2
OBJECTS
  0
DICTIONARY
  5
C
330
0
100
AcDbDictionary
  3
ACAD_GROUP
350
D
  3
ACAD_LAYOUT
350
1A
  3
ACAD_MLINESTYLE
350
17
  3
ACAD_PLOTSETTINGS
350
19
  3
ACAD_TABLESTYLE
350
16B
  3
ACAD_VISUALSTYLE
350
2A
  3
ACDBHEADERROUNDTRIPXREC
350
14B
  0
DICTIONARY
  5
D
102
{ACAD_REACTORS
330
C
102
}
330
C
100
AcDbDictionary
  0
DICTIONARY
  5
1A
102
{ACAD_REACTORS
330
C
102
}
330
C
100
AcDbDictionary
  0
DICTIONARY
  5
17
102
{ACAD_REACTORS
330
C
102
}
330
C
100
AcDbDictionary
  3
STANDARD
350
18
  0
DICTIONARY
  5
19
102
{ACAD_REACTORS
330
C
102
}
330
C
100
AcDbDictionary
  0
DICTIONARY
  5
16B
102
{ACAD_REACTORS
330
C
102
}
330
C
100
AcDbDictionary
  0
DICTIONARY
  5
2A
102
{ACAD_REACTORS
330
C
102
}
330
C
100
AcDbDictionary
  3
2DWIREFRAME
350
2F
  3
3DWIREFRAME
350
30
  3
3D_HIDDEN
350
31
  3
BASIC
350
32
  3
BRIGHTEN
350
36
  3
COLORCHANGE
350
3A
  3
CONCEPTUAL
350
34
  3
DIM
350
35
  3
FACEPATTERN
350
39
  3
FLAT
350
2B
  3
FLATWITHEDGES
350
2C
  3
GOURAUD
350
2D
  3
GOURAUDWITHEDGES
350
2E
  3
LINEPATTERN
350
38
  3
REALISTIC
350
33
  3
THICKEN
350
37
  0
DICTIONARY
  5
14B
102
{ACAD_REACTORS
330
C
102
}
330
C
100
AcDbDictionary
  3
CEPSNTYPE
350
154
  3
DIMSTYLEDATA
350
16A
  3
FINGERPRINTGUID
350
155
  3
HYPERLINKBASE
350
14E
  3
INSUNITS
350
153
  3
LAYOUTDICT
350
150
  3
LWETCUNION
350
152
  3
PLOTSETDICT
350
151
  3
PSVPSCALE
350
157
  3
PUCSBASE
350
15A
  3
PUCSORGBACK
350
160
  3
PUCSORGBOTTOM
350
15C
  3
PUCSORGFRONT
350
15F
  3
PUCSORGLEFT
350
15D
  3
PUCSORGRIGHT
350
15E
  3
PUCSORGTOP
350
15B
  3
PUCSORTHOREF
350
158
  3
PUCSORTHOVIEW
350
159
  3
STYLESHEET
350
14F
  3
TSTACKALIGN
350
14C
  3
TSTACKSIZE
350
14D
  3
UCSBASE
350
163
  3
UCSORGBACK
350
169
  3
UCSORGBOTTOM
350
165
  3
UCSORGFRONT
350
168
  3
UCSORGLEFT
350
166
  3
UCSORGRIGHT
350
167
  3
UCSORGTOP
350
164
  3
UCSORTHOREF
350
161
  3
UCSORTHOVIEW
350
162
  3
VERSIONGUID
350
156
  0
MLINESTYLE
  5
18
102
{ACAD_REACTORS
330
17
102
}
330
17
100
AcDbMlineStyle
  2
Standard
 70
     0
  3

 62
   256
 51
90.0
 52
90.0
 71
     2
 49
0.5
 62
   256
  6
BYLAYER
 49
-0.5
 62
   256
  6
BYLAYER
  0
VISUALSTYLE
  5
2F
102
{ACAD_REACTORS
330
2A
102
}
330
2A
100
AcDbVisualStyle
  2
2dWireframe
 70
     4
 71
     0
 72
     2
 73
     0
 90
        0
 40
-0.6
 41
-30.0
 62
     5
 63
     7
 74
     1
 91
        4
 64
     7
 65
   257
 75
     1
175
     1
 42
1.0
 92
        0
 66
   257
 43
1.0
 76
     1
 77
     6
 78
     2
 67
     7
 79
     5
170
     0
171
     0
290
     0
174
     0
 93
        1
 44
0.0
173
     0
291
     0
 45
0.0
1001
ACAD
1000
AcDbSavedByObjectVersion
1070
     0
  0
VISUALSTYLE
  5
30
102
{ACAD_REACTORS
330
2A
102
}
330
2A
100
AcDbVisualStyle
  2
3dWireframe
 70
     5
 71
     0
 72
     2
 73
     0
 90
        0
 40
-0.6
 41
-30.0
 62
     5
 63
     7
 74
     1
 91
        4
 64
     7
 65
   257
 75
     1
175
     1
 42
1.0
 92
        0
 66
   257
 43
1.0
 76
     1
 77
     6
 78
     2
 67
     7
 79
     5
170
     0
171
     0
290
     0
174
     0
 93
        1
 44
0.0
173
     0
291
     0
 45
0.0
1001
ACAD
1000
AcDbSavedByObjectVersion
1070
     0
  0
VISUALSTYLE
  5
31
102
{ACAD_REACTORS
330
2A
102
}
330
2A
100
AcDbVisualStyle
  2
3D Hidden
 70
     6
 71
     1
 72
     2
 73
     2
 90
        0
 40
-0.6
 41
-30.0
 62
     5
 63
     7
 74
     2
 91
        2
 64
     7
 65
   257
 75
     2
175
     1
 42
40.0
 92
        0
 66
   257
 43
1.0
 76
     1
 77
     6
 78
     2
 67
     7
 79
     3
170
     0
171
     0
290
     0
174
     0
 93
        1
 44
0.0
173
     0
291
     0
 45
0.0
1001
ACAD
1000
AcDbSavedByObjectVersion
1070
     0
  0
VISUALSTYLE
  5
32
102
{ACAD_REACTORS
330
2A
102
}
330
2A
100
AcDbVisualStyle
  2
Basic
 70
     7
 71
     1
 72
     0
 73
     1
 90
        0
 40
-0.6
 41
-30.0
 62
     5
 63
     7
 74
     0
 91
        4
 64
     7
 65
   257
 75
     1
175
     1
 42
1.0
 92
        8
 66
     7
 43
1.0
 76
     1
 77
     6
 78
     2
 67
     7
 79
     5
170
     0
171
     0
290
     0
174
     0
 93
        1
 44
0.0
173
     0
291
     1
 45
0.0
1001
ACAD
1000
AcDbSavedByObjectVersion
1070
     0
  0
VISUALSTYLE
  5
36
102
{ACAD_REACTORS
330
2A
102
}
330
2A
100
AcDbVisualStyle
  2
Brighten
 70
    12
 71
     2
 72
     2
 73
     0
 90
        0
 40
-0.6
 41
-30.0
 62
     5
 63
     7
 74
     1
 91
        4
 64
     7
 65
   257
 75
     1
175
     1
 42
1.0
 92
        8
 66
     7
 43
1.0
 76
     1
 77
     6
 78
     2
 67
     7
 79
     5
170
     0
171
     0
290
     0
174
     0
 93
        1
 44
50.0
173
     0
291
     1
 45
0.0
1001
ACAD
1000
AcDbSavedByObjectVersion
1070
     0
  0
VISUALSTYLE
  5
3A
102
{ACAD_REACTORS
330
2A
102
}
330
2A
100
AcDbVisualStyle
  2
ColorChange
 70
    16
 71
     2
 72
     2
 73
     3
 90
        0
 40
-0.6
 41
-30.0
 62
     5
 63
     8
 74
     1
 91
        4
 64
     7
 65
   257
 75
     1
175
     1
 42
1.0
 92
        8
 66
     8
 43
1.0
 76
     1
 77
     6
 78
     2
 67
     7
 79
     5
170
     0
171
     0
290
     0
174
     0
 93
        1
 44
0.0
173
     0
291
     1
 45
0.0
1001
ACAD
1000
AcDbSavedByObjectVersion
1070
     0
  0
VISUALSTYLE
  5
34
102
{ACAD_REACTORS
330
2A
102
}
330
2A
100
AcDbVisualStyle
  2
Conceptual
 70
     9
 71
     3
 72
     2
 73
     0
 90
        0
 40
-0.6
 41
-30.0
 62
     5
 63
     7
 74
     2
 91
        2
 64
     7
 65
   257
 75
     1
175
     1
 42
40.0
 92
        8
 66
     7
 43
1.0
 76
     1
 77
     6
 78
     2
 67
     7
 79
     3
170
     0
171
     0
290
     0
174
     0
 93
        1
 44
0.0
173
     0
291
     0
 45
0.0
1001
ACAD
1000
AcDbSavedByObjectVersion
1070
     0
  0
VISUALSTYLE
  5
35
102
{ACAD_REACTORS
330
2A
102
}
330
2A
100
AcDbVisualStyle
  2
Dim
 70
    11
 71
     2
 72
     2
 73
     0
 90
        0
 40
-0.6
 41
-30.0
 62
     5
 63
     7
 74
     1
 91
        4
 64
     7
 65
   257
 75
     1
175
     1
 42
1.0
 92
        8
 66
     7
 43
1.0
 76
     1
 77
     6
 78
     2
 67
     7
 79
     5
170
     0
171
     0
290
     0
174
     0
 93
        1
 44
-50.0
173
     0
291
     1
 45
0.0
1001
ACAD
1000
AcDbSavedByObjectVersion
1070
     0
  0
VISUALSTYLE
  5
39
102
{ACAD_REACTORS
330
2A
102
}
330
2A
100
AcDbVisualStyle
  2
Facepattern
 70
    15
 71
     2
 72
     2
 73
     0
 90
        0
 40
-0.6
 41
-30.0
 62
     5
 63
     7
 74
     1
 91
        4
 64
     7
 65
   257
 75
     1
175
     1
 42
1.0
 92
        8
 66
     7
 43
1.0
 76
     1
 77
     6
 78
     2
 67
     7
 79
     5
170
     0
171
     0
290
     0
174
     0
 93
        1
 44
0.0
173
     0
291
     1
 45
0.0
1001
ACAD
1000
AcDbSavedByObjectVersion
1070
     0
  0
VISUALSTYLE
  5
2B
102
{ACAD_REACTORS
330
2A
102
}
330
2A
100
AcDbVisualStyle
  2
Flat
 70
     0
 71
     2
 72
     1
 73
     1
 90
        2
 40
-0.6
 41
30.0
 62
     5
 63
     7
 74
     0
 91
        4
 64
     7
 65
   257
 75
     1
175
     1
 42
1.0
 92
        8
 66
     7
 43
1.0
 76
     1
 77
     6
 78
     2
 67
     7
 79
     5
170
     0
171
     0
290
     0
174
     0
 93
       13
 44
0.0
173
     0
291
     1
 45
0.0
1001
ACAD
1000
AcDbSavedByObjectVersion
1070
     0
  0
VISUALSTYLE
  5
2C
102
{ACAD_REACTORS
330
2A
102
}
330
2A
100
AcDbVisualStyle
  2
FlatWithEdges
 70
     1
 71
     2
 72
     1
 73
     1
 90
        2
 40
-0.6
 41
30.0
 62
     5
 63
     7
 74
     1
 91
        4
 64
     7
 65
   257
 75
     1
175
     1
 42
1.0
 92
        0
 66
   257
 43
1.0
 76
     1
 77
     6
 78
     2
 67
     7
 79
     5
170
     0
171
     0
290
     0
174
     0
 93
       13
 44
0.0
173
     0
291
     1
 45
0.0
1001
ACAD
1000
AcDbSavedByObjectVersion
1070
     0
  0
VISUALSTYLE
  5
2D
102
{ACAD_REACTORS
330
2A
102
}
330
2A
100
AcDbVisualStyle
  2
Gouraud
 70
     2
 71
     2
 72
     2
 73
     1
 90
        2
 40
-0.6
 41
30.0
 62
     5
 63
     7
 74
     0
 91
        4
 64
     7
 65
   257
 75
     1
175
     1
 42
1.0
 92
        0
 66
     7
 43
1.0
 76
     1
 77
     6
 78
     2
 67
     7
 79
     5
170
     0
171
     0
290
     0
174
     0
 93
       13
 44
0.0
173
     0
291
     1
 45
0.0
1001
ACAD
1000
AcDbSavedByObjectVersion
1070
     0
  0
VISUALSTYLE
  5
2E
102
{ACAD_REACTORS
330
2A
102
}
330
2A
100
AcDbVisualStyle
  2
GouraudWithEdges
 70
     3
 71
     2
 72
     2
 73
     1
 90
        2
 40
-0.6
 41
30.0
 62
     5
 63
     7
 74
     1
 91
        4
 64
     7
 65
   257
 75
     1
175
     1
 42
1.0
 92
        0
 66
   257
 43
1.0
 76
     1
 77
     6
 78
     2
 67
     7
 79
     5
170
     0
171
     0
290
     0
174
     0
 93
       13
 44
0.0
173
     0
291
     1
 45
0.0
1001
ACAD
1000
AcDbSavedByObjectVersion
1070
     0
  0
VISUALSTYLE
  5
38
102
{ACAD_REACTORS
330
2A
102
}
330
2A
100
AcDbVisualStyle
  2
Linepattern
 70
    14
 71
     2
 72
     2
 73
     0
 90
        0
 40
-0.6
 41
-30.0
 62
     5
 63
     7
 74
     1
 91
        4
 64
     7
 65
   257
 75
     7
175
     7
 42
1.0
 92
        8
 66
     7
 43
1.0
 76
     1
 77
     6
 78
     2
 67
     7
 79
     5
170
     0
171
     0
290
     0
174
     0
 93
        1
 44
0.0
173
     0
291
     1
 45
0.0
1001
ACAD
1000
AcDbSavedByObjectVersion
1070
     0
  0
VISUALSTYLE
  5
33
102
{ACAD_REACTORS
330
2A
102
}
330
2A
100
AcDbVisualStyle
  2
Realistic
 70
     8
 71
     2
 72
     2
 73
     0
 90
        0
 40
-0.6
 41
-30.0
 62
     5
 63
     7
 74
     1
 91
        0
 64
     7
 65
   257
 75
     1
175
     1
 42
1.0
 92
        8
 66
     8
 43
1.0
 76
     1
 77
     6
 78
     2
 67
     7
 79
     5
170
     0
171
     0
290
     0
174
     0
 93
       13
 44
0.0
173
     0
291
     0
 45
0.0
1001
ACAD
1000
AcDbSavedByObjectVersion
1070
     0
  0
VISUALSTYLE
  5
37
102
{ACAD_REACTORS
330
2A
102
}
330
2A
100
AcDbVisualStyle
  2
Thicken
 70
    13
 71
     2
 72
     2
 73
     0
 90
        0
 40
-0.6
 41
-30.0
 62
     5
 63
     7
 74
     1
 91
        4
 64
     7
 65
   257
 75
     1
175
     1
 42
1.0
 92
       12
 66
     7
 43
1.0
 76
     1
 77
     6
 78
     2
 67
     7
 79
     5
170
     0
171
     0
290
     0
174
     0
 93
        1
 44
0.0
173
     0
291
     1
 45
0.0
1001
ACAD
1000
AcDbSavedByObjectVersion
1070
     0
  0
XRECORD
  5
154
102
{ACAD_REACTORS
330
14B
102
}
330
14B
100
AcDbXrecord
 90
        0
  0
XRECORD
  5
16A
102
{ACAD_REACTORS
330
14B
102
}
330
14B
100
AcDbXrecord
1000
DSTYLE
1002
{
1070
   340
340
11
1002
}
  0
XRECORD
  5
155
102
{ACAD_REACTORS
330
14B
102
}
330
14B
100
AcDbXrecord
  1
{A20A8ACC-7309-DCDD-567F-953A18035EB6}
  0
XRECORD
  5
14E
102
{ACAD_REACTORS
330
14B
102
}
330
14B
100
AcDbXrecord
  1

  0
XRECORD
  5
153
102
{ACAD_REACTORS
330
14B
102
}
330
14B
100
AcDbXrecord
 90
        1
  0
XRECORD
  5
150
102
{ACAD_REACTORS
330
14B
102
}
330
14B
100
AcDbXrecord
340
1A
  0
XRECORD
  5
152
102
{ACAD_REACTORS
330
14B
102
}
330
14B
100
AcDbXrecord
 90
    10269
  0
XRECORD
  5
151
102
{ACAD_REACTORS
330
14B
102
}
330
14B
100
AcDbXrecord
340
19
  0
XRECORD
  5
157
102
{ACAD_REACTORS
330
14B
102
}
330
14B
100
AcDbXrecord
 40
0.0
  0
XRECORD
  5
15A
102
{ACAD_REACTORS
330
14B
102
}
330
14B
100
AcDbXrecord
340
0
  0
XRECORD
  5
160
102
{ACAD_REACTORS
330
14B
102
}
330
14B
100
AcDbXrecord
 10
0.0
 20
0.0
 30
0.0
  0
XRECORD
  5
15C
102
{ACAD_REACTORS
330
14B
102
}
330
14B
100
AcDbXrecord
 10
0.0
 20
0.0
 30
0.0
  0
XRECORD
  5
15F
102
{ACAD_REACTORS
330
14B
102
}
330
14B
100
AcDbXrecord
 10
0.0
 20
0.0
 30
0.0
  0
XRECORD
  5
15D
102
{ACAD_REACTORS
330
14B
102
}
330
14B
100
AcDbXrecord
 10
0.0
 20
0.0
 30
0.0
  0
XRECORD
  5
15E
102
{ACAD_REACTORS
330
14B
102
}
330
14B
100
AcDbXrecord
 10
0.0
 20
0.0
 30
0.0
  0
XRECORD
  5
15B
102
{ACAD_REACTORS
330
14B
102
}
330
14B
100
AcDbXrecord
 10
0.0
 20
0.0
 30
0.0
  0
XRECORD
  5
158
102
{ACAD_REACTORS
330
14B
102
}
330
14B
100
AcDbXrecord
340
0
  0
XRECORD
  5
159
102
{ACAD_REACTORS
330
14B
102
}
330
14B
100
AcDbXrecord
 70
     0
  0
XRECORD
  5
14F
102
{ACAD_REACTORS
330
14B
102
}
330
14B
100
AcDbXrecord
  1

  0
XRECORD
  5
14C
102
{ACAD_REACTORS
330
14B
102
}
330
14B
100
AcDbXrecord
 90
        1
  0
XRECORD
  5
14D
102
{ACAD_REACTORS
330
14B
102
}
330
14B
100
AcDbXrecord
 90
       70
  0
XRECORD
  5
163
102
{ACAD_REACTORS
330
14B
102
}
330
14B
100
AcDbXrecord
340
0
  0
XRECORD
  5
169
102
{ACAD_REACTORS
330
14B
102
}
330
14B
100
AcDbXrecord
 10
0.0
 20
0.0
 30
0.0
  0
XRECORD
  5
165
102
{ACAD_REACTORS
330
14B
102
}
330
14B
100
AcDbXrecord
 10
0.0
 20
0.0
 30
0.0
  0
XRECORD
  5
168
102
{ACAD_REACTORS
330
14B
102
}
330
14B
100
AcDbXrecord
 10
0.0
 20
0.0
 30
0.0
  0
XRECORD
  5
166
102
{ACAD_REACTORS
330
14B
102
}
330
14B
100
AcDbXrecord
 10
0.0
 20
0.0
 30
0.0
  0
XRECORD
  5
167
102
{ACAD_REACTORS
330
14B
102
}
330
14B
100
AcDbXrecord
 10
0.0
 20
0.0
 30
0.0
  0
XRECORD
  5
164
102
{ACAD_REACTORS
330
14B
102
}
330
14B
100
AcDbXrecord
 10
0.0
 20
0.0
 30
0.0
  0
XRECORD
  5
161
102
{ACAD_REACTORS
330
14B
102
}
330
14B
100
AcDbXrecord
340
0
  0
XRECORD
  5
162
102
{ACAD_REACTORS
330
14B
102
}
330
14B
100
AcDbXrecord
 70
     0
  0
XRECORD
  5
156
102
{ACAD_REACTORS
330
14B
102
}
330
14B
100
AcDbXrecord
  1
{FAEB1C32-E019-11D5-929B-00C0DF256EC4}
  0
ENDSEC
  0
EOF
